<svg xmlns="http://www.w3.org/2000/svg" width="1600" height="900" viewBox="0 0 1600 900"><defs><style>.cls-1{fill:#a0a0a0;}.cls-16,.cls-2{fill:#0075aa;}.cls-3{fill:#8f6599;}.cls-4{fill:#2d877c;}.cls-5{fill:#403200;}.cls-6{fill:#187343;}.cls-24,.cls-7{fill:#209959;}.cls-8{opacity:0.1;}.cls-9{fill:#35261a;}.cls-10{fill:#a54697;}.cls-11,.cls-19{fill:#e6c85e;}.cls-12{fill:#dd8d3e;}.cls-13,.cls-17{fill:#513a70;}.cls-14{fill:#2b8bc1;}.cls-15,.cls-25{fill:#b2630c;}.cls-16,.cls-17,.cls-19,.cls-20,.cls-23,.cls-24,.cls-25,.cls-32{opacity:0;}.cls-18{fill:#c478b4;}.cls-20{fill:#00a99d;}.cls-21{fill:#673a6d;}.cls-22{fill:#438dba;}.cls-23{fill:#c686d1;}.cls-26{fill:#20894f;}.cls-27{fill:#1f894e;}.cls-28{fill:#23844f;}.cls-29{fill:#352010;}.cls-30{fill:#fff;}.cls-31{fill:#020202;}.cls-32{fill:#a64c44;}</style></defs><title>baggrund</title><g id="spilleskærm"><rect class="cls-1" x="-27.5" y="-82.5" width="1706" height="1020" rx="12"/><rect class="cls-2" x="882.1" y="278.78" width="44.9" height="208.79" rx="13.47" transform="translate(235.2 -335.85) rotate(24.09)"/><rect class="cls-3" x="821.43" y="277.51" width="56.06" height="208.79" rx="15.15" transform="translate(229.88 -313.48) rotate(24.09)"/><rect class="cls-4" x="759.43" y="278.51" width="56.06" height="208.79" rx="15.15" transform="translate(224.89 -288.08) rotate(24.09)"/><rect class="cls-5" x="497.5" y="24.5" width="18" height="883" rx="8.67"/><rect class="cls-5" x="1057" y="-564" width="27" height="1188" rx="12.32" transform="translate(1040.5 1100.5) rotate(-90)"/><rect class="cls-5" x="1070" y="310" width="18" height="1163" rx="9" transform="translate(187.5 1970.5) rotate(-90)"/><rect class="cls-5" x="1070" y="126" width="18" height="1163" rx="9" transform="translate(371.5 1786.5) rotate(-90)"/><rect class="cls-5" x="1070" y="-89" width="18" height="1163" rx="9" transform="translate(586.5 1571.5) rotate(-90)"/><rect class="cls-5" x="1070" y="-321" width="18" height="1163" rx="9" transform="translate(818.5 1339.5) rotate(-90)"/><path class="cls-6" d="M1372,384a5.69,5.69,0,0,1-1.41.26c-2.94.19-7-1.51-11.71-4.69-10.22-6.9-23.57-20.79-35.48-37.7-18.37-26.08-26.38-49.49-17.9-52.29,3.53-1.17,9.35,1.42,16.28,6.71A124,124,0,0,1,1337,310.43a206.17,206.17,0,0,1,17.11,21.25C1372.5,357.75,1380.51,381.17,1372,384Z"/><path class="cls-7" d="M1377.84,391.08a7.78,7.78,0,0,1-4.27-.36c-4.08-1.36-9.19-5.32-14.66-11.18-7.64-8.2-16-20.09-23.24-33.73-11.6-21.82-16.8-41.48-13.86-49.55a5.39,5.39,0,0,1,3.72-3.71,6.94,6.94,0,0,1,3.4.1c9.69,2.4,26,21.06,38.77,45.16C1382.15,365,1386.68,388.86,1377.84,391.08Z"/><path class="cls-8" d="M1373.57,390.72c-4.08-1.36-9.19-5.32-14.66-11.18-10.22-6.9-23.57-20.79-35.48-37.7-18.37-26.08-26.38-49.49-17.9-52.29,3.53-1.17,9.35,1.42,16.28,6.71a5.39,5.39,0,0,1,3.72-3.71,6.94,6.94,0,0,1,3.4.1l8.09,17.78,33.6,73.8Z"/><path class="cls-6" d="M1381.83,383.12a4,4,0,0,1-1.16-.61c-2-1.48-2.53-4.72-1.74-9.22,1.73-9.76,9.62-25.48,21.88-42.28,18.89-25.9,41-44.55,49.47-41.66,3.5,1.2,4.07,5.95,2.19,12.94a84.4,84.4,0,0,1-7.08,16.9,184.44,184.44,0,0,1-14.09,22.27C1412.4,367.36,1390.25,386,1381.83,383.12Z"/><path class="cls-7" d="M1377.17,390.61a3.82,3.82,0,0,1-2.2-2.53c-.93-3.05.54-8.24,4-14.79,4.8-9.15,13.43-21,24.76-33.22,18.13-19.62,37.65-34.45,48.78-37.78,2.75-.82,5-.94,6.56-.25a3.75,3.75,0,0,1,2,1.9c3.14,6.73-8.46,27-28.49,48.63C1409.9,377,1385.13,394.06,1377.17,390.61Z"/><path class="cls-8" d="M1375,388.08c-.93-3.05.54-8.24,4-14.79,1.73-9.76,9.62-25.48,21.88-42.28,18.89-25.9,41-44.55,49.47-41.66,3.5,1.2,4.07,5.95,2.19,12.94,2.75-.82,5-.94,6.56-.25a3.75,3.75,0,0,1,2,1.9l-15.6,15.25-64.72,63.32Z"/><path class="cls-6" d="M1376.36,378.45a5,5,0,0,1-1.34-.39c-2.49-1.09-4.17-4.13-5-8.63-1.89-9.75,0-26.32,5.76-44.69,8.86-28.31,23.51-50.16,32.71-48.81,3.84.57,6.11,5.06,6.84,12.16a75.42,75.42,0,0,1-.68,17.58,152.94,152.94,0,0,1-5.53,24C1400.22,358,1385.57,379.8,1376.36,378.45Z"/><path class="cls-7" d="M1374.58,386.5a5,5,0,0,1-3-2.07c-2-2.79-2.48-8.07-1.55-15,1.3-9.68,5.36-22.59,11.86-36.4,10.4-22.11,23.89-39.81,33.45-44.94,2.37-1.26,4.49-1.77,6.26-1.37a4.93,4.93,0,0,1,2.6,1.51c5.49,6,1.63,27.56-9.86,52C1401.32,367.75,1383.55,388.48,1374.58,386.5Z"/><path class="cls-8" d="M1371.53,384.43c-2-2.79-2.48-8.07-1.55-15-1.89-9.75,0-26.32,5.76-44.69,8.86-28.31,23.51-50.16,32.71-48.81,3.84.57,6.11,5.06,6.84,12.16,2.37-1.26,4.49-1.77,6.26-1.37a4.93,4.93,0,0,1,2.6,1.51l-9.54,17.44L1375,378.06Z"/><path class="cls-6" d="M1378.79,378.46a5.5,5.5,0,0,1-1.46,0c-2.9-.38-6.1-2.79-9.33-6.75-7-8.59-14.13-24.48-18.66-43-7-28.56-5.11-52.57,4.18-53.63,3.86-.45,8.39,3.15,12.89,9.57a91.39,91.39,0,0,1,8.81,16.51,157.91,157.91,0,0,1,7.75,23.69C1390,353.38,1388.07,377.4,1378.79,378.46Z"/><path class="cls-7" d="M1381.46,386.4a6.91,6.91,0,0,1-4-1.16c-3.37-2.09-6.65-6.88-9.51-13.55-4-9.33-7.15-22.35-8.54-36.84-2.21-23.17.82-43,7-50.22a7.19,7.19,0,0,1,5.08-2.86,6.47,6.47,0,0,1,3.22.75c8.33,4.17,16.34,25.21,18.77,50.8C1396.24,362.21,1390.86,386,1381.46,386.4Z"/><path class="cls-8" d="M1377.51,385.24c-3.37-2.09-6.65-6.88-9.51-13.55-7-8.59-14.13-24.48-18.66-43-7-28.56-5.11-52.57,4.18-53.63,3.86-.45,8.39,3.15,12.89,9.57a7.19,7.19,0,0,1,5.08-2.86,6.47,6.47,0,0,1,3.22.75l.51,18.62,2.11,77.3Z"/><path class="cls-5" d="M1434.88,472c0,12.64-28.21,12.16-46.66,12.16h-17c-18.44,0-42.8,3.13-42.8-9.52l17-81.39c1.91-6.56,3.75-12.33,7.36-16.49S1362,370,1371.25,370h17c10,0,15.39,2.49,19,6.7,3,3.56,4.75,8.35,6.88,13.92Z"/><path class="cls-9" d="M1424.08,370.26c0,2.61-6.61,4.93-16.9,6.43a195.73,195.73,0,0,1-27.06,1.76h-.38a197.76,197.76,0,0,1-27-1.69c-10.57-1.49-17.39-3.85-17.39-6.5,0-4.53,19.85-8.2,44.35-8.2h.38C1404.44,362.1,1424.08,365.76,1424.08,370.26Z"/><path class="cls-8" d="M1380.12,362.06v122.1h-8.87c-18.44,0-42.8,3.13-42.8-9.52l17-81.39c1.91-6.56,3.75-12.33,7.36-16.49-10.57-1.49-17.39-3.85-17.39-6.5,0-4.53,19.85-8.2,44.35-8.2Z"/><rect class="cls-2" x="837.5" y="502.11" width="48.32" height="195.78" rx="11.62"/><rect class="cls-10" x="887.28" y="502.11" width="48.32" height="195.78" rx="11.62"/><rect class="cls-11" x="935.6" y="531.44" width="56.37" height="166.45" rx="11.62"/><rect class="cls-12" x="991.97" y="602.23" width="60.53" height="95.66" rx="14.37"/><rect class="cls-2" x="547.98" y="43.5" width="50.94" height="210" rx="12.35"/><rect class="cls-11" x="600.46" y="43.5" width="50.94" height="210" rx="12.35"/><rect class="cls-10" x="651.4" y="74.97" width="59.43" height="178.53" rx="12.35"/><rect class="cls-13" x="710.82" y="150.89" width="41.68" height="102.61" rx="12.35"/><rect class="cls-14" x="854.32" y="115.51" width="57" height="216.99" rx="19.79" transform="translate(1106.82 -658.82) rotate(90)"/><rect class="cls-15" x="863.46" y="71.5" width="40" height="208" rx="13.6" transform="translate(1058.96 -707.96) rotate(90)"/><rect class="cls-16" x="834.41" y="-37.41" width="75" height="238.81" rx="18.62" transform="translate(953.91 -789.91) rotate(90)"/><rect class="cls-15" x="1117.23" y="243.77" width="49.36" height="256.81" rx="15.66" transform="translate(1514.09 -769.73) rotate(90)"/><rect class="cls-17" x="1092.41" y="144.59" width="73" height="330.81" rx="21.62" transform="translate(1438.91 -818.91) rotate(90)"/><rect class="cls-11" x="1129.18" y="298.09" width="44" height="238.81" rx="14.26" transform="translate(1568.68 -733.68) rotate(90)"/><rect class="cls-2" x="1110.36" y="318.46" width="45" height="283.08" rx="15.7" transform="translate(1592.86 -672.86) rotate(90)"/><rect class="cls-2" x="555.85" y="682.71" width="43.86" height="203.95" rx="13.16" transform="translate(1425.54 1265.18) rotate(155.91)"/><rect class="cls-18" x="604.21" y="681.47" width="54.76" height="203.95" rx="14.8" transform="translate(1527.97 1240.83) rotate(155.91)"/><rect class="cls-11" x="664.78" y="682.44" width="54.76" height="203.95" rx="14.8" transform="matrix(-0.91, 0.41, -0.41, -0.91, 1644.21, 1217.98)"/><rect class="cls-2" x="1587.37" y="729.45" width="43.55" height="155.54" rx="11.51" transform="translate(469.66 -586.53) rotate(24.09)"/><rect class="cls-13" x="1527.12" y="726.8" width="58.83" height="155.54" rx="13.49" transform="translate(464 -565.28) rotate(24.09)"/><rect class="cls-19" x="1449.28" y="725.6" width="70.77" height="159.31" rx="15.08" transform="translate(458.02 -535.89) rotate(24.09)"/><rect class="cls-11" x="788.45" y="119.5" width="196.44" height="36" rx="10.28"/><rect class="cls-2" x="1033.98" y="44.5" width="59.9" height="207" rx="13.3"/><rect class="cls-11" x="1095.7" y="44.5" width="51.8" height="207" rx="12.37"/><rect class="cls-20" x="1147.5" y="44.5" width="77.99" height="207" rx="15.24"/><rect class="cls-13" x="1225.49" y="58.5" width="49.01" height="193" rx="18.37"/><rect class="cls-21" x="1274.11" y="74.5" width="49.01" height="177" rx="17.59"/><rect class="cls-22" x="1323.12" y="43.5" width="69.38" height="208" rx="22.69"/><rect class="cls-12" x="1392.12" y="42.5" width="69.38" height="208" rx="22.69"/><rect class="cls-11" x="1461.12" y="109.5" width="49.38" height="142" rx="15.82"/><rect class="cls-18" x="1510.12" y="87.5" width="49.38" height="164" rx="17"/><rect class="cls-13" x="1559.12" y="111.5" width="49.38" height="142" rx="15.82"/><rect class="cls-4" x="1272.89" y="773.89" width="39.22" height="178" rx="14.87" transform="translate(2155.39 -429.61) rotate(90)"/><rect class="cls-15" x="1260.51" y="729.63" width="46.85" height="180.45" rx="13.71" transform="translate(2103.78 -464.08) rotate(90)"/><rect class="cls-2" x="1253.74" y="633.07" width="40.33" height="207.19" rx="12.72" transform="translate(2010.57 -537.24) rotate(90)"/><rect class="cls-11" x="1201.5" y="756.83" width="170.43" height="39.6" rx="10.04"/><rect class="cls-2" x="783.49" y="719.5" width="51.07" height="163" rx="10.9"/><rect class="cls-13" x="962.08" y="717.5" width="51.43" height="165" rx="11.56"/><rect class="cls-23" x="1046.5" y="758.5" width="71" height="131.32" rx="12.11"/><rect class="cls-3" x="1118.24" y="718.5" width="51.12" height="164" rx="11.49"/><path class="cls-24" d="M1299.88,526.63l23.49-.11c16.47-.07,30,6.75,30.08,15.16l1.34,142.85c.08,8.42-13.33,15.36-29.79,15.44l-23.49.11c-16.47.07-30-6.75-30.08-15.16l-1.34-142.85C1270,533.65,1283.42,526.71,1299.88,526.63Z"/><path class="cls-15" d="M1368.27,532.43l20.86-.08c8.09,0,14.76,5.63,14.81,12.57l1.12,141c0,6.94-6.52,12.65-14.61,12.68l-20.86.08c-8.09,0-14.76-5.62-14.81-12.57l-1.12-141C1353.61,538.17,1360.18,532.46,1368.27,532.43Z"/><path class="cls-2" d="M1478.92,508.5l20.79-.09c9.76,0,17.79,5.2,17.85,11.64L1519,687.51c0,6.44-7.89,11.75-17.65,11.79l-20.78.09c-9.76,0-17.79-5.19-17.85-11.64l-1.43-167.46C1461.22,513.85,1469.16,508.54,1478.92,508.5Z"/><path class="cls-11" d="M1405.15,689.25,1404,550.73c0-5.09,6.4-9.28,14.31-9.32l28-.12c7.92,0,14.43,4.1,14.48,9.19L1461.92,689c0,5.09-6.4,9.28-14.31,9.32l-28,.12C1411.71,698.47,1405.2,694.34,1405.15,689.25Z"/><path class="cls-4" d="M1660.47,524l0,15.79c0,11.07-4.08,20.15-9.13,20.19l-85.75.6c-5.05,0-9.2-9-9.23-20.06l0-15.79c0-11.07,4.09-20.15,9.14-20.19l85.74-.6C1656.29,503.94,1660.45,513,1660.47,524Z"/><path class="cls-15" d="M1660.48,572.44l0,17.59c0,6.82-3.5,12.42-7.81,12.44l-87.43.52c-4.31,0-7.85-5.53-7.86-12.36l0-17.58c0-6.82,3.5-12.43,7.81-12.45l87.43-.52C1656.93,560.06,1660.47,565.62,1660.48,572.44Z"/><path class="cls-2" d="M1660.47,665.85l0,17.52c0,8.23-2.84,15-6.35,15L1563,699c-3.51,0-6.4-6.68-6.42-14.91l0-17.53c0-8.22,2.83-15,6.34-15l91.16-.67C1657.56,650.91,1660.45,657.62,1660.47,665.85Z"/><path class="cls-11" d="M1563.54,603.06l90.83-.61c3.33,0,6.08,5.42,6.09,12.1l.06,23.59c0,6.67-2.71,12.15-6,12.17l-90.83.61c-3.33,0-6.08-5.42-6.09-12.09l-.06-23.59C1557.49,608.56,1560.2,603.08,1563.54,603.06Z"/><path class="cls-25" d="M1485.32,317.39l34-.13c13.17-.05,24,5.59,24.09,12.53l1.51,141c.08,6.94-10.64,12.67-23.82,12.72l-34,.14c-13.18,0-24-5.59-24.1-12.54l-1.51-141C1461.43,323.17,1472.15,317.45,1485.32,317.39Z"/><path class="cls-2" d="M1610,293.5l24.65-.09c11.57,0,21.09,5.2,21.15,11.64l1.7,167.46c.06,6.44-9.35,11.75-20.92,11.79l-24.64.09c-11.57,0-21.09-5.19-21.16-11.64l-1.7-167.46C1589,298.85,1598.43,293.54,1610,293.5Z"/><path class="cls-11" d="M1545.33,474.12l-1.2-138.52c-.05-5.09,5-9.27,11.2-9.28l21.94-.06c6.21,0,11.33,4.13,11.37,9.22L1589.85,474c0,5.09-5,9.27-11.21,9.28l-21.94.06C1550.49,483.36,1545.38,479.21,1545.33,474.12Z"/><rect class="cls-9" x="1147.41" y="662.11" width="14.12" height="25.67" rx="7.06"/><path class="cls-5" d="M1155.07,674.34c-.87,0-1.75,0-2.63,0A80.5,80.5,0,0,1,1074.83,593a77.41,77.41,0,0,1,80.18-76.5,79.7,79.7,0,0,1,55.36,24.88A7.7,7.7,0,0,1,1199.23,552a64.4,64.4,0,0,0-44.72-20.12,62,62,0,0,0-64.28,61.33,65.08,65.08,0,0,0,62.71,65.73A61.78,61.78,0,0,0,1198,641.8a7.7,7.7,0,0,1,10.64,11.14A77.05,77.05,0,0,1,1155.07,674.34Z"/><rect class="cls-5" x="1178.21" y="636.44" width="9.63" height="18.61" rx="4.81" transform="translate(-164.38 678.03) rotate(-30)"/><rect class="cls-5" x="1119.81" y="535.05" width="9.63" height="18.61" rx="4.81" transform="translate(-121.51 635.24) rotate(-30)"/><circle class="cls-2" cx="1153.18" cy="594.09" r="55.19"/><path class="cls-26" d="M1187.83,559.55c-7.77.75-7.88,15.63-17.52,11.66-3.75-1.54-8.23,5.23-13.2,4.89-5.54-.38-9.72-8.28-14.11-10-5-1.92-14.86.94-14-2.88s-2.87-5.11-2.68-7.91c.63-9.19,14.9-15.7,31.87-14.53S1197,558.66,1187.83,559.55Z"/><path class="cls-27" d="M1134.26,597.25c.65,3.37,2.24,9.67.1,11.22-3.94,2.84-3.42,10.07-6.2,10-3-.07-4.69,4.92-6.93,2.83-6.75-6.34-10.79-2.42-14.49-5s-5.54-7.5-6.51-12.57c-2.2-11.49,12.67-33.62,13-24.06.14,3.47,6.28,2.17,9.47,1.35,6.71-1.73,4.14,7.25,9.22,9.4C1137.2,592.68,1133.8,594.8,1134.26,597.25Z"/><path class="cls-28" d="M1146.48,586.37c1.57,5.15-7.27,12.52-3.22,14.6,2.86,1.46,2.86,5.31,4.53,6.86,2.32,2.16,6.14,0,9.07,1.5,2.74,1.44,4.54-4.94,9.8-6.26,2.57-.64.64-7.7,2.57-8.34,4.91-1.63,2.71-16.64-2.31-15-2.83.91-10.53.27-15.32,1.37C1149.32,581.59,1145.71,583.88,1146.48,586.37Z"/><path class="cls-7" d="M1126.87,636.77c-5,3.72,11.93,11.23,26.63,11.23s29.2-7.71,26.64-11.23c-1.13-1.55-.76-6.2-3.12-5.28-3.79,1.48-9.72-2.75-10.2-4.45-1.09-3.88-11.07-3.43-13.32-1.51-2.69,2.31-7.25-.65-10,.83-5.7,3-11.42,3.15-14.23,5.76C1127.72,633.54,1128.16,635.8,1126.87,636.77Z"/><path class="cls-27" d="M1174.76,603.54a9.59,9.59,0,0,1-2,8.68c-3.56,3.69,3.12,7.21,2.24,10.32-.67,2.35,3.24,2.89,5.32,4.74,7.29,6.46,16.39-2.31,20.57-13.12,2.52-6.53,5.79-13.27,1.68-16.86-2.15-1.88-5.93-6.45-9-7.7-2.51-1-5.27,5.11-10.91,6.41C1179.6,596.73,1173.46,599.55,1174.76,603.54Z"/><path class="cls-7" d="M1137.47,597.89c.65,3.38,2.24,9.68.1,11.22-3.94,2.84-3.42,10.07-6.21,10-3-.07-4.68,4.93-6.92,2.83-6.75-6.33-10.79-2.42-14.49-5s-5.54-7.51-6.51-12.58c-2.2-11.49,12.66-33.62,13-24.06.13,3.47,6.28,2.17,9.46,1.35,6.72-1.73,4.15,7.26,9.23,9.4C1140.4,593.32,1137,595.44,1137.47,597.89Z"/><path class="cls-7" d="M1190.4,561.47c-7.77.76-7.88,15.63-17.52,11.67-3.76-1.55-8.24,5.22-13.2,4.88-5.54-.38-9.72-8.27-14.11-10-5-1.92-14.87.93-14-2.89s-2.86-5.11-2.67-7.9c.63-9.19,14.9-15.7,31.87-14.54S1199.57,560.59,1190.4,561.47Z"/><path class="cls-7" d="M1148.4,588.3c1.57,5.15-7.27,12.52-3.21,14.59,2.86,1.47,2.86,5.32,4.53,6.87,2.32,2.15,6.13,0,9.06,1.5,2.75,1.44,4.55-5,9.81-6.26,2.56-.64.64-7.7,2.56-8.34,4.91-1.64,2.71-16.65-2.31-15-2.82.91-10.52.27-15.31,1.36C1151.24,583.52,1147.64,585.81,1148.4,588.3Z"/><path class="cls-7" d="M1172.19,603.54a9.55,9.55,0,0,1-2,8.68c-3.57,3.69,3.12,7.21,2.23,10.32-.67,2.35,3.24,2.89,5.33,4.74,7.28,6.46,16.38-2.31,20.56-13.12,2.53-6.53,5.79-13.27,1.68-16.86-2.15-1.88-5.93-6.45-9-7.7-2.52-1-5.27,5.11-10.91,6.41C1177,596.73,1170.9,599.55,1172.19,603.54Z"/><path class="cls-29" d="M1212.21,702.54H1097.37c.46-11.37,26-20.53,57.42-20.53S1211.74,691.17,1212.21,702.54Z"/><circle cx="141" cy="202" r="128.5"/><circle class="cls-30" cx="141" cy="202" r="117.06"/><circle cx="140.56" cy="201.56" r="8.36"/><rect class="cls-31" x="134.84" y="286.49" width="11.44" height="24.64" rx="5.72"/><rect class="cls-31" x="33.62" y="189.68" width="11.44" height="24.64" rx="5.72" transform="translate(241.62 164.09) rotate(90.41)"/><rect class="cls-31" x="233.41" y="188.8" width="11.44" height="24.64" rx="5.72" transform="translate(441.95 -36.58) rotate(90.41)"/><rect class="cls-31" x="187.65" y="270.65" width="11.44" height="24.64" rx="5.72" transform="translate(530.19 346.33) rotate(135)"/><rect class="cls-31" x="84.67" y="270.65" width="11.44" height="24.64" rx="5.72" transform="translate(178.61 -0.69) rotate(34.99)"/><rect class="cls-31" x="52.99" y="237.21" width="11.44" height="24.64" rx="5.72" transform="translate(212.14 44.17) rotate(50)"/><rect class="cls-31" x="190.29" y="112.23" width="11.44" height="24.64" rx="5.72" transform="translate(98.16 -86.07) rotate(32.65)"/><rect class="cls-31" x="221.09" y="148.31" width="11.44" height="24.64" rx="5.72" transform="translate(228.18 -117.3) rotate(54.97)"/><rect class="cls-31" x="220.21" y="232.8" width="11.44" height="24.64" rx="5.72" transform="translate(556.31 200.6) rotate(124.99)"/><rect class="cls-31" x="82.03" y="106.07" width="11.44" height="24.64" rx="5.72" transform="translate(231.07 152.68) rotate(140)"/><rect class="cls-31" x="48.59" y="139.51" width="11.44" height="24.64" rx="5.72" transform="translate(209.84 194.41) rotate(124.99)"/><rect class="cls-31" x="134.84" y="91.98" width="11.44" height="24.64" rx="5.72"/><path class="cls-8" d="M141,73.5v257a128.5,128.5,0,0,1,0-257Z"/></g><g id="knapperne"><rect class="cls-11" x="837.09" y="745.5" width="40.48" height="137" rx="8.89"/><rect class="cls-32" x="890.42" y="715.5" width="70.77" height="167" rx="13.04"/></g></svg>
