<svg xmlns="http://www.w3.org/2000/svg" width="90" height="170" viewBox="0 0 90 170"><defs><style>.cls-1{fill:#209959;}.cls-2{fill:#83be75;}.cls-3{fill:#fff;}.cls-4{fill:#ccc;}.cls-5{fill:#020202;}.cls-6{fill:#add4a3;}</style></defs><title>bog_faar_rigtig</title><g id="knapperne"><path class="cls-1" d="M26.45.11l37,.24c14.36.09,26.11,6,26.11,13.05l.07,143.79c0,7.08-11.74,12.8-26.1,12.7l-37-.24c-14.36-.09-26.11-6-26.11-13.05L.35,12.81C.35,5.73,12.09,0,26.45.11Z"/><rect class="cls-2" x="22.13" y="69.07" width="48.43" height="49.19" rx="14.89"/><rect class="cls-3" x="33.36" y="84.88" width="11.65" height="18.33" rx="4.8"/><rect class="cls-3" x="33.19" y="84.88" width="11.65" height="18.33" rx="4.8"/><ellipse cx="39.1" cy="97.41" rx="5.4" ry="5.63" transform="translate(-2.9 1.21) rotate(-1.72)"/><path class="cls-4" d="M36.1,98.78a1.91,1.91,0,0,1-1.9-1.91c0-2.56,2.39-4.65,5.33-4.65a1.91,1.91,0,0,1,0,3.82c-.91,0-1.52.5-1.52.83A1.91,1.91,0,0,1,36.1,98.78Z"/><rect class="cls-3" x="48.23" y="84.88" width="11.65" height="18.33" rx="4.8"/><rect class="cls-3" x="48.06" y="84.88" width="11.65" height="18.33" rx="4.8"/><ellipse cx="53.98" cy="97.41" rx="5.4" ry="5.63" transform="translate(-2.89 1.66) rotate(-1.72)"/><path class="cls-4" d="M51,98.78a1.91,1.91,0,0,1-1.91-1.91c0-2.56,2.39-4.65,5.33-4.65a1.91,1.91,0,1,1,0,3.82c-.91,0-1.52.5-1.52.83A1.91,1.91,0,0,1,51,98.78Z"/><circle class="cls-5" cx="46.54" cy="107.96" r="2.29"/><path class="cls-5" d="M50.16,115.39a4.47,4.47,0,0,1-4.58-4.33,1,1,0,0,1,1.91,0,2.68,2.68,0,0,0,5.34,0,1,1,0,0,1,1.91,0A4.47,4.47,0,0,1,50.16,115.39Z"/><path class="cls-5" d="M42.92,115.77a4.46,4.46,0,0,1-4.58-4.33,1,1,0,0,1,1.91,0,2.68,2.68,0,0,0,5.33,0,1,1,0,0,1,1.91,0A4.46,4.46,0,0,1,42.92,115.77Z"/><rect class="cls-5" x="45.01" y="107.2" width="3.05" height="6.86" rx="1.38"/><ellipse class="cls-2" cx="20.42" cy="88.7" rx="11.25" ry="4.82" transform="translate(-61.7 49.43) rotate(-51.48)"/><ellipse class="cls-2" cx="71.9" cy="86.04" rx="4.82" ry="11.25" transform="translate(-37.94 63.5) rotate(-38.52)"/><ellipse class="cls-6" cx="20.83" cy="66.77" rx="14.03" ry="7.72"/><ellipse class="cls-6" cx="38.83" cy="61.7" rx="11.02" ry="20.03" transform="translate(-32.65 76.05) rotate(-69.17)"/><ellipse class="cls-6" cx="23.78" cy="76.6" rx="13.95" ry="9.74" transform="translate(-25.81 13.56) rotate(-20.95)"/><ellipse class="cls-6" cx="50.29" cy="55.08" rx="14.03" ry="10.52"/><ellipse class="cls-6" cx="65.26" cy="63.03" rx="14.03" ry="10.52" transform="translate(-21.93 37.93) rotate(-27.94)"/><ellipse class="cls-6" cx="57.98" cy="76.41" rx="6.83" ry="6.77" transform="translate(-37.04 63.38) rotate(-45)"/><ellipse class="cls-6" cx="72.07" cy="73.27" rx="9.96" ry="9.93" transform="translate(-22.04 114.57) rotate(-69.17)"/><ellipse class="cls-6" cx="43.83" cy="73.69" rx="10.65" ry="11.63" transform="translate(-19.18 15.54) rotate(-16.55)"/></g></svg>
