<svg xmlns="http://www.w3.org/2000/svg" width="90" height="170" viewBox="0 0 90 170"><defs><style>.cls-1{fill:#b2630c;}.cls-2{fill:#ffebcc;}.cls-3{fill:#fff;}.cls-4{fill:#ccc;}.cls-5{fill:#020202;}.cls-6{fill:#f9f9f9;}.cls-7{fill:#eaeaea;}.cls-8{fill:#f4f3f2;}.cls-9{fill:#f4f4f4;}.cls-10{fill:#efefef;}</style></defs><title>bog får</title><g id="knapperne"><path class="cls-1" d="M26.75.11l37,.24c14.36.09,26.11,6,26.11,13.05l.06,143.79c0,7.08-11.74,12.8-26.1,12.7l-37-.24c-14.36-.09-26.11-6-26.11-13.05L.65,12.81C.65,5.73,12.39,0,26.75.11Z"/><rect class="cls-2" x="22.43" y="69.07" width="48.43" height="49.19" rx="14.89"/><rect class="cls-3" x="33.66" y="84.88" width="11.65" height="18.33" rx="4.8"/><rect class="cls-3" x="33.49" y="84.88" width="11.65" height="18.33" rx="4.8"/><ellipse cx="39.4" cy="97.41" rx="5.4" ry="5.63" transform="translate(-2.9 1.22) rotate(-1.72)"/><path class="cls-4" d="M36.4,98.78a1.92,1.92,0,0,1-1.91-1.91c0-2.56,2.4-4.65,5.34-4.65a1.91,1.91,0,0,1,0,3.82c-.92,0-1.52.5-1.52.83A1.92,1.92,0,0,1,36.4,98.78Z"/><rect class="cls-3" x="48.53" y="84.88" width="11.65" height="18.33" rx="4.8"/><rect class="cls-3" x="48.36" y="84.88" width="11.65" height="18.33" rx="4.8"/><ellipse cx="54.27" cy="97.41" rx="5.4" ry="5.63" transform="translate(-2.89 1.67) rotate(-1.72)"/><path class="cls-4" d="M51.27,98.78a1.91,1.91,0,0,1-1.9-1.91c0-2.56,2.39-4.65,5.33-4.65a1.91,1.91,0,0,1,0,3.82c-.92,0-1.52.5-1.52.83A1.91,1.91,0,0,1,51.27,98.78Z"/><circle class="cls-5" cx="46.83" cy="107.96" r="2.29"/><path class="cls-5" d="M50.46,115.39a4.46,4.46,0,0,1-4.58-4.33,1,1,0,0,1,1.91,0,2.68,2.68,0,0,0,5.34,0,.95.95,0,0,1,1.9,0A4.46,4.46,0,0,1,50.46,115.39Z"/><path class="cls-5" d="M43.21,115.77a4.46,4.46,0,0,1-4.57-4.33.95.95,0,1,1,1.9,0,2.68,2.68,0,0,0,5.34,0,1,1,0,0,1,1.91,0A4.47,4.47,0,0,1,43.21,115.77Z"/><rect class="cls-5" x="45.31" y="107.2" width="3.05" height="6.86" rx="1.38"/><ellipse class="cls-2" cx="20.71" cy="88.71" rx="11.25" ry="4.82" transform="translate(-61.59 49.67) rotate(-51.48)"/><ellipse class="cls-2" cx="72.19" cy="86.04" rx="4.82" ry="11.25" transform="translate(-37.87 63.68) rotate(-38.52)"/><ellipse class="cls-6" cx="21.13" cy="66.77" rx="14.03" ry="7.72"/><ellipse class="cls-7" cx="39.13" cy="61.71" rx="11.02" ry="20.03" transform="translate(-32.46 76.33) rotate(-69.17)"/><ellipse class="cls-8" cx="24.07" cy="76.6" rx="13.95" ry="9.74" transform="translate(-25.79 13.67) rotate(-20.95)"/><ellipse class="cls-6" cx="50.59" cy="55.08" rx="14.03" ry="10.52"/><ellipse class="cls-9" cx="65.56" cy="63.03" rx="14.03" ry="10.52" transform="translate(-21.89 38.07) rotate(-27.94)"/><ellipse class="cls-6" cx="58.28" cy="76.41" rx="6.83" ry="6.77" transform="translate(-36.96 63.59) rotate(-45)"/><ellipse class="cls-9" cx="72.36" cy="73.27" rx="9.96" ry="9.93" transform="translate(-21.85 114.85) rotate(-69.17)"/><ellipse class="cls-10" cx="44.13" cy="73.69" rx="10.65" ry="11.63" transform="translate(-19.16 15.62) rotate(-16.55)"/></g></svg>
