<svg xmlns="http://www.w3.org/2000/svg" width="80" height="200" viewBox="0 0 80 200"><defs><style>.cls-1{fill:#a54697;}.cls-2{fill:#cca35c;}.cls-3{fill:#efd06f;}.cls-4{fill:#fff;}.cls-5{fill:#ccc;}</style></defs><title>bog sol</title><g id="knapperne"><rect class="cls-1" x="-0.32" width="80" height="200" rx="15.17"/><path class="cls-2" d="M17.11,116.67l3.22-7.58a2.88,2.88,0,0,0-2.85-4l-8.22.57a2.89,2.89,0,0,1-1.82-5.27l6.81-4.63A2.89,2.89,0,0,0,14,90.83l-7.23-4a2.88,2.88,0,0,1,1.32-5.41l8.24-.22A2.89,2.89,0,0,0,18.81,77l-3.93-7.25a2.88,2.88,0,0,1,4-3.84L26,70.15a2.89,2.89,0,0,0,4.37-2.26l.61-8.21a2.89,2.89,0,0,1,5.47-1.06L40,66a2.89,2.89,0,0,0,4.9.47l5-6.58A2.88,2.88,0,0,1,55.06,62l-1,8.18a2.89,2.89,0,0,0,3.87,3l7.73-2.86a2.89,2.89,0,0,1,3.23,4.54L63.7,81.26a2.89,2.89,0,0,0,1.61,4.65l8,1.77a2.89,2.89,0,0,1,.26,5.57l-7.84,2.53a2.88,2.88,0,0,0-1.16,4.78l5.81,5.84a2.89,2.89,0,0,1-2.78,4.83l-8-2.12a2.89,2.89,0,0,0-3.56,3.4l1.73,8.06a2.88,2.88,0,0,1-5,2.55L47.34,117a2.89,2.89,0,0,0-4.84.93l-2.9,7.71a2.88,2.88,0,0,1-5.54-.53L32.67,117a2.88,2.88,0,0,0-4.57-1.83l-6.61,4.92A2.89,2.89,0,0,1,17.11,116.67Z"/><circle class="cls-3" cx="40.34" cy="92.45" r="19.29"/><rect class="cls-4" x="29.18" y="81.97" width="10.16" height="15.99" rx="4.18"/><rect class="cls-4" x="29.03" y="81.97" width="10.16" height="15.99" rx="4.18"/><ellipse cx="34.19" cy="92.89" rx="4.71" ry="4.91" transform="translate(-2.77 1.06) rotate(-1.72)"/><path class="cls-5" d="M31.57,94.09a1.66,1.66,0,0,1-1.66-1.66,4.39,4.39,0,0,1,4.65-4.06,1.67,1.67,0,0,1,0,3.33c-.8,0-1.33.44-1.33.73A1.66,1.66,0,0,1,31.57,94.09Z"/><rect class="cls-4" x="42.15" y="81.97" width="10.16" height="15.99" rx="4.18"/><rect class="cls-4" x="42" y="81.97" width="10.16" height="15.99" rx="4.18"/><ellipse cx="47.15" cy="92.89" rx="4.71" ry="4.91" transform="translate(-2.76 1.45) rotate(-1.72)"/><path class="cls-5" d="M44.54,94.09a1.66,1.66,0,0,1-1.66-1.66,4.39,4.39,0,0,1,4.65-4.06,1.67,1.67,0,0,1,0,3.33c-.8,0-1.33.44-1.33.73A1.66,1.66,0,0,1,44.54,94.09Z"/></g></svg>
