<svg xmlns="http://www.w3.org/2000/svg" width="330" height="70" viewBox="0 0 330 70"><defs><style>.cls-1{fill:#209959;}.cls-2{fill:#8cc63f;}.cls-3{fill:#fff;}.cls-4{fill:#ccc;}.cls-5{fill:#319319;}</style></defs><title>bog_gris_rigtig</title><g id="knapperne"><rect class="cls-1" x="130" y="-130.41" width="70" height="330.81" rx="21.17" transform="translate(200 -130) rotate(90)"/><ellipse class="cls-2" cx="167.49" cy="40.6" rx="42.73" ry="27.21"/><ellipse class="cls-2" cx="190.07" cy="26.02" rx="26.56" ry="8.08" transform="translate(78.91 182.37) rotate(-62.38)"/><ellipse class="cls-2" cx="150.45" cy="27.76" rx="8.08" ry="26.56" transform="translate(4.27 72.91) rotate(-27.62)"/><rect class="cls-3" x="152.82" y="18.82" width="13.3" height="20.93" rx="5.48"/><rect class="cls-3" x="152.62" y="18.82" width="13.3" height="20.93" rx="5.48"/><ellipse cx="159.37" cy="33.12" rx="6.16" ry="6.43" transform="translate(-0.92 4.79) rotate(-1.72)"/><path class="cls-4" d="M156,34.69a2.19,2.19,0,0,1-2.18-2.18c0-2.93,2.73-5.31,6.09-5.31a2.18,2.18,0,0,1,0,4.36c-1,0-1.73.57-1.73.95A2.19,2.19,0,0,1,156,34.69Z"/><rect class="cls-3" x="169.8" y="18.82" width="13.3" height="20.93" rx="5.48"/><rect class="cls-3" x="169.61" y="18.82" width="13.3" height="20.93" rx="5.48"/><ellipse cx="176.36" cy="33.12" rx="6.16" ry="6.43" transform="translate(-0.91 5.29) rotate(-1.72)"/><path class="cls-4" d="M172.93,34.69a2.19,2.19,0,0,1-2.18-2.18c0-2.93,2.74-5.31,6.09-5.31a2.18,2.18,0,1,1,0,4.36c-1,0-1.73.57-1.73.95A2.19,2.19,0,0,1,172.93,34.69Z"/><ellipse class="cls-5" cx="167.65" cy="51.49" rx="15.46" ry="11.1"/><circle class="cls-3" cx="163.37" cy="47.6" r="2.71"/><circle class="cls-3" cx="172.39" cy="47.6" r="2.71"/></g></svg>
