<svg xmlns="http://www.w3.org/2000/svg" width="120" height="160" viewBox="0 0 120 160"><defs><style>.cls-1{fill:#a83344;}.cls-2{fill:#790c2a;}.cls-3{fill:#51081c;}.cls-4{fill:#fff;}.cls-5{fill:#ccc;}</style></defs><title>bog_elefant_forkert</title><g id="knapperne"><rect class="cls-1" x="25.82" y="3.04" width="68.37" height="153.91" rx="14.57" transform="translate(37.88 -17.52) rotate(24.09)"/><circle class="cls-2" cx="74.1" cy="84.75" r="18.09"/><circle class="cls-2" cx="48.91" cy="72.39" r="18.09"/><circle class="cls-3" cx="62.43" cy="76.39" r="18.09"/><path class="cls-3" d="M60.63,89.45l-1,1.39-4.25,6-2.1,3h0l-4.1,5.76-2.13,3-.08.11a2.67,2.67,0,0,1-3.7.63l-1.68-1.2-1.26-.9a2.65,2.65,0,0,1-.62-3.7L42.86,99l2.07-2.91,4.26-6,2.09-2.94,2.08-2.93a2.66,2.66,0,0,1,3.7-.62L60,85.75a2.68,2.68,0,0,1,.63,3.7Z"/><path class="cls-3" d="M60.63,89.45l-1,1.39c-1.9-1.52-3-3-2.59-3.58s2-.3,4.06.63A2.63,2.63,0,0,1,60.63,89.45Z"/><path class="cls-3" d="M55.08,91.7c-.48.77-3,.07-5.89-1.55l2.09-2.94C53.9,89.05,55.55,91,55.08,91.7Z"/><path class="cls-3" d="M55.39,96.8l-2.1,3c-2.69-1.87-4.4-3.81-3.92-4.57S52.45,95.13,55.39,96.8Z"/><path class="cls-3" d="M48.46,100.43c-.46.73-2.84.11-5.6-1.39l2.07-2.91C47.39,97.91,48.91,99.7,48.46,100.43Z"/><path class="cls-3" d="M49.19,105.52l-2.13,3c-3.12-2-5.19-4.25-4.67-5.08S45.94,103.52,49.19,105.52Z"/><rect class="cls-4" x="55.11" y="66.57" width="8.01" height="12.61" rx="3.3" transform="translate(38.18 -18.6) rotate(26.16)"/><rect class="cls-4" x="55" y="66.51" width="8.01" height="12.61" rx="3.3" transform="translate(38.14 -18.56) rotate(26.16)"/><ellipse cx="58.04" cy="74.92" rx="3.87" ry="3.71" transform="translate(-34.18 96.76) rotate(-65.56)"/><path class="cls-5" d="M55.78,74.85a1.3,1.3,0,0,1-.6-1.75,3.46,3.46,0,0,1,4.7-1.25,1.31,1.31,0,1,1-1.16,2.35c-.56-.28-1.09-.15-1.19.06A1.3,1.3,0,0,1,55.78,74.85Z"/><rect class="cls-4" x="64.29" y="71.07" width="8.01" height="12.61" rx="3.3" transform="translate(41.1 -22.18) rotate(26.16)"/><path class="cls-4" d="M66,83.29l-1.27-.62a3.32,3.32,0,0,1-1.5-4.42l2.65-5.39a3.3,3.3,0,0,1,4.41-1.5L71.6,72c1.63.8-1.69,2.86-2.49,4.48l1.35,5.33A3.32,3.32,0,0,1,66,83.29Z"/><ellipse cx="67.22" cy="79.43" rx="3.87" ry="3.71" transform="translate(-32.9 107.76) rotate(-65.56)"/><path class="cls-5" d="M65,79.36a1.3,1.3,0,0,1-.59-1.75,3.45,3.45,0,0,1,4.7-1.25,1.31,1.31,0,0,1-1.16,2.35c-.56-.28-1.09-.15-1.19.05A1.32,1.32,0,0,1,65,79.36Z"/></g></svg>
