<svg xmlns="http://www.w3.org/2000/svg" width="330" height="70" viewBox="0 0 330 70"><defs><style>.cls-1{fill:#513a70;}.cls-2{fill:#e1a0ea;}.cls-3{fill:#fff;}.cls-4{fill:#ccc;}.cls-5{fill:#cd8ddb;}</style></defs><title>bog gris</title><g id="knapperne"><rect class="cls-1" x="130" y="-129.91" width="70" height="330.81" rx="21.17" transform="translate(200.5 -129.5) rotate(90)"/><ellipse class="cls-2" cx="167.49" cy="41.1" rx="42.73" ry="27.21"/><ellipse class="cls-2" cx="190.07" cy="26.52" rx="26.56" ry="8.08" transform="translate(78.46 182.64) rotate(-62.38)"/><ellipse class="cls-2" cx="150.45" cy="28.26" rx="8.08" ry="26.56" transform="translate(4.04 72.96) rotate(-27.62)"/><rect class="cls-3" x="152.82" y="19.32" width="13.3" height="20.93" rx="5.48"/><rect class="cls-3" x="152.62" y="19.32" width="13.3" height="20.93" rx="5.48"/><ellipse cx="159.37" cy="33.62" rx="6.16" ry="6.43" transform="translate(-0.94 4.79) rotate(-1.72)"/><path class="cls-4" d="M156,35.19A2.19,2.19,0,0,1,153.77,33c0-2.93,2.73-5.31,6.09-5.31a2.18,2.18,0,0,1,0,4.36c-1,0-1.73.57-1.73.95A2.19,2.19,0,0,1,156,35.19Z"/><rect class="cls-3" x="169.8" y="19.32" width="13.3" height="20.93" rx="5.48"/><rect class="cls-3" x="169.61" y="19.32" width="13.3" height="20.93" rx="5.48"/><ellipse cx="176.36" cy="33.62" rx="6.16" ry="6.43" transform="translate(-0.93 5.29) rotate(-1.72)"/><path class="cls-4" d="M172.93,35.19A2.19,2.19,0,0,1,170.75,33c0-2.93,2.74-5.31,6.09-5.31a2.18,2.18,0,1,1,0,4.36c-1,0-1.73.57-1.73.95A2.19,2.19,0,0,1,172.93,35.19Z"/><ellipse class="cls-5" cx="167.65" cy="51.99" rx="15.46" ry="11.1"/><circle class="cls-3" cx="163.37" cy="48.1" r="2.71"/><circle class="cls-3" cx="172.39" cy="48.1" r="2.71"/></g></svg>
