<svg xmlns="http://www.w3.org/2000/svg" width="90" height="170" viewBox="0 0 90 170"><defs><style>.cls-1{fill:#a83344;}.cls-2{fill:#770021;}.cls-3{fill:#3c0010;}.cls-4{fill:#020202;}.cls-5{fill:#fff;}.cls-6{fill:#ccc;}</style></defs><title>bog_hund_forkert</title><g id="knapperne"><path class="cls-1" d="M31.87,0,57.63,0C75.69.08,90.48,6.85,90.51,15.1l.41,140c0,8.25-14.73,15-32.79,14.92l-25.76,0c-18.06,0-32.85-6.81-32.88-15.06l-.41-140C-.95,6.66,13.81,0,31.87,0Z"/><ellipse class="cls-2" cx="23.52" cy="84.47" rx="19.16" ry="13.32" transform="translate(-58.9 54.55) rotate(-54.49)"/><ellipse class="cls-2" cx="30.11" cy="65.16" rx="15.87" ry="12.87"/><ellipse class="cls-2" cx="71.46" cy="84.47" rx="13.32" ry="19.16" transform="translate(-35.77 57.22) rotate(-35.51)"/><ellipse class="cls-2" cx="64.87" cy="65.16" rx="15.87" ry="12.87"/><rect class="cls-3" x="31.31" y="53.78" width="34.73" height="34.73" rx="14.37"/><ellipse class="cls-2" cx="48.53" cy="89.26" rx="26.2" ry="15.42"/><ellipse class="cls-4" cx="48.28" cy="86.98" rx="4.89" ry="3.85"/><path class="cls-4" d="M51.52,95.21a3.79,3.79,0,0,1-3.89-3.68.75.75,0,1,1,1.49,0,2.41,2.41,0,0,0,4.8,0,.75.75,0,1,1,1.49,0A3.79,3.79,0,0,1,51.52,95.21Z"/><path class="cls-4" d="M45.23,95.54a3.8,3.8,0,0,1-3.89-3.68.75.75,0,1,1,1.5,0,2.41,2.41,0,0,0,4.79,0,.75.75,0,1,1,1.49,0A3.79,3.79,0,0,1,45.23,95.54Z"/><rect class="cls-4" x="47.05" y="88.18" width="2.65" height="5.96" rx="1.2"/><rect class="cls-5" x="38.93" y="58.71" width="9.15" height="14.39" rx="3.77"/><rect class="cls-5" x="38.79" y="58.71" width="9.15" height="14.39" rx="3.77"/><ellipse cx="43.44" cy="68.55" rx="4.24" ry="4.42" transform="translate(-2.03 1.33) rotate(-1.72)"/><path class="cls-6" d="M41.08,69.62a1.5,1.5,0,0,1-1.5-1.5,4,4,0,0,1,4.19-3.64,1.5,1.5,0,1,1,0,3c-.72,0-1.19.39-1.19.65A1.5,1.5,0,0,1,41.08,69.62Z"/><rect class="cls-5" x="50.61" y="58.71" width="9.15" height="14.39" rx="3.77"/><rect class="cls-5" x="50.47" y="58.71" width="9.15" height="14.39" rx="3.77"/><ellipse cx="55.11" cy="68.55" rx="4.24" ry="4.42" transform="translate(-2.03 1.68) rotate(-1.72)"/><path class="cls-6" d="M52.76,69.62a1.5,1.5,0,0,1-1.5-1.5,4,4,0,0,1,4.19-3.64,1.5,1.5,0,1,1,0,3c-.72,0-1.19.39-1.19.65A1.5,1.5,0,0,1,52.76,69.62Z"/></g></svg>
