<svg xmlns="http://www.w3.org/2000/svg" width="80" height="200" viewBox="0 0 80 200"><defs><style>.cls-1{fill:#a83344;}.cls-2{fill:#3c0010;}.cls-3{fill:#770021;}.cls-4{fill:#fff;}.cls-5{fill:#ccc;}</style></defs><title>bog_sol_forkert</title><g id="knapperne"><rect class="cls-1" width="80" height="200" rx="15.17"/><path class="cls-2" d="M17.43,116.67l3.23-7.58a2.89,2.89,0,0,0-2.86-4l-8.22.57a2.89,2.89,0,0,1-1.82-5.27l6.81-4.63a2.89,2.89,0,0,0-.23-4.92l-7.22-4a2.88,2.88,0,0,1,1.31-5.41l8.24-.22A2.89,2.89,0,0,0,19.13,77L15.2,69.72a2.88,2.88,0,0,1,4-3.84l7.05,4.27a2.89,2.89,0,0,0,4.37-2.26l.61-8.21a2.89,2.89,0,0,1,5.48-1.06L40.36,66a2.89,2.89,0,0,0,4.9.47l5-6.58A2.88,2.88,0,0,1,55.38,62l-1,8.18a2.89,2.89,0,0,0,3.87,3L66,70.35a2.89,2.89,0,0,1,3.24,4.54L64,81.26a2.88,2.88,0,0,0,1.61,4.65l8,1.77A2.89,2.89,0,0,1,74,93.25l-7.84,2.53A2.88,2.88,0,0,0,65,100.56l5.81,5.84A2.89,2.89,0,0,1,68,111.23l-8-2.12a2.89,2.89,0,0,0-3.56,3.4l1.73,8.06a2.88,2.88,0,0,1-5,2.55L47.66,117a2.88,2.88,0,0,0-4.83.93l-2.9,7.71a2.89,2.89,0,0,1-5.55-.53L33,117a2.88,2.88,0,0,0-4.57-1.83l-6.61,4.92A2.89,2.89,0,0,1,17.43,116.67Z"/><circle class="cls-3" cx="40.66" cy="92.45" r="19.29"/><rect class="cls-4" x="29.5" y="81.97" width="10.16" height="15.99" rx="4.18"/><rect class="cls-4" x="29.35" y="81.97" width="10.16" height="15.99" rx="4.18"/><ellipse cx="34.51" cy="92.89" rx="4.71" ry="4.91" transform="translate(-2.77 1.07) rotate(-1.72)"/><path class="cls-5" d="M31.89,94.09a1.66,1.66,0,0,1-1.66-1.66c0-2.24,2.09-4.06,4.65-4.06a1.67,1.67,0,0,1,0,3.33c-.8,0-1.32.44-1.32.73A1.67,1.67,0,0,1,31.89,94.09Z"/><rect class="cls-4" x="42.47" y="81.97" width="10.16" height="15.99" rx="4.18"/><rect class="cls-4" x="42.32" y="81.97" width="10.16" height="15.99" rx="4.18"/><ellipse cx="47.48" cy="92.89" rx="4.71" ry="4.91" transform="translate(-2.76 1.46) rotate(-1.72)"/><path class="cls-5" d="M44.86,94.09a1.66,1.66,0,0,1-1.66-1.66,4.39,4.39,0,0,1,4.65-4.06,1.67,1.67,0,0,1,0,3.33c-.8,0-1.33.44-1.33.73A1.66,1.66,0,0,1,44.86,94.09Z"/></g></svg>
