<svg xmlns="http://www.w3.org/2000/svg" width="240" height="80" viewBox="0 0 240 80"><defs><style>.cls-1{fill:#a83344;}.cls-2,.cls-5{fill:#770021;}.cls-3,.cls-4{fill:#790c2a;}.cls-3,.cls-5{opacity:0.1;}.cls-6{fill:#ee0042;}.cls-7{fill:#b30032;}.cls-8{fill:#fff;}.cls-9{fill:#ccc;}</style></defs><title>bog_sommerfugl_forkert</title><g id="knapperne"><rect class="cls-1" x="82.5" y="-77.41" width="75" height="238.81" rx="18.62" transform="translate(162 -78) rotate(90)"/><path class="cls-2" d="M139.46,46.17c-11,4.74-22,3.9-24.47-1.88a.42.42,0,0,1,0-.1c-2.36-5.78,4.56-14.23,15.53-18.94,9.94-4.27,19.82-4,23.49.31a6,6,0,0,1,1,1.57C157.43,32.91,150.5,41.43,139.46,46.17Z"/><path class="cls-3" d="M154,25.61,114.92,44.14c-2.34-5.77,4.6-14.21,15.58-18.9C140.45,21,150.33,21.28,154,25.61Z"/><path class="cls-4" d="M137.53,60.56c-12-.41-21.57-5.83-21.35-12.11v-.12c.32-6.23,10.18-10.94,22.11-10.53,10.81.37,19.65,4.81,21.13,10.27a6,6,0,0,1,.22,1.84C159.43,56.2,149.53,61,137.53,60.56Z"/><path class="cls-3" d="M159.42,48.07l-43.24.26c.32-6.23,10.18-10.94,22.11-10.53C149.1,38.17,157.94,42.61,159.42,48.07Z"/><path class="cls-4" d="M131.18,72.32c-11.33-4-18.81-12-16.71-18a.42.42,0,0,1,0-.1c2.18-5.84,13-7.37,24.25-3.39C149,54.46,156.05,61.35,155.82,67a5.88,5.88,0,0,1-.35,1.82C153.38,74.76,142.5,76.32,131.18,72.32Z"/><path class="cls-3" d="M155.82,67,114.51,54.24c2.18-5.84,13-7.37,24.25-3.39C149,54.46,156.05,61.35,155.82,67Z"/><path class="cls-2" d="M97.4,46.17c11,4.74,22,3.9,24.47-1.88a.42.42,0,0,0,0-.1c2.36-5.78-4.56-14.23-15.53-18.94-9.94-4.27-19.82-4-23.49.31a6,6,0,0,0-1,1.57C79.42,32.91,86.36,41.43,97.4,46.17Z"/><path class="cls-5" d="M82.89,25.56l39,18.63c2.36-5.78-4.56-14.23-15.53-18.94C96.44,21,86.56,21.25,82.89,25.56Z"/><path class="cls-2" d="M99.33,60.56c12-.41,21.57-5.83,21.35-12.11v-.12c-.33-6.23-10.18-10.94-22.11-10.53-10.82.37-19.65,4.81-21.14,10.27a6,6,0,0,0-.21,1.84C77.43,56.2,87.33,61,99.33,60.56Z"/><path class="cls-5" d="M77.43,48.07l43.25.26c-.33-6.23-10.18-10.94-22.11-10.53C87.75,38.17,78.92,42.61,77.43,48.07Z"/><path class="cls-2" d="M105.68,72.32c11.32-4,18.81-12,16.71-18a.42.42,0,0,0,0-.1c-2.18-5.84-13-7.37-24.25-3.39C87.9,54.46,80.81,61.35,81,67a6.17,6.17,0,0,0,.34,1.82C83.48,74.76,94.36,76.32,105.68,72.32Z"/><path class="cls-5" d="M81,67l41.31-12.77c-2.18-5.84-13-7.37-24.25-3.39C87.9,54.46,80.81,61.35,81,67Z"/><rect class="cls-6" x="114.06" y="12.19" width="3.91" height="25.41" rx="1.95" transform="translate(-1.23 43.12) rotate(-20.95)"/><rect class="cls-6" x="118.8" y="12.47" width="3.91" height="25.41" rx="1.95" transform="translate(8.55 -26.08) rotate(12.77)"/><ellipse class="cls-6" cx="118.94" cy="49.19" rx="5.17" ry="20.8"/><circle class="cls-7" cx="110.71" cy="12.47" r="3.91"/><circle class="cls-7" cx="124.11" cy="12.47" r="3.91"/><rect class="cls-8" x="109.44" y="21.81" width="8.53" height="13.42" rx="3.51"/><rect class="cls-8" x="109.31" y="21.81" width="8.53" height="13.42" rx="3.51"/><ellipse cx="113.64" cy="30.99" rx="3.95" ry="4.12" transform="translate(-0.88 3.42) rotate(-1.72)"/><path class="cls-9" d="M111.44,32a1.39,1.39,0,0,1-1.39-1.39,3.68,3.68,0,0,1,3.9-3.41A1.4,1.4,0,1,1,114,30c-.67,0-1.11.37-1.11.62A1.4,1.4,0,0,1,111.44,32Z"/><rect class="cls-8" x="120.33" y="21.81" width="8.53" height="13.42" rx="3.51"/><rect class="cls-8" x="120.2" y="21.81" width="8.53" height="13.42" rx="3.51"/><ellipse cx="124.53" cy="30.99" rx="3.95" ry="4.12" transform="translate(-0.87 3.74) rotate(-1.72)"/><path class="cls-9" d="M122.33,32a1.39,1.39,0,0,1-1.39-1.39,3.68,3.68,0,0,1,3.9-3.41,1.4,1.4,0,1,1,0,2.79c-.67,0-1.11.37-1.11.62A1.39,1.39,0,0,1,122.33,32Z"/></g></svg>
