<svg xmlns="http://www.w3.org/2000/svg" width="70" height="130" viewBox="0 0 70 130"><defs><style>.cls-1{fill:#209959;}.cls-2{fill:#194a0d;}.cls-3{opacity:0.1;}.cls-4{fill:#add4a3;}.cls-5{fill:#fff;}.cls-6{fill:#ccc;}.cls-7{fill:#020202;}</style></defs><title>bog_kat_rigtig</title><g id="knapperne"><rect class="cls-1" x="-0.41" y="0.16" width="70.83" height="129.68" rx="12.02"/><path class="cls-2" d="M30.24,45,17.16,51.09a1.66,1.66,0,0,1-2.36-1.66l1.3-14.36a1.65,1.65,0,0,1,1.06-1.4,1.67,1.67,0,0,1,1.56.19L30.5,42.17A1.66,1.66,0,0,1,30.24,45Z"/><g class="cls-3"><path d="M17.16,33.67,23.79,48l-6.63,3.07a1.66,1.66,0,0,1-2.36-1.66l1.3-14.36A1.65,1.65,0,0,1,17.16,33.67Z"/></g><path class="cls-2" d="M41.66,47.63l13.09,6A1.66,1.66,0,0,0,57.11,52l-1.3-14.36a1.67,1.67,0,0,0-2.62-1.21L41.4,44.76A1.67,1.67,0,0,0,41.66,47.63Z"/><g class="cls-3"><path d="M54.75,36.26,48.11,50.62l6.64,3.06A1.66,1.66,0,0,0,57.11,52l-1.3-14.36A1.68,1.68,0,0,0,54.75,36.26Z"/></g><ellipse class="cls-4" cx="35.1" cy="69.56" rx="27.57" ry="26.28"/><rect class="cls-5" x="22.13" y="55.67" width="11.31" height="17.79" rx="4.66"/><rect class="cls-5" x="21.97" y="55.67" width="11.31" height="17.79" rx="4.66"/><ellipse cx="27.7" cy="67.83" rx="5.24" ry="5.47" transform="translate(-2.02 0.86) rotate(-1.72)"/><path class="cls-6" d="M24.79,69.16a1.85,1.85,0,0,1-1.85-1.85c0-2.49,2.32-4.51,5.18-4.51a1.85,1.85,0,0,1,0,3.7c-.89,0-1.48.49-1.48.81A1.85,1.85,0,0,1,24.79,69.16Z"/><rect class="cls-5" x="36.57" y="55.67" width="11.31" height="17.79" rx="4.66"/><rect class="cls-5" x="36.4" y="55.67" width="11.31" height="17.79" rx="4.66"/><ellipse cx="42.14" cy="67.83" rx="5.24" ry="5.47" transform="translate(-2.01 1.29) rotate(-1.72)"/><path class="cls-6" d="M39.23,69.16a1.85,1.85,0,0,1-1.85-1.85c0-2.49,2.32-4.51,5.17-4.51a1.85,1.85,0,0,1,0,3.7c-.88,0-1.47.49-1.47.81A1.85,1.85,0,0,1,39.23,69.16Z"/><circle class="cls-7" cx="34.92" cy="80.67" r="2.22"/><path class="cls-7" d="M38.44,87.87A4.34,4.34,0,0,1,34,83.67a.93.93,0,0,1,1.85,0,2.61,2.61,0,0,0,5.19,0,.93.93,0,0,1,1.85,0A4.33,4.33,0,0,1,38.44,87.87Z"/><path class="cls-7" d="M31.4,88.24A4.33,4.33,0,0,1,27,84a.93.93,0,0,1,1.85,0A2.6,2.6,0,0,0,34,84a.93.93,0,0,1,1.85,0A4.33,4.33,0,0,1,31.4,88.24Z"/><rect class="cls-7" x="33.44" y="79.93" width="2.96" height="6.66" rx="1.34"/><ellipse class="cls-7" cx="36.01" cy="79.93" rx="4.41" ry="2.32" transform="translate(-51.21 71.15) rotate(-60)"/><ellipse class="cls-7" cx="33.46" cy="79.93" rx="2.32" ry="4.41" transform="translate(-35.48 27.44) rotate(-30)"/><rect class="cls-7" x="1.44" y="79.54" width="26.29" height="0.96" rx="0.48" transform="translate(4.94 -0.74) rotate(3.52)"/><rect class="cls-7" x="1.51" y="75.51" width="26.29" height="0.96" rx="0.48" transform="matrix(0.98, 0.22, -0.22, 0.98, 17.07, -1.36)"/><rect class="cls-7" x="3.04" y="70.99" width="26.29" height="0.96" rx="0.48" transform="translate(34.96 0.64) rotate(27.6)"/><rect class="cls-7" x="42.7" y="79.54" width="26.29" height="0.96" rx="0.48" transform="translate(116.51 156.45) rotate(176.48)"/><rect class="cls-7" x="42.63" y="75.51" width="26.29" height="0.96" rx="0.48" transform="translate(126.89 137.85) rotate(167.3)"/><rect class="cls-7" x="41.1" y="70.99" width="26.29" height="0.96" rx="0.48" transform="translate(135.44 109.67) rotate(152.4)"/></g></svg>
