<svg xmlns="http://www.w3.org/2000/svg" width="120" height="160" viewBox="0 0 120 160"><defs><style>.cls-1{fill:#e6c85e;}.cls-2{fill:#2c6b7c;}.cls-3{fill:#3b7c93;}.cls-4{fill:#3b8996;}.cls-5{fill:#297784;}.cls-6{fill:#3e767f;}.cls-7{fill:#428793;}.cls-8{fill:#337989;}.cls-9{fill:#fff;}.cls-10{fill:#ccc;}</style></defs><title>bog elefant</title><g id="knapperne"><rect class="cls-1" x="25.81" y="3" width="68.37" height="153.91" rx="14.57" transform="translate(37.86 -17.52) rotate(24.09)"/><circle class="cls-2" cx="74.09" cy="84.71" r="18.09"/><circle class="cls-2" cx="48.91" cy="72.34" r="18.09"/><circle class="cls-3" cx="62.42" cy="76.35" r="18.09"/><path class="cls-2" d="M60.62,89.4l-1,1.39-4.24,6-2.1,2.95h0l-4.1,5.76-2.13,3-.08.11a2.67,2.67,0,0,1-3.7.63L41.59,108l-1.26-.89a2.67,2.67,0,0,1-.62-3.71L42.85,99l2.07-2.91,4.26-6,2.09-2.94,2.09-2.93a2.65,2.65,0,0,1,3.7-.62L60,85.7a2.65,2.65,0,0,1,.63,3.7Z"/><path class="cls-4" d="M60.62,89.4l-1,1.39c-1.9-1.52-3-3-2.59-3.57s2-.31,4.07.62A2.64,2.64,0,0,1,60.62,89.4Z"/><path class="cls-5" d="M55.07,91.65c-.47.77-3,.07-5.89-1.55l2.09-2.94C53.89,89,55.54,90.9,55.07,91.65Z"/><path class="cls-6" d="M55.39,96.76l-2.1,2.95c-2.7-1.87-4.4-3.82-3.93-4.58S52.44,95.08,55.39,96.76Z"/><path class="cls-7" d="M48.45,100.38c-.46.74-2.83.11-5.6-1.39l2.07-2.91C47.38,97.86,48.9,99.66,48.45,100.38Z"/><path class="cls-8" d="M49.18,105.47l-2.13,3c-3.12-2-5.19-4.24-4.67-5.07S45.93,103.48,49.18,105.47Z"/><rect class="cls-9" x="55.1" y="66.52" width="8.01" height="12.61" rx="3.3" transform="translate(38.15 -18.6) rotate(26.16)"/><rect class="cls-9" x="55" y="66.47" width="8.01" height="12.61" rx="3.3" transform="translate(38.12 -18.56) rotate(26.16)"/><ellipse cx="58.04" cy="74.87" rx="3.87" ry="3.71" transform="translate(-34.14 96.73) rotate(-65.56)"/><path class="cls-10" d="M55.77,74.81a1.32,1.32,0,0,1-.6-1.76,3.46,3.46,0,0,1,4.7-1.25,1.31,1.31,0,1,1-1.16,2.35c-.56-.27-1.09-.15-1.19.06A1.31,1.31,0,0,1,55.77,74.81Z"/><rect class="cls-9" x="64.28" y="71.03" width="8.01" height="12.61" rx="3.3" transform="translate(41.08 -22.18) rotate(26.16)"/><path class="cls-9" d="M66,83.25l-1.27-.63a3.3,3.3,0,0,1-1.51-4.41l2.65-5.39a3.3,3.3,0,0,1,4.41-1.51l1.27.62c1.63.8-1.68,2.86-2.48,4.49l1.34,5.32A3.3,3.3,0,0,1,66,83.25Z"/><ellipse cx="67.21" cy="79.38" rx="3.87" ry="3.71" transform="translate(-32.86 107.73) rotate(-65.56)"/><path class="cls-10" d="M65,79.32a1.32,1.32,0,0,1-.6-1.76,3.46,3.46,0,0,1,4.7-1.25,1.31,1.31,0,1,1-1.16,2.35c-.56-.27-1.09-.15-1.19.06A1.31,1.31,0,0,1,65,79.32Z"/></g></svg>
