<svg xmlns="http://www.w3.org/2000/svg" width="70" height="130" viewBox="0 0 70 130"><defs><style>.cls-1{fill:#c686d1;}.cls-2{fill:#c1bfbc;}.cls-3{opacity:0.1;}.cls-4{fill:#fff;}.cls-5{fill:#ccc;}.cls-6{fill:#020202;}</style></defs><title>bog kat</title><g id="knapperne"><rect class="cls-1" x="-0.33" y="0.66" width="70.83" height="129.68" rx="12.02"/><path class="cls-2" d="M30.33,45.54,17.24,51.59a1.67,1.67,0,0,1-2.36-1.66l1.31-14.36a1.66,1.66,0,0,1,2.61-1.21l11.79,8.31A1.66,1.66,0,0,1,30.33,45.54Z"/><g class="cls-3"><path d="M17.24,34.17l6.64,14.35-6.64,3.07a1.67,1.67,0,0,1-2.36-1.66l1.31-14.36A1.65,1.65,0,0,1,17.24,34.17Z"/></g><path class="cls-2" d="M41.75,48.13l13.09,6a1.67,1.67,0,0,0,2.36-1.66L55.89,38.16A1.66,1.66,0,0,0,53.28,37L41.49,45.26A1.66,1.66,0,0,0,41.75,48.13Z"/><g class="cls-3"><path d="M54.83,36.76,48.2,51.12l6.64,3.06a1.67,1.67,0,0,0,2.36-1.66L55.89,38.16A1.66,1.66,0,0,0,54.83,36.76Z"/></g><ellipse class="cls-2" cx="35.19" cy="70.06" rx="27.57" ry="26.28"/><rect class="cls-4" x="22.22" y="56.17" width="11.31" height="17.79" rx="4.66"/><rect class="cls-4" x="22.05" y="56.17" width="11.31" height="17.79" rx="4.66"/><ellipse cx="27.79" cy="68.33" rx="5.24" ry="5.47" transform="translate(-2.03 0.86) rotate(-1.72)"/><path class="cls-5" d="M24.88,69.66A1.85,1.85,0,0,1,23,67.81c0-2.49,2.32-4.51,5.17-4.51a1.85,1.85,0,0,1,0,3.7c-.88,0-1.47.49-1.47.81A1.85,1.85,0,0,1,24.88,69.66Z"/><rect class="cls-4" x="36.65" y="56.17" width="11.31" height="17.79" rx="4.66"/><rect class="cls-4" x="36.49" y="56.17" width="11.31" height="17.79" rx="4.66"/><ellipse cx="42.22" cy="68.33" rx="5.24" ry="5.47" transform="translate(-2.03 1.29) rotate(-1.72)"/><path class="cls-5" d="M39.31,69.66a1.85,1.85,0,0,1-1.85-1.85c0-2.49,2.32-4.51,5.18-4.51a1.85,1.85,0,0,1,0,3.7c-.89,0-1.48.49-1.48.81A1.85,1.85,0,0,1,39.31,69.66Z"/><circle class="cls-6" cx="35.01" cy="81.17" r="2.22"/><path class="cls-6" d="M38.52,88.37a4.33,4.33,0,0,1-4.44-4.2.93.93,0,0,1,1.85,0,2.6,2.6,0,0,0,5.18,0,.93.93,0,0,1,1.85,0A4.33,4.33,0,0,1,38.52,88.37Z"/><path class="cls-6" d="M31.49,88.74a4.33,4.33,0,0,1-4.44-4.2.93.93,0,0,1,1.85,0,2.6,2.6,0,0,0,5.18,0,.93.93,0,0,1,1.85,0A4.33,4.33,0,0,1,31.49,88.74Z"/><rect class="cls-6" x="33.53" y="80.43" width="2.96" height="6.66" rx="1.34"/><ellipse class="cls-6" cx="36.1" cy="80.43" rx="4.41" ry="2.32" transform="translate(-51.6 71.47) rotate(-60)"/><ellipse class="cls-6" cx="33.55" cy="80.43" rx="2.32" ry="4.41" transform="translate(-35.72 27.55) rotate(-30)"/><rect class="cls-6" x="1.52" y="80.04" width="26.29" height="0.96" rx="0.48" transform="translate(4.97 -0.75) rotate(3.52)"/><rect class="cls-6" x="1.6" y="76.01" width="26.29" height="0.96" rx="0.48" transform="translate(17.18 -1.37) rotate(12.7)"/><rect class="cls-6" x="3.12" y="71.49" width="26.29" height="0.96" rx="0.48" transform="translate(35.2 0.65) rotate(27.6)"/><rect class="cls-6" x="42.79" y="80.04" width="26.29" height="0.96" rx="0.48" transform="translate(116.71 157.45) rotate(176.48)"/><rect class="cls-6" x="42.71" y="76.01" width="26.29" height="0.96" rx="0.48" transform="translate(127.17 138.81) rotate(167.3)"/><rect class="cls-6" x="41.19" y="71.49" width="26.29" height="0.96" rx="0.48" transform="translate(135.83 110.57) rotate(152.4)"/></g></svg>
