<svg xmlns="http://www.w3.org/2000/svg" width="80" height="170" viewBox="0 0 80 170"><defs><style>.cls-1{fill:#209959;}.cls-2{fill:#5aa947;}.cls-3{fill:#add4a3;}.cls-4{fill:#83be75;}.cls-5{fill:#fff;}.cls-6{fill:#ccc;}</style></defs><title>bog_ko_rigtig</title><g id="knapperne"><rect class="cls-1" y="-0.16" width="80" height="170.32" rx="14"/><path class="cls-2" d="M40.09,59.53A13.64,13.64,0,0,1,26.46,45.91a2.92,2.92,0,0,1,5.84,0,7.79,7.79,0,0,0,15.57,0,2.92,2.92,0,0,1,5.84,0A13.64,13.64,0,0,1,40.09,59.53Z"/><ellipse class="cls-3" cx="57.81" cy="55.79" rx="13.14" ry="7.12" transform="translate(-19.41 77.96) rotate(-60)"/><ellipse class="cls-3" cx="21.76" cy="55.02" rx="7.09" ry="13.14" transform="translate(-24.59 18.25) rotate(-30)"/><rect class="cls-4" x="16.24" y="51.5" width="47.21" height="66.19" rx="16.06"/><rect class="cls-3" x="5.69" y="87.03" width="68.31" height="36.01" rx="8.48"/><circle class="cls-5" cx="32.3" cy="101.63" r="3.41"/><circle class="cls-5" cx="47.39" cy="101.63" r="3.41"/><rect class="cls-5" x="23.27" y="60.98" width="14.87" height="23.4" rx="6.12"/><rect class="cls-5" x="23.05" y="60.98" width="14.87" height="23.4" rx="6.12"/><ellipse cx="30.6" cy="76.97" rx="6.89" ry="7.19" transform="translate(-2.29 0.95) rotate(-1.72)"/><path class="cls-6" d="M26.77,78.72a2.43,2.43,0,0,1-2.43-2.44c0-3.27,3.05-5.93,6.8-5.93a2.44,2.44,0,1,1,0,4.87c-1.16,0-1.94.64-1.94,1.06A2.43,2.43,0,0,1,26.77,78.72Z"/><rect class="cls-5" x="42.25" y="60.98" width="14.87" height="23.4" rx="6.12"/><rect class="cls-5" x="42.03" y="60.98" width="14.87" height="23.4" rx="6.12"/><ellipse cx="49.58" cy="76.97" rx="6.89" ry="7.19" transform="translate(-2.28 1.52) rotate(-1.72)"/><path class="cls-6" d="M45.75,78.72a2.43,2.43,0,0,1-2.43-2.44c0-3.27,3-5.93,6.8-5.93a2.44,2.44,0,1,1,0,4.87c-1.16,0-1.94.64-1.94,1.06A2.43,2.43,0,0,1,45.75,78.72Z"/></g></svg>
