<svg xmlns="http://www.w3.org/2000/svg" width="1170" height="700" viewBox="0 0 1170 700"><defs><style>.cls-1{fill:#353535;}.cls-2{fill:#fff;}</style></defs><title>game beskrivelse</title><g id="talebobel"><ellipse class="cls-1" cx="624.13" cy="350" rx="541.65" ry="343.5"/><ellipse class="cls-2" cx="615.49" cy="356.78" rx="501" ry="317.72"/><polygon class="cls-1" points="4.21 507.59 85.8 374.31 160.44 511.6 4.21 507.59"/><polygon class="cls-2" points="43.58 486.37 113.86 371.55 178.16 489.82 43.58 486.37"/><path d="M329.47,217v15.25a19.09,19.09,0,0,1-2.41.42,25.88,25.88,0,0,1-3.25.2,14.36,14.36,0,0,1-2.79-.24,4.85,4.85,0,0,1-2-.86,3.76,3.76,0,0,1-1.24-1.72,8.38,8.38,0,0,1-.41-2.9V190.69c.5-.1,1.31-.22,2.41-.38a22.21,22.21,0,0,1,3.18-.24,14.43,14.43,0,0,1,2.79.24,5,5,0,0,1,2,.86,3.76,3.76,0,0,1,1.24,1.72,8.62,8.62,0,0,1,.41,2.9v11l14.35-16.49q4.69,0,6.73,1.76a5.36,5.36,0,0,1,2,4.18,6.76,6.76,0,0,1-.9,3.38,17.33,17.33,0,0,1-2.9,3.58l-8.62,8.63c1.15,1.29,2.35,2.62,3.62,4s2.51,2.73,3.73,4,2.39,2.56,3.51,3.76l2.94,3.1a6.19,6.19,0,0,1-.56,2.69,6.07,6.07,0,0,1-1.48,2,6.38,6.38,0,0,1-2.1,1.24,7.6,7.6,0,0,1-2.49.41,7.27,7.27,0,0,1-4.62-1.41,24.07,24.07,0,0,1-3.45-3.35Z"/><path d="M372.66,197.93a28.14,28.14,0,0,1,6.8.76A15.25,15.25,0,0,1,384.7,201a10.5,10.5,0,0,1,3.35,3.93,12.66,12.66,0,0,1,1.17,5.63V226a4.28,4.28,0,0,1-1,2.94,9.74,9.74,0,0,1-2.38,2q-4.48,2.7-12.62,2.69a28.8,28.8,0,0,1-6.59-.69,15.37,15.37,0,0,1-5-2.07,9.55,9.55,0,0,1-3.24-3.51,10.44,10.44,0,0,1-1.14-5c0-3.18.94-5.61,2.83-7.32s4.8-2.76,8.76-3.17l9-1v-.48a3,3,0,0,0-1.76-2.86,11.73,11.73,0,0,0-5.07-.87,23.4,23.4,0,0,0-5.11.56,25.68,25.68,0,0,0-4.48,1.38,4.79,4.79,0,0,1-1.52-1.9,6.07,6.07,0,0,1-.62-2.66,4.45,4.45,0,0,1,.86-2.86,6.77,6.77,0,0,1,2.66-1.83,20.51,20.51,0,0,1,4.72-1.1A41.11,41.11,0,0,1,372.66,197.93Zm.56,27.12a15.48,15.48,0,0,0,2.58-.24,6.16,6.16,0,0,0,2.11-.66v-5.52l-5,.41a7.7,7.7,0,0,0-3.17.83,2.23,2.23,0,0,0-1.25,2.07,2.78,2.78,0,0,0,1.07,2.25A5.91,5.91,0,0,0,373.22,225.05Z"/><path d="M417.65,211.25a3.83,3.83,0,0,0-1.21-3.14,4.93,4.93,0,0,0-3.27-1,11,11,0,0,0-2.73.34,6.81,6.81,0,0,0-2.31,1v23.94a14.85,14.85,0,0,1-2.17.41,22,22,0,0,1-3.07.21,16,16,0,0,1-2.73-.21,4.62,4.62,0,0,1-2-.82,4,4,0,0,1-1.27-1.69,7.35,7.35,0,0,1-.45-2.8v-20.7a5.29,5.29,0,0,1,.79-3,8.24,8.24,0,0,1,2.18-2.14,19.57,19.57,0,0,1,5.9-2.69,28.14,28.14,0,0,1,7.9-1c5.19,0,9.2,1.14,12,3.42a11.52,11.52,0,0,1,4.21,9.48v21.6a14.58,14.58,0,0,1-2.17.41,21.87,21.87,0,0,1-3.07.21,16,16,0,0,1-2.73-.21,4.58,4.58,0,0,1-2-.82,4,4,0,0,1-1.28-1.69,7.35,7.35,0,0,1-.45-2.8Z"/><path d="M449,215.73a20.66,20.66,0,0,1,1.38-7.9,15,15,0,0,1,3.83-5.55,15.71,15.71,0,0,1,5.72-3.28,22.78,22.78,0,0,1,7.08-1.07,15,15,0,0,1,2.69.24,10.89,10.89,0,0,1,2.14.59V187.58a18,18,0,0,1,2.2-.45,19.88,19.88,0,0,1,3.11-.24,15.91,15.91,0,0,1,2.72.21,4.58,4.58,0,0,1,2,.83,3.65,3.65,0,0,1,1.24,1.69,7.73,7.73,0,0,1,.42,2.79v32.71a5.9,5.9,0,0,1-3,5.17,20.63,20.63,0,0,1-5.18,2.31,26.94,26.94,0,0,1-15.35-.24,16.23,16.23,0,0,1-6-3.59,15.38,15.38,0,0,1-3.73-5.62A20.33,20.33,0,0,1,449,215.73Zm19.59-8.62a7.43,7.43,0,0,0-5.72,2.14q-2,2.13-2,6.48c0,2.86.63,5,1.87,6.45a6.69,6.69,0,0,0,5.38,2.18,6.34,6.34,0,0,0,2.24-.38,4.94,4.94,0,0,0,1.55-.86V207.94A6.24,6.24,0,0,0,468.57,207.11Z"/><path d="M490.86,199.45A14.58,14.58,0,0,1,493,199a21.87,21.87,0,0,1,3.07-.21,16,16,0,0,1,2.73.21,4.58,4.58,0,0,1,2,.82,4,4,0,0,1,1.28,1.69,7.35,7.35,0,0,1,.45,2.8v14.83c0,1.89.46,3.24,1.38,4a5.92,5.92,0,0,0,4,1.21,10.17,10.17,0,0,0,2.59-.28,8.86,8.86,0,0,0,1.55-.55V199.45a14.58,14.58,0,0,1,2.17-.41,22,22,0,0,1,3.08-.21,15.91,15.91,0,0,1,2.72.21,4.62,4.62,0,0,1,2,.82,4,4,0,0,1,1.27,1.69,7.35,7.35,0,0,1,.45,2.8v21a5.65,5.65,0,0,1-2.9,5.18,19.07,19.07,0,0,1-5.76,2.31,31.49,31.49,0,0,1-7.28.79,26.94,26.94,0,0,1-6.86-.82,15.46,15.46,0,0,1-5.42-2.56,11.39,11.39,0,0,1-3.52-4.45,15.75,15.75,0,0,1-1.24-6.59Z"/><path d="M577.94,232.43a14.77,14.77,0,0,1-2.18.41,21.87,21.87,0,0,1-3.07.21,15.91,15.91,0,0,1-2.72-.21,4.57,4.57,0,0,1-2-.82,4,4,0,0,1-1.27-1.69,7.35,7.35,0,0,1-.45-2.8V212.21c0-1.88-.48-3.2-1.42-4a5.36,5.36,0,0,0-3.48-1.14,9.7,9.7,0,0,0-2.62.34,7.65,7.65,0,0,0-2,.83v24.15a14.58,14.58,0,0,1-2.17.41,21.87,21.87,0,0,1-3.07.21,16.12,16.12,0,0,1-2.73-.21,4.58,4.58,0,0,1-2-.82,4.07,4.07,0,0,1-1.28-1.69,7.35,7.35,0,0,1-.45-2.8v-40l2.25-.38a18.77,18.77,0,0,1,3-.24,15.91,15.91,0,0,1,2.72.21,4.58,4.58,0,0,1,2,.83,3.94,3.94,0,0,1,1.28,1.69,7.48,7.48,0,0,1,.44,2.79v6.76a25,25,0,0,1,2.73-.79,16.88,16.88,0,0,1,4-.45q6.82,0,10.66,3.42c2.55,2.27,3.83,5.67,3.83,10.17Z"/><path d="M582.9,237.19a5.57,5.57,0,0,0,2.21-2.65,9.87,9.87,0,0,0,.69-3.76V199.45l2.24-.38a18.8,18.8,0,0,1,3-.24,15.91,15.91,0,0,1,2.72.21,4.62,4.62,0,0,1,2,.82,4,4,0,0,1,1.27,1.69,7.35,7.35,0,0,1,.45,2.8v27.53a18.52,18.52,0,0,1-.69,5.24,12.28,12.28,0,0,1-2,4,8.72,8.72,0,0,1-7.21,3.55,6.23,6.23,0,0,1-4.76-1.83,6.66,6.66,0,0,1-1.79-4.58Zm2.35-47.54a6,6,0,0,1,1.76-4.41,6.92,6.92,0,0,1,9.31,0,6.42,6.42,0,0,1,0,8.83,6.95,6.95,0,0,1-9.31,0A6.09,6.09,0,0,1,585.25,189.65Z"/><path d="M642.24,233.6a21.32,21.32,0,0,1-6-.82,16.58,16.58,0,0,1-5-2.42,16.69,16.69,0,0,1-5.79,2.52,28.7,28.7,0,0,1-6.35.72,27.71,27.71,0,0,1-6.42-.69,15.06,15.06,0,0,1-5-2.07,9.64,9.64,0,0,1-3.21-3.51,10.56,10.56,0,0,1-1.13-5c0-3.18.94-5.59,2.83-7.25s4.8-2.73,8.76-3.24l7.86-1v-.48a3,3,0,0,0-1.62-2.86,9.3,9.3,0,0,0-4.38-.87,21.31,21.31,0,0,0-4.86.56,26.59,26.59,0,0,0-4.39,1.38,4.86,4.86,0,0,1-1.51-1.9,5.93,5.93,0,0,1-.62-2.66,4.39,4.39,0,0,1,.86-2.86,6.7,6.7,0,0,1,2.66-1.83,20.37,20.37,0,0,1,4.58-1.1,37.5,37.5,0,0,1,4.94-.35,22.2,22.2,0,0,1,6.52.9,12.5,12.5,0,0,1,4.93,2.76,14.85,14.85,0,0,1,4.87-2.76,17.17,17.17,0,0,1,5.55-.9A19.07,19.07,0,0,1,647,199a15.75,15.75,0,0,1,5.17,3,13.64,13.64,0,0,1,3.39,4.62,14.27,14.27,0,0,1,1.2,5.87,4.74,4.74,0,0,1-1.31,3.59,6.58,6.58,0,0,1-3.66,1.58l-17,2.56a5.75,5.75,0,0,0,3.11,3.41,12.13,12.13,0,0,0,5.38,1.14,19.42,19.42,0,0,0,5.35-.72,17.6,17.6,0,0,0,4.1-1.69,5.65,5.65,0,0,1,1.86,1.93,5.06,5.06,0,0,1-2.13,7.24,15.34,15.34,0,0,1-5,1.59A34.49,34.49,0,0,1,642.24,233.6Zm-23.18-8.55a9.19,9.19,0,0,0,2.14-.28,4.85,4.85,0,0,0,1.65-.62v-5.52l-3.79.41a8.84,8.84,0,0,0-3.18.87,2.16,2.16,0,0,0-1.24,2,2.86,2.86,0,0,0,1,2.25A5.31,5.31,0,0,0,619.06,225.05Zm21.25-18.56a6.79,6.79,0,0,0-2.86.55,5.86,5.86,0,0,0-2,1.41,5.77,5.77,0,0,0-1.14,1.94,8.15,8.15,0,0,0-.45,2.17l11.8-1.93a5.19,5.19,0,0,0-1.52-2.76A5.07,5.07,0,0,0,640.31,206.49Z"/><path d="M674.4,232.43l-2.25.38a18.77,18.77,0,0,1-3,.24,15.91,15.91,0,0,1-2.72-.21,4.57,4.57,0,0,1-2-.82,4.07,4.07,0,0,1-1.28-1.69,7.37,7.37,0,0,1-.44-2.8v-40l2.24-.38a18.77,18.77,0,0,1,3-.24,16.12,16.12,0,0,1,2.73.21,4.59,4.59,0,0,1,2,.83,3.94,3.94,0,0,1,1.28,1.69,7.26,7.26,0,0,1,.45,2.79Z"/><path d="M697.17,197.93a26.67,26.67,0,0,1,7.69,1.07,16.5,16.5,0,0,1,6.11,3.28,15.24,15.24,0,0,1,4,5.55,20.08,20.08,0,0,1,1.45,8,22.14,22.14,0,0,1-1.24,7.73,15.17,15.17,0,0,1-3.52,5.55,14.25,14.25,0,0,1-5.49,3.35,21.74,21.74,0,0,1-7.14,1.11,16.47,16.47,0,0,1-5.52-.9v11.45a18.21,18.21,0,0,1-2.21.45,19.85,19.85,0,0,1-3.1.24,17.2,17.2,0,0,1-2.73-.2,4.71,4.71,0,0,1-2-.83,3.78,3.78,0,0,1-1.25-1.69,8.08,8.08,0,0,1-.41-2.8V206.14a5.29,5.29,0,0,1,.79-3,8.24,8.24,0,0,1,2.18-2.14,18.1,18.1,0,0,1,5.31-2.21A28.21,28.21,0,0,1,697.17,197.93Zm.13,26.36q7.11,0,7.11-8.49c0-2.94-.58-5.13-1.76-6.55a6.17,6.17,0,0,0-5.07-2.14,8.11,8.11,0,0,0-2.35.31,10.09,10.09,0,0,0-1.79.72v15.18a9.78,9.78,0,0,0,1.79.69A7.34,7.34,0,0,0,697.3,224.29Z"/><path d="M739.88,233.6a24.45,24.45,0,0,1-7.56-1.13,17.09,17.09,0,0,1-6.07-3.42,15.8,15.8,0,0,1-4.07-5.73,20.28,20.28,0,0,1-1.49-8.07,18.83,18.83,0,0,1,1.49-7.83,15.19,15.19,0,0,1,9.42-8.49,20.74,20.74,0,0,1,6.34-1A19.07,19.07,0,0,1,744.6,199a15.91,15.91,0,0,1,5.18,3,13.61,13.61,0,0,1,3.38,4.62,14.27,14.27,0,0,1,1.21,5.87,4.74,4.74,0,0,1-1.31,3.59,6.65,6.65,0,0,1-3.66,1.58l-17,2.56a5.73,5.73,0,0,0,3.1,3.41,12.16,12.16,0,0,0,5.38,1.14,19.37,19.37,0,0,0,5.35-.72,17.51,17.51,0,0,0,4.11-1.69,5.84,5.84,0,0,1,1.86,1.93,5,5,0,0,1,.76,2.62,4.92,4.92,0,0,1-2.9,4.62,15.27,15.27,0,0,1-5,1.59A34.36,34.36,0,0,1,739.88,233.6Zm-1.94-27.11a6.82,6.82,0,0,0-2.86.55,5.57,5.57,0,0,0-3.1,3.35,7.43,7.43,0,0,0-.45,2.17l11.8-1.93a5.26,5.26,0,0,0-1.52-2.76A5.09,5.09,0,0,0,737.94,206.49Z"/><path d="M789.9,197.93a20.13,20.13,0,0,1,5.56.79,13.65,13.65,0,0,1,4.72,2.39,20.61,20.61,0,0,1,4.66-2.28,19.09,19.09,0,0,1,6.24-.9,19.36,19.36,0,0,1,5.14.69,13.29,13.29,0,0,1,4.49,2.17,10.55,10.55,0,0,1,3.14,3.94,13.75,13.75,0,0,1,1.17,6v21.73a14.58,14.58,0,0,1-2.17.41,21.87,21.87,0,0,1-3.07.21,16.12,16.12,0,0,1-2.73-.21,4.58,4.58,0,0,1-2-.82,4,4,0,0,1-1.28-1.69,7.35,7.35,0,0,1-.45-2.8V211a3.6,3.6,0,0,0-1.17-3,5,5,0,0,0-3.17-.93,5.54,5.54,0,0,0-2.08.45,6.11,6.11,0,0,0-1.65.93,2.4,2.4,0,0,1,.07.52v23.42a17.9,17.9,0,0,1-2.24.41,21.44,21.44,0,0,1-3,.21,15.91,15.91,0,0,1-2.72-.21,4.57,4.57,0,0,1-2-.82,4,4,0,0,1-1.27-1.69,7.35,7.35,0,0,1-.45-2.8V211a3.47,3.47,0,0,0-1.28-3,5.06,5.06,0,0,0-3.07-.93,5.53,5.53,0,0,0-2.14.38,15.91,15.91,0,0,0-1.52.72v24.22a14.58,14.58,0,0,1-2.17.41,21.87,21.87,0,0,1-3.07.21,16.12,16.12,0,0,1-2.73-.21,4.58,4.58,0,0,1-2-.82,4.07,4.07,0,0,1-1.28-1.69,7.35,7.35,0,0,1-.45-2.8V206.69a5,5,0,0,1,.8-3,8.82,8.82,0,0,1,2.17-2.07,19.7,19.7,0,0,1,5.83-2.69A25.42,25.42,0,0,1,789.9,197.93Z"/><path d="M831.92,189.65a6,6,0,0,1,1.76-4.41,6.93,6.93,0,0,1,9.32,0,6.42,6.42,0,0,1,0,8.83,7,7,0,0,1-9.32,0A6.09,6.09,0,0,1,831.92,189.65Zm12.28,42.78-2.24.38a18.77,18.77,0,0,1-3,.24,16.12,16.12,0,0,1-2.73-.21,4.58,4.58,0,0,1-2-.82,4.07,4.07,0,0,1-1.28-1.69,7.35,7.35,0,0,1-.45-2.8V199.45l2.25-.38a18.68,18.68,0,0,1,3-.24,15.91,15.91,0,0,1,2.72.21,4.57,4.57,0,0,1,2,.82,4.07,4.07,0,0,1,1.28,1.69,7.57,7.57,0,0,1,.44,2.8Z"/><path d="M868,197.93a24.16,24.16,0,0,1,7.14,1,19,19,0,0,1,5.42,2.59,8.34,8.34,0,0,1,2.17,2.14,5.29,5.29,0,0,1,.79,3v24.15a13.55,13.55,0,0,1-1.38,6.32,12.62,12.62,0,0,1-3.76,4.41,15.81,15.81,0,0,1-5.59,2.59,27.44,27.44,0,0,1-6.86.83c-4.19,0-7.48-.57-9.87-1.69a6.06,6.06,0,0,1-2.93-8.28,5.51,5.51,0,0,1,1.48-1.83,23.32,23.32,0,0,0,4.52,1.86,17.85,17.85,0,0,0,5.21.76,12.08,12.08,0,0,0,5.93-1.24,4.23,4.23,0,0,0,2.21-4v-1.11a17.05,17.05,0,0,1-6.9,1.25,18.32,18.32,0,0,1-5.9-.94,13.26,13.26,0,0,1-4.9-2.89,14.17,14.17,0,0,1-3.38-5.08,19.34,19.34,0,0,1-1.27-7.38,18.41,18.41,0,0,1,1.34-7.31,14,14,0,0,1,3.73-5.14,15.59,15.59,0,0,1,5.66-3A24.54,24.54,0,0,1,868,197.93Zm4.28,10a7.19,7.19,0,0,0-1.42-.56,8.41,8.41,0,0,0-2.31-.27,6.43,6.43,0,0,0-5.07,1.9,7.85,7.85,0,0,0-1.69,5.41q0,4,1.69,5.76a5.69,5.69,0,0,0,4.31,1.76,7,7,0,0,0,4.49-1.31Z"/><path d="M895.88,218.15a6.28,6.28,0,0,1-2.2-2.24,7,7,0,0,1-1-3.83,4.19,4.19,0,0,1,1.14-3.21,7.39,7.39,0,0,1,3.35-1.62l5.38-1.32c2.3-.59,3.45-1.7,3.45-3.31a2.8,2.8,0,0,0-1.28-2.27c-.85-.65-2.31-1-4.38-1a18.93,18.93,0,0,0-5.31.72,16,16,0,0,0-4,1.69,8.51,8.51,0,0,1-2-2.17,5.52,5.52,0,0,1-.82-3.07,5,5,0,0,1,1-3.14,7.64,7.64,0,0,1,2.86-2.21,16.44,16.44,0,0,1,4.35-1.27,33.91,33.91,0,0,1,5.56-.42q8.13,0,12.31,3.63a12,12,0,0,1,4.18,9.48q0,11-15.6,14.15Zm-2.27,9a6.17,6.17,0,1,1,1.76,4.65A6.42,6.42,0,0,1,893.61,227.19Z"/><path d="M256.16,348.33a8.27,8.27,0,0,1,.86,2,9.33,9.33,0,0,1,.38,2.65,5.28,5.28,0,0,1-1.14,3.83,4.14,4.14,0,0,1-3.07,1.14H238.7v7.8h15.11a6.66,6.66,0,0,1,.93,2,9,9,0,0,1,.38,2.62,5.17,5.17,0,0,1-1.14,3.76,4.14,4.14,0,0,1-3.07,1.14H238.84v14.56a17.7,17.7,0,0,1-2.38.41,25.07,25.07,0,0,1-3.21.21,14.54,14.54,0,0,1-2.8-.24,5,5,0,0,1-2-.86,3.72,3.72,0,0,1-1.24-1.73,8.28,8.28,0,0,1-.42-2.9v-30a6,6,0,0,1,6.42-6.42Z"/><path d="M261.68,347.3a6,6,0,0,1,1.76-4.42,6.95,6.95,0,0,1,9.31,0,6.42,6.42,0,0,1,0,8.83,6.92,6.92,0,0,1-9.31,0A6,6,0,0,1,261.68,347.3ZM274,390.08l-2.24.38a18.8,18.8,0,0,1-3,.24,15.91,15.91,0,0,1-2.72-.21,4.58,4.58,0,0,1-2-.83,3.93,3.93,0,0,1-1.27-1.69,7.26,7.26,0,0,1-.45-2.79V357.1c.5-.1,1.25-.22,2.24-.38a18.78,18.78,0,0,1,3-.25,16.12,16.12,0,0,1,2.73.21,4.71,4.71,0,0,1,2,.83,4,4,0,0,1,1.28,1.69A7.26,7.26,0,0,1,274,362Z"/><path d="M302.66,368.89a3.85,3.85,0,0,0-1.21-3.14,5,5,0,0,0-3.27-1,11,11,0,0,0-2.73.35,6.8,6.8,0,0,0-2.31,1v23.95a16.35,16.35,0,0,1-2.17.41,22,22,0,0,1-3.07.21,16,16,0,0,1-2.73-.21,4.59,4.59,0,0,1-2-.83,3.87,3.87,0,0,1-1.28-1.69,7.26,7.26,0,0,1-.45-2.79v-20.7a5.34,5.34,0,0,1,.79-3,8.55,8.55,0,0,1,2.18-2.14,19.81,19.81,0,0,1,5.9-2.69,28.2,28.2,0,0,1,7.9-1c5.19,0,9.2,1.14,12,3.41a11.54,11.54,0,0,1,4.21,9.49v21.6a16,16,0,0,1-2.17.41,21.87,21.87,0,0,1-3.07.21,16.12,16.12,0,0,1-2.73-.21,4.59,4.59,0,0,1-2-.83,3.87,3.87,0,0,1-1.28-1.69,7.26,7.26,0,0,1-.45-2.79Z"/><path d="M320.19,373.38a20.63,20.63,0,0,1,1.38-7.9,15.1,15.1,0,0,1,3.83-5.56,15.69,15.69,0,0,1,5.72-3.27,22.49,22.49,0,0,1,7.08-1.07,15,15,0,0,1,2.69.24,10.89,10.89,0,0,1,2.14.59V345.23a18,18,0,0,1,2.2-.45,19.88,19.88,0,0,1,3.11-.24,17.07,17.07,0,0,1,2.72.2,4.7,4.7,0,0,1,2,.83,3.76,3.76,0,0,1,1.24,1.69,7.83,7.83,0,0,1,.42,2.8v32.7a5.9,5.9,0,0,1-3,5.18,21.38,21.38,0,0,1-5.18,2.31,26.94,26.94,0,0,1-15.35-.24,16.37,16.37,0,0,1-6-3.59,15.46,15.46,0,0,1-3.73-5.62A20.37,20.37,0,0,1,320.19,373.38Zm19.59-8.63a7.47,7.47,0,0,0-5.72,2.14q-2,2.14-2,6.49c0,2.85.63,5,1.87,6.45A6.68,6.68,0,0,0,339.3,382a6.12,6.12,0,0,0,2.24-.38,4.94,4.94,0,0,0,1.55-.86V365.58A6.33,6.33,0,0,0,339.78,364.75Z"/><path d="M389.67,355.58a28.2,28.2,0,0,1,6.8.76,15,15,0,0,1,5.24,2.31,10.43,10.43,0,0,1,3.35,3.93,12.62,12.62,0,0,1,1.17,5.62v15.46a4.25,4.25,0,0,1-1,2.93,10,10,0,0,1-2.38,2q-4.49,2.69-12.63,2.69a28.87,28.87,0,0,1-6.59-.69,15.62,15.62,0,0,1-5-2.07,9.44,9.44,0,0,1-3.25-3.52,10.39,10.39,0,0,1-1.14-5c0-3.17,1-5.61,2.83-7.31s4.81-2.76,8.77-3.17l9-1v-.48a3,3,0,0,0-1.76-2.87,12,12,0,0,0-5.08-.86,23.3,23.3,0,0,0-5.1.55,27.65,27.65,0,0,0-4.49,1.38,4.75,4.75,0,0,1-1.51-1.89,6,6,0,0,1-.63-2.66,4.38,4.38,0,0,1,.87-2.86A6.53,6.53,0,0,1,379.8,357a20.58,20.58,0,0,1,4.73-1.11A41,41,0,0,1,389.67,355.58Zm.55,27.11a15.59,15.59,0,0,0,2.59-.24,6.43,6.43,0,0,0,2.1-.65v-5.52l-5,.41a7.63,7.63,0,0,0-3.18.83,2.22,2.22,0,0,0-1.24,2.07,2.74,2.74,0,0,0,1.07,2.24A5.81,5.81,0,0,0,390.22,382.69Z"/><path d="M425.34,390.08l-2.24.38a18.77,18.77,0,0,1-3,.24,16.12,16.12,0,0,1-2.73-.21,4.59,4.59,0,0,1-2-.83,3.87,3.87,0,0,1-1.28-1.69,7.26,7.26,0,0,1-.45-2.79v-40l2.24-.38a18.8,18.8,0,0,1,3-.24,17.07,17.07,0,0,1,2.72.2,4.7,4.7,0,0,1,2,.83,4,4,0,0,1,1.27,1.69,7.35,7.35,0,0,1,.45,2.8Z"/><path d="M444.66,390.08l-2.24.38a18.77,18.77,0,0,1-3,.24,16.12,16.12,0,0,1-2.73-.21,4.59,4.59,0,0,1-2-.83,3.94,3.94,0,0,1-1.28-1.69,7.26,7.26,0,0,1-.45-2.79v-40l2.24-.38a18.8,18.8,0,0,1,3-.24,17.07,17.07,0,0,1,2.72.2,4.7,4.7,0,0,1,2,.83,4,4,0,0,1,1.27,1.69,7.35,7.35,0,0,1,.45,2.8Z"/><path d="M469.78,391.25a24.15,24.15,0,0,1-7.56-1.14,17.31,17.31,0,0,1-6.07-3.41,15.92,15.92,0,0,1-4.07-5.73,20.29,20.29,0,0,1-1.48-8.07,18.83,18.83,0,0,1,1.48-7.83,15.12,15.12,0,0,1,9.42-8.49,20.46,20.46,0,0,1,6.35-1,19.29,19.29,0,0,1,6.65,1.1,16,16,0,0,1,5.18,3,13.61,13.61,0,0,1,3.38,4.62,14.08,14.08,0,0,1,1.21,5.87,4.7,4.7,0,0,1-1.31,3.58,6.58,6.58,0,0,1-3.66,1.59l-17,2.55a5.72,5.72,0,0,0,3.1,3.42,12.19,12.19,0,0,0,5.38,1.14,19,19,0,0,0,5.35-.73,16.7,16.7,0,0,0,4.11-1.69,5.94,5.94,0,0,1,1.86,1.93,5.07,5.07,0,0,1-2.14,7.25,15.51,15.51,0,0,1-5,1.59A35.72,35.72,0,0,1,469.78,391.25Zm-1.93-27.12a6.83,6.83,0,0,0-2.87.56,5.68,5.68,0,0,0-2,1.41,5.83,5.83,0,0,0-1.14,1.93,7.57,7.57,0,0,0-.45,2.18l11.8-1.94a5.26,5.26,0,0,0-1.52-2.76A5.07,5.07,0,0,0,467.85,364.13Z"/><path d="M502.28,373.38a20.63,20.63,0,0,1,1.38-7.9,15.1,15.1,0,0,1,3.83-5.56,15.69,15.69,0,0,1,5.72-3.27,22.49,22.49,0,0,1,7.08-1.07,15,15,0,0,1,2.69.24,10.89,10.89,0,0,1,2.14.59V345.23a18,18,0,0,1,2.2-.45,19.88,19.88,0,0,1,3.11-.24,17.07,17.07,0,0,1,2.72.2,4.7,4.7,0,0,1,2,.83,3.76,3.76,0,0,1,1.24,1.69,7.83,7.83,0,0,1,.42,2.8v32.7a5.9,5.9,0,0,1-3,5.18,21.38,21.38,0,0,1-5.18,2.31,26.94,26.94,0,0,1-15.35-.24,16.37,16.37,0,0,1-6-3.59,15.46,15.46,0,0,1-3.73-5.62A20.37,20.37,0,0,1,502.28,373.38Zm19.59-8.63a7.47,7.47,0,0,0-5.72,2.14q-2,2.14-2,6.49c0,2.85.63,5,1.87,6.45a6.68,6.68,0,0,0,5.38,2.17,6.12,6.12,0,0,0,2.24-.38,4.94,4.94,0,0,0,1.55-.86V365.58A6.33,6.33,0,0,0,521.87,364.75Z"/><path d="M561.89,391.25a24.14,24.14,0,0,1-7.55-1.14,17.27,17.27,0,0,1-6.08-3.41,15.92,15.92,0,0,1-4.07-5.73,20.29,20.29,0,0,1-1.48-8.07,18.83,18.83,0,0,1,1.48-7.83,15.12,15.12,0,0,1,9.42-8.49,20.51,20.51,0,0,1,6.35-1,19.3,19.3,0,0,1,6.66,1.1,16.06,16.06,0,0,1,5.17,3,13.48,13.48,0,0,1,3.38,4.62,14.08,14.08,0,0,1,1.21,5.87,4.7,4.7,0,0,1-1.31,3.58,6.52,6.52,0,0,1-3.66,1.59l-17,2.55a5.74,5.74,0,0,0,3.11,3.42,12.13,12.13,0,0,0,5.38,1.14,19.05,19.05,0,0,0,5.35-.73,16.78,16.78,0,0,0,4.1-1.69,5.74,5.74,0,0,1,1.86,1.93,5.07,5.07,0,0,1-2.14,7.25,15.45,15.45,0,0,1-5,1.59A35.86,35.86,0,0,1,561.89,391.25ZM560,364.13a6.79,6.79,0,0,0-2.86.56,5.72,5.72,0,0,0-2,1.41A5.83,5.83,0,0,0,554,368a8.3,8.3,0,0,0-.45,2.18l11.8-1.94a5.19,5.19,0,0,0-1.52-2.76A5.07,5.07,0,0,0,560,364.13Z"/><path d="M607.57,390.08a16.35,16.35,0,0,1-2.17.41,22,22,0,0,1-3.07.21,16,16,0,0,1-2.73-.21,4.54,4.54,0,0,1-2-.83,3.87,3.87,0,0,1-1.28-1.69,7.26,7.26,0,0,1-.45-2.79v-20.7a5.79,5.79,0,0,1,.59-2.73,6.33,6.33,0,0,1,1.69-2,11.85,11.85,0,0,1,2.72-1.62,26.92,26.92,0,0,1,3.49-1.28,28.13,28.13,0,0,1,3.86-.86,25.67,25.67,0,0,1,4-.31,9.44,9.44,0,0,1,5.25,1.27,4.66,4.66,0,0,1,1.93,4.18,6.53,6.53,0,0,1-.28,1.9,8.3,8.3,0,0,1-.69,1.69c-1,0-1.95,0-3,.13s-2,.23-3,.42-1.88.38-2.73.58a11.93,11.93,0,0,0-2.17.73Z"/><path d="M623.92,347.3a6.09,6.09,0,0,1,1.76-4.42,7,7,0,0,1,9.32,0,6.42,6.42,0,0,1,0,8.83,6.93,6.93,0,0,1-9.32,0A6,6,0,0,1,623.92,347.3Zm12.28,42.78-2.24.38a18.77,18.77,0,0,1-3,.24,15.91,15.91,0,0,1-2.72-.21,4.58,4.58,0,0,1-2-.83,3.94,3.94,0,0,1-1.28-1.69,7.28,7.28,0,0,1-.44-2.79V357.1c.5-.1,1.25-.22,2.24-.38a18.78,18.78,0,0,1,3-.25,16.12,16.12,0,0,1,2.73.21,4.71,4.71,0,0,1,2,.83,4,4,0,0,1,1.28,1.69,7.28,7.28,0,0,1,.44,2.79Z"/><path d="M660,355.58a23.83,23.83,0,0,1,7.14,1,19,19,0,0,1,5.42,2.59,8.31,8.31,0,0,1,2.17,2.13,5.34,5.34,0,0,1,.79,3v24.15a13.51,13.51,0,0,1-1.38,6.31,12.65,12.65,0,0,1-3.76,4.42,16,16,0,0,1-5.59,2.59,27.38,27.38,0,0,1-6.86.83c-4.19,0-7.48-.57-9.87-1.69a6.06,6.06,0,0,1-2.93-8.28,5.51,5.51,0,0,1,1.48-1.83,24,24,0,0,0,4.52,1.86,17.85,17.85,0,0,0,5.21.76,12.23,12.23,0,0,0,5.94-1.24,4.26,4.26,0,0,0,2.2-4v-1.1a17.06,17.06,0,0,1-6.9,1.24,18.49,18.49,0,0,1-5.89-.93,13.13,13.13,0,0,1-4.9-2.9,14.24,14.24,0,0,1-3.39-5.07,19.38,19.38,0,0,1-1.27-7.38,18.43,18.43,0,0,1,1.34-7.32,14,14,0,0,1,3.73-5.14,15.72,15.72,0,0,1,5.66-3A24.21,24.21,0,0,1,660,355.58Zm4.28,10a7.27,7.27,0,0,0-1.42-.55,8.38,8.38,0,0,0-2.31-.28,6.47,6.47,0,0,0-5.07,1.9,7.88,7.88,0,0,0-1.69,5.42q0,4,1.69,5.76a5.73,5.73,0,0,0,4.31,1.76,7.08,7.08,0,0,0,4.49-1.31Z"/><path d="M694.51,378.62a2.85,2.85,0,0,0,1.14,2.56,5.81,5.81,0,0,0,3.21.76,13.12,13.12,0,0,0,2.13-.18,11.13,11.13,0,0,0,1.94-.45A8.81,8.81,0,0,1,704,383a5.75,5.75,0,0,1-1.52,6.53q-2,1.65-6.94,1.65-6.07,0-9.35-2.76t-3.27-9V349.92c.5-.14,1.23-.29,2.17-.45a17.88,17.88,0,0,1,3-.24,8.86,8.86,0,0,1,4.73,1.07c1.12.71,1.69,2.22,1.69,4.52v4.41h9a12.27,12.27,0,0,1,.79,1.9,8,8,0,0,1,.38,2.52,4.78,4.78,0,0,1-1.07,3.48,3.84,3.84,0,0,1-2.86,1.07h-6.28Z"/><path d="M710.1,347.3a6.09,6.09,0,0,1,1.76-4.42,7,7,0,0,1,9.32,0,6.42,6.42,0,0,1,0,8.83,6.93,6.93,0,0,1-9.32,0A6,6,0,0,1,710.1,347.3Zm12.28,42.78-2.24.38a18.77,18.77,0,0,1-3,.24,16.12,16.12,0,0,1-2.73-.21,4.59,4.59,0,0,1-2-.83A3.94,3.94,0,0,1,711.1,388a7.26,7.26,0,0,1-.45-2.79V357.1c.51-.1,1.26-.22,2.25-.38a18.68,18.68,0,0,1,3-.25,15.91,15.91,0,0,1,2.72.21,4.7,4.7,0,0,1,2,.83,4,4,0,0,1,1.28,1.69,7.48,7.48,0,0,1,.44,2.79Z"/><path d="M746.19,355.58a23.83,23.83,0,0,1,7.14,1,19,19,0,0,1,5.42,2.59,8.31,8.31,0,0,1,2.17,2.13,5.34,5.34,0,0,1,.79,3v24.15a13.51,13.51,0,0,1-1.38,6.31,12.65,12.65,0,0,1-3.76,4.42,16,16,0,0,1-5.59,2.59,27.38,27.38,0,0,1-6.86.83c-4.19,0-7.48-.57-9.87-1.69a6.06,6.06,0,0,1-2.93-8.28,5.51,5.51,0,0,1,1.48-1.83,24,24,0,0,0,4.52,1.86,17.85,17.85,0,0,0,5.21.76,12.23,12.23,0,0,0,5.94-1.24,4.26,4.26,0,0,0,2.2-4v-1.1a17.06,17.06,0,0,1-6.9,1.24,18.6,18.6,0,0,1-5.9-.93,13.17,13.17,0,0,1-4.89-2.9,14.24,14.24,0,0,1-3.39-5.07,19.38,19.38,0,0,1-1.27-7.38,18.43,18.43,0,0,1,1.34-7.32,14,14,0,0,1,3.73-5.14,15.72,15.72,0,0,1,5.66-3A24.21,24.21,0,0,1,746.19,355.58Zm4.28,10a7.27,7.27,0,0,0-1.42-.55,8.38,8.38,0,0,0-2.31-.28,6.47,6.47,0,0,0-5.07,1.9,7.88,7.88,0,0,0-1.69,5.42q0,4,1.69,5.76a5.73,5.73,0,0,0,4.31,1.76,7.08,7.08,0,0,0,4.49-1.31Z"/><path d="M786.69,391.25a24.14,24.14,0,0,1-7.55-1.14,17.27,17.27,0,0,1-6.08-3.41A15.92,15.92,0,0,1,769,381a20.29,20.29,0,0,1-1.48-8.07,18.83,18.83,0,0,1,1.48-7.83,15.12,15.12,0,0,1,9.42-8.49,20.51,20.51,0,0,1,6.35-1,19.3,19.3,0,0,1,6.66,1.1,16.06,16.06,0,0,1,5.17,3,13.48,13.48,0,0,1,3.38,4.62,14.08,14.08,0,0,1,1.21,5.87,4.7,4.7,0,0,1-1.31,3.58,6.52,6.52,0,0,1-3.66,1.59l-17,2.55a5.74,5.74,0,0,0,3.11,3.42,12.13,12.13,0,0,0,5.38,1.14,18.93,18.93,0,0,0,5.34-.73,16.7,16.7,0,0,0,4.11-1.69A5.74,5.74,0,0,1,799,382a5.07,5.07,0,0,1-2.14,7.25,15.53,15.53,0,0,1-5,1.59A35.86,35.86,0,0,1,786.69,391.25Zm-1.93-27.12a6.79,6.79,0,0,0-2.86.56,5.63,5.63,0,0,0-2,1.41,5.83,5.83,0,0,0-1.14,1.93,8.3,8.3,0,0,0-.45,2.18l11.8-1.94a5.19,5.19,0,0,0-1.52-2.76A5.07,5.07,0,0,0,784.76,364.13Z"/><path d="M820.78,345.23a18,18,0,0,1,2.2-.45,20,20,0,0,1,3.11-.24,17.29,17.29,0,0,1,2.73.2,4.71,4.71,0,0,1,2,.83,3.76,3.76,0,0,1,1.24,1.69,7.83,7.83,0,0,1,.42,2.8v6.76a17.27,17.27,0,0,1,3.27-1,20.1,20.1,0,0,1,3.42-.27,17,17,0,0,1,6.28,1.17,15.44,15.44,0,0,1,5.24,3.42,15.71,15.71,0,0,1,3.59,5.55,20.8,20.8,0,0,1,1.31,7.66,21,21,0,0,1-1.34,7.83,15.2,15.2,0,0,1-3.76,5.56,16,16,0,0,1-5.9,3.34,27.48,27.48,0,0,1-15.43.07,20.16,20.16,0,0,1-5.38-2.66,6.48,6.48,0,0,1-3-5.52ZM836.92,382a6,6,0,0,0,4.94-2.17q1.75-2.18,1.76-6.45t-1.8-6.49a6,6,0,0,0-4.83-2.14,9.2,9.2,0,0,0-2.38.28,13,13,0,0,0-2.17.83v15a6.72,6.72,0,0,0,1.83.79A9.49,9.49,0,0,0,836.92,382Z"/><path d="M896.06,373.38a20.63,20.63,0,0,1-1.32,7.62,15.33,15.33,0,0,1-3.69,5.63,15.56,15.56,0,0,1-5.69,3.45,22.06,22.06,0,0,1-7.38,1.17,23.1,23.1,0,0,1-4-.34,26.66,26.66,0,0,1-3.55-.9l-3,4.35a4.59,4.59,0,0,1-1.48-.28,6,6,0,0,1-1.49-.76,5.1,5.1,0,0,1-1.14-1.07,1.94,1.94,0,0,1-.44-1.21,3.32,3.32,0,0,1,.55-1.51l1.79-2.63a14.54,14.54,0,0,1-4-5.72,20.85,20.85,0,0,1-1.38-7.8,20,20,0,0,1,1.31-7.38,16,16,0,0,1,3.69-5.63,16.37,16.37,0,0,1,5.69-3.55,20.87,20.87,0,0,1,7.39-1.24,20.64,20.64,0,0,1,7.59,1.38l3-4.56a5,5,0,0,1,1.42.24,6.45,6.45,0,0,1,1.48.69,4.8,4.8,0,0,1,1.17,1.07,2.1,2.1,0,0,1,.49,1.32,2.62,2.62,0,0,1-.49,1.44l-2,2.9a16.19,16.19,0,0,1,4,5.73A19.52,19.52,0,0,1,896.06,373.38Zm-25,0a12.34,12.34,0,0,0,.62,4.21L880.25,365a8,8,0,0,0-2.27-.34,6.13,6.13,0,0,0-5,2.31A10,10,0,0,0,871.08,373.38Zm7,8.83a6,6,0,0,0,5-2.34,10.33,10.33,0,0,0,1.83-6.49,12.78,12.78,0,0,0-.62-4.14l-8.49,12.63a4.91,4.91,0,0,0,1.1.27A8.81,8.81,0,0,0,878.05,382.21Z"/><path d="M918.14,355.58a23.83,23.83,0,0,1,7.14,1,18.77,18.77,0,0,1,5.41,2.59,8.36,8.36,0,0,1,2.18,2.13,5.34,5.34,0,0,1,.79,3v24.15a13.51,13.51,0,0,1-1.38,6.31,12.65,12.65,0,0,1-3.76,4.42,16.07,16.07,0,0,1-5.59,2.59,27.49,27.49,0,0,1-6.86.83c-4.19,0-7.48-.57-9.87-1.69a6.06,6.06,0,0,1-2.93-8.28,5.39,5.39,0,0,1,1.48-1.83,23.69,23.69,0,0,0,4.52,1.86,17.8,17.8,0,0,0,5.21.76,12.19,12.19,0,0,0,5.93-1.24,4.27,4.27,0,0,0,2.21-4v-1.1a17.13,17.13,0,0,1-6.9,1.24,18.55,18.55,0,0,1-5.9-.93,13.21,13.21,0,0,1-4.9-2.9,14.22,14.22,0,0,1-3.38-5.07,19.37,19.37,0,0,1-1.28-7.38,18.25,18.25,0,0,1,1.35-7.32,14,14,0,0,1,3.73-5.14,15.68,15.68,0,0,1,5.65-3A24.33,24.33,0,0,1,918.14,355.58Zm4.27,10A6.89,6.89,0,0,0,921,365a8.38,8.38,0,0,0-2.31-.28,6.44,6.44,0,0,0-5.07,1.9,7.88,7.88,0,0,0-1.69,5.42q0,4,1.69,5.76a5.71,5.71,0,0,0,4.31,1.76,7,7,0,0,0,4.48-1.31Z"/><path d="M958.64,391.25a24.15,24.15,0,0,1-7.56-1.14A17.31,17.31,0,0,1,945,386.7a15.8,15.8,0,0,1-4.07-5.73,20.28,20.28,0,0,1-1.49-8.07,18.83,18.83,0,0,1,1.49-7.83,15.12,15.12,0,0,1,9.42-8.49,20.44,20.44,0,0,1,6.34-1,19.3,19.3,0,0,1,6.66,1.1,16,16,0,0,1,5.18,3,13.61,13.61,0,0,1,3.38,4.62,14.24,14.24,0,0,1,1.21,5.87,4.7,4.7,0,0,1-1.31,3.58,6.58,6.58,0,0,1-3.66,1.59l-17,2.55a5.72,5.72,0,0,0,3.1,3.42,12.16,12.16,0,0,0,5.38,1.14,19,19,0,0,0,5.35-.73,16.7,16.7,0,0,0,4.11-1.69,5.94,5.94,0,0,1,1.86,1.93,5,5,0,0,1,.76,2.63,4.92,4.92,0,0,1-2.9,4.62,15.51,15.51,0,0,1-5,1.59A35.72,35.72,0,0,1,958.64,391.25Zm-1.94-27.12a6.82,6.82,0,0,0-2.86.56,5.82,5.82,0,0,0-2,1.41,6,6,0,0,0-1.13,1.93,7.57,7.57,0,0,0-.45,2.18l11.8-1.94a5.26,5.26,0,0,0-1.52-2.76A5.08,5.08,0,0,0,956.7,364.13Z"/><path d="M990.52,390.08a16.57,16.57,0,0,1-2.18.41,21.87,21.87,0,0,1-3.07.21,15.91,15.91,0,0,1-2.72-.21,4.58,4.58,0,0,1-2-.83,3.94,3.94,0,0,1-1.28-1.69,7.26,7.26,0,0,1-.45-2.79v-20.7a5.91,5.91,0,0,1,.59-2.73,6.46,6.46,0,0,1,1.69-2,12.16,12.16,0,0,1,2.73-1.62,27.32,27.32,0,0,1,3.48-1.28,28,28,0,0,1,3.87-.86,25.57,25.57,0,0,1,4-.31,9.41,9.41,0,0,1,5.24,1.27,4.64,4.64,0,0,1,1.93,4.18,6.87,6.87,0,0,1-.27,1.9,9.62,9.62,0,0,1-.69,1.69c-1,0-2,0-3,.13s-2,.23-3,.42-1.87.38-2.72.58a11.67,11.67,0,0,0-2.17.73Z"/><path d="M296.1,432.11a6.09,6.09,0,0,1,1.76-4.42,6.95,6.95,0,0,1,9.31,0,6.42,6.42,0,0,1,0,8.83,6.92,6.92,0,0,1-9.31,0A6,6,0,0,1,296.1,432.11Zm12.28,42.78-2.24.38a18.77,18.77,0,0,1-3,.24,16,16,0,0,1-2.73-.21,4.59,4.59,0,0,1-2-.83,3.87,3.87,0,0,1-1.28-1.69,7.26,7.26,0,0,1-.45-2.79V441.91c.51-.1,1.25-.22,2.24-.38a18.8,18.8,0,0,1,3-.24,16,16,0,0,1,2.72.2,4.8,4.8,0,0,1,2,.83,4,4,0,0,1,1.27,1.69,7.3,7.3,0,0,1,.45,2.79Z"/><path d="M337.08,453.71a3.85,3.85,0,0,0-1.2-3.14,5,5,0,0,0-3.28-1,11,11,0,0,0-2.73.34,7,7,0,0,0-2.31,1v23.94a16,16,0,0,1-2.17.41,21.87,21.87,0,0,1-3.07.21,16.12,16.12,0,0,1-2.73-.21,4.59,4.59,0,0,1-2-.83,3.94,3.94,0,0,1-1.28-1.69,7.26,7.26,0,0,1-.45-2.79v-20.7a5.34,5.34,0,0,1,.8-3,8.5,8.5,0,0,1,2.17-2.14,19.81,19.81,0,0,1,5.9-2.69,28.2,28.2,0,0,1,7.9-1q7.8,0,12,3.41a11.57,11.57,0,0,1,4.21,9.49v21.6a16.57,16.57,0,0,1-2.18.41,21.87,21.87,0,0,1-3.07.21,15.91,15.91,0,0,1-2.72-.21,4.58,4.58,0,0,1-2-.83,3.94,3.94,0,0,1-1.28-1.69,7.26,7.26,0,0,1-.45-2.79Z"/><path d="M354.61,458.19a20.63,20.63,0,0,1,1.38-7.9,15.1,15.1,0,0,1,3.83-5.55,15.53,15.53,0,0,1,5.73-3.28,22.72,22.72,0,0,1,7.07-1.07,14.87,14.87,0,0,1,2.69.24,10.69,10.69,0,0,1,2.14.59V430a18.21,18.21,0,0,1,2.21-.45,19.75,19.75,0,0,1,3.1-.24,17.29,17.29,0,0,1,2.73.2,4.71,4.71,0,0,1,2,.83,3.78,3.78,0,0,1,1.25,1.69,8.08,8.08,0,0,1,.41,2.8v32.7a5.88,5.88,0,0,1-3,5.18,21.29,21.29,0,0,1-5.17,2.31,26.94,26.94,0,0,1-15.35-.24,16.41,16.41,0,0,1-6-3.59,15.44,15.44,0,0,1-3.72-5.62A20.15,20.15,0,0,1,354.61,458.19Zm19.6-8.62a7.47,7.47,0,0,0-5.73,2.13c-1.34,1.43-2,3.59-2,6.49s.62,5,1.86,6.45a6.7,6.7,0,0,0,5.38,2.18,6.4,6.4,0,0,0,2.25-.38,5.18,5.18,0,0,0,1.55-.87V450.39A6.35,6.35,0,0,0,374.21,449.57Z"/><path d="M414.23,476.06a24.15,24.15,0,0,1-7.56-1.14,17.07,17.07,0,0,1-6.07-3.41,15.8,15.8,0,0,1-4.07-5.73,20.28,20.28,0,0,1-1.49-8.07,18.83,18.83,0,0,1,1.49-7.83,15.12,15.12,0,0,1,9.42-8.49,20.44,20.44,0,0,1,6.34-1,19.3,19.3,0,0,1,6.66,1.1,16.11,16.11,0,0,1,5.18,3,13.61,13.61,0,0,1,3.38,4.62,14.27,14.27,0,0,1,1.21,5.87,4.7,4.7,0,0,1-1.31,3.58,6.58,6.58,0,0,1-3.66,1.59l-17.05,2.55a5.77,5.77,0,0,0,3.11,3.42,12.16,12.16,0,0,0,5.38,1.14,19,19,0,0,0,5.35-.73,16.7,16.7,0,0,0,4.11-1.69,5.88,5.88,0,0,1,1.86,1.94,5,5,0,0,1,.76,2.62,4.92,4.92,0,0,1-2.9,4.62,15.51,15.51,0,0,1-5,1.59A35.72,35.72,0,0,1,414.23,476.06Zm-1.94-27.12a6.82,6.82,0,0,0-2.86.56,5.86,5.86,0,0,0-2,1.41,6,6,0,0,0-1.13,1.93,7.57,7.57,0,0,0-.45,2.18l11.8-1.94a5.3,5.3,0,0,0-1.52-2.76A5.11,5.11,0,0,0,412.29,448.94Z"/><path d="M455.63,453.71a3.85,3.85,0,0,0-1.21-3.14,5,5,0,0,0-3.28-1,10.84,10.84,0,0,0-2.72.34,7,7,0,0,0-2.32,1v23.94a16,16,0,0,1-2.17.41,21.87,21.87,0,0,1-3.07.21,16.12,16.12,0,0,1-2.73-.21,4.59,4.59,0,0,1-2-.83,3.94,3.94,0,0,1-1.28-1.69,7.26,7.26,0,0,1-.45-2.79v-20.7a5.34,5.34,0,0,1,.8-3,8.5,8.5,0,0,1,2.17-2.14,19.81,19.81,0,0,1,5.9-2.69,28.2,28.2,0,0,1,7.9-1q7.8,0,12,3.41a11.57,11.57,0,0,1,4.21,9.49v21.6a16.24,16.24,0,0,1-2.18.41,21.87,21.87,0,0,1-3.07.21,15.91,15.91,0,0,1-2.72-.21,4.58,4.58,0,0,1-2-.83,3.94,3.94,0,0,1-1.28-1.69,7.48,7.48,0,0,1-.44-2.79Z"/><path d="M500.13,463.43a2.85,2.85,0,0,0,1.14,2.56,5.81,5.81,0,0,0,3.21.76,13.34,13.34,0,0,0,2.14-.18,11,11,0,0,0,1.93-.45,8.59,8.59,0,0,1,1.07,1.7,5.08,5.08,0,0,1,.45,2.24,5.35,5.35,0,0,1-2,4.28q-2,1.65-6.94,1.65-6.06,0-9.34-2.76t-3.28-9V434.73c.5-.14,1.23-.29,2.17-.45a17.88,17.88,0,0,1,3-.24,8.86,8.86,0,0,1,4.73,1.07q1.69,1.06,1.69,4.52V444h9a11.36,11.36,0,0,1,.79,1.9,8,8,0,0,1,.38,2.52,4.78,4.78,0,0,1-1.07,3.49,3.86,3.86,0,0,1-2.86,1.06h-6.28Z"/><path d="M515.72,432.11a6.09,6.09,0,0,1,1.76-4.42,7,7,0,0,1,9.32,0,6.42,6.42,0,0,1,0,8.83,6.93,6.93,0,0,1-9.32,0A6,6,0,0,1,515.72,432.11ZM528,474.89l-2.25.38a18.77,18.77,0,0,1-3,.24,15.91,15.91,0,0,1-2.72-.21,4.58,4.58,0,0,1-2-.83,3.94,3.94,0,0,1-1.28-1.69,7.28,7.28,0,0,1-.44-2.79V441.91c.5-.1,1.25-.22,2.24-.38a18.77,18.77,0,0,1,3-.24,16.18,16.18,0,0,1,2.73.2,4.71,4.71,0,0,1,2,.83,4,4,0,0,1,1.28,1.69,7.3,7.3,0,0,1,.45,2.79Z"/><path d="M534,458.19a20.63,20.63,0,0,1,1.38-7.9,15,15,0,0,1,3.83-5.55,15.53,15.53,0,0,1,5.73-3.28,22.72,22.72,0,0,1,7.07-1.07,15,15,0,0,1,2.69.24,10.69,10.69,0,0,1,2.14.59V430a17.8,17.8,0,0,1,2.21-.45,19.75,19.75,0,0,1,3.1-.24,17.29,17.29,0,0,1,2.73.2,4.71,4.71,0,0,1,2,.83,3.76,3.76,0,0,1,1.24,1.69,7.83,7.83,0,0,1,.42,2.8v32.7a5.88,5.88,0,0,1-3,5.18,21.29,21.29,0,0,1-5.17,2.31,27,27,0,0,1-15.36-.24,16.37,16.37,0,0,1-6-3.59,15.59,15.59,0,0,1-3.73-5.62A20.37,20.37,0,0,1,534,458.19Zm19.6-8.62a7.47,7.47,0,0,0-5.73,2.13c-1.34,1.43-2,3.59-2,6.49s.62,5,1.86,6.45a6.7,6.7,0,0,0,5.38,2.18,6.3,6.3,0,0,0,2.24-.38,5.12,5.12,0,0,0,1.56-.87V450.39A6.35,6.35,0,0,0,553.61,449.57Z"/><path d="M593.62,476.06a24.14,24.14,0,0,1-7.55-1.14,17.07,17.07,0,0,1-6.07-3.41,15.68,15.68,0,0,1-4.07-5.73,20.28,20.28,0,0,1-1.49-8.07,18.83,18.83,0,0,1,1.49-7.83,15.29,15.29,0,0,1,3.9-5.39,15.53,15.53,0,0,1,5.51-3.1,20.51,20.51,0,0,1,6.35-1,19.3,19.3,0,0,1,6.66,1.1,16.11,16.11,0,0,1,5.18,3,13.61,13.61,0,0,1,3.38,4.62,14.27,14.27,0,0,1,1.2,5.87,4.66,4.66,0,0,1-1.31,3.58,6.52,6.52,0,0,1-3.65,1.59l-17,2.55a5.74,5.74,0,0,0,3.11,3.42,12.16,12.16,0,0,0,5.38,1.14,19,19,0,0,0,5.35-.73,16.45,16.45,0,0,0,4.1-1.69,5.8,5.8,0,0,1,1.87,1.94,5,5,0,0,1,.76,2.62,4.92,4.92,0,0,1-2.9,4.62,15.59,15.59,0,0,1-5,1.59A35.86,35.86,0,0,1,593.62,476.06Zm-1.93-27.12a6.79,6.79,0,0,0-2.86.56,5.86,5.86,0,0,0-2,1.41,6.19,6.19,0,0,0-1.14,1.93,7.9,7.9,0,0,0-.44,2.18l11.8-1.94a5.3,5.3,0,0,0-1.52-2.76A5.11,5.11,0,0,0,591.69,448.94Z"/><path d="M635,453.71a3.85,3.85,0,0,0-1.2-3.14,5,5,0,0,0-3.28-1,11,11,0,0,0-2.73.34,7,7,0,0,0-2.31,1v23.94a16,16,0,0,1-2.17.41,21.87,21.87,0,0,1-3.07.21,16.12,16.12,0,0,1-2.73-.21,4.59,4.59,0,0,1-2-.83,3.94,3.94,0,0,1-1.28-1.69,7.26,7.26,0,0,1-.45-2.79v-20.7a5.34,5.34,0,0,1,.8-3,8.34,8.34,0,0,1,2.17-2.14,19.81,19.81,0,0,1,5.9-2.69,28.2,28.2,0,0,1,7.9-1q7.8,0,12,3.41a11.56,11.56,0,0,1,4.2,9.49v21.6a16,16,0,0,1-2.17.41,21.87,21.87,0,0,1-3.07.21,16.12,16.12,0,0,1-2.73-.21,4.59,4.59,0,0,1-2-.83,3.94,3.94,0,0,1-1.28-1.69A7.26,7.26,0,0,1,635,470Z"/><path d="M679.74,474.89l-2.25.38a18.77,18.77,0,0,1-3,.24,15.91,15.91,0,0,1-2.72-.21,4.58,4.58,0,0,1-2-.83,3.94,3.94,0,0,1-1.28-1.69A7.28,7.28,0,0,1,668,470V430l2.24-.38a18.77,18.77,0,0,1,3-.24,17.29,17.29,0,0,1,2.73.2,4.71,4.71,0,0,1,2,.83,4.07,4.07,0,0,1,1.28,1.69,7.35,7.35,0,0,1,.45,2.8Z"/><path d="M721.83,458.19a20.63,20.63,0,0,1-1.32,7.62,15.33,15.33,0,0,1-3.69,5.63,15.56,15.56,0,0,1-5.69,3.45,23.68,23.68,0,0,1-11.35.83,25.21,25.21,0,0,1-3.55-.9l-3,4.35a4.59,4.59,0,0,1-1.48-.28,6,6,0,0,1-1.49-.76,5.1,5.1,0,0,1-1.14-1.07,2,2,0,0,1-.45-1.21,3.4,3.4,0,0,1,.56-1.51l1.79-2.63a14.54,14.54,0,0,1-4-5.72,20.85,20.85,0,0,1-1.38-7.8,20,20,0,0,1,1.31-7.38,15.84,15.84,0,0,1,3.69-5.63,16.37,16.37,0,0,1,5.69-3.55,20.87,20.87,0,0,1,7.39-1.24,20.64,20.64,0,0,1,7.59,1.38l3-4.56a4.68,4.68,0,0,1,1.42.25,5.71,5.71,0,0,1,1.48.69,4.77,4.77,0,0,1,1.17,1.06,2.1,2.1,0,0,1,.49,1.32,2.62,2.62,0,0,1-.49,1.44l-2,2.9a16.19,16.19,0,0,1,4,5.73A19.52,19.52,0,0,1,721.83,458.19Zm-25,0a12.34,12.34,0,0,0,.62,4.21L706,449.77a8,8,0,0,0-2.27-.34,6.13,6.13,0,0,0-5,2.31A10,10,0,0,0,696.85,458.19Zm7,8.83a6,6,0,0,0,5-2.34,10.33,10.33,0,0,0,1.83-6.49,12.78,12.78,0,0,0-.62-4.14l-8.49,12.63a4.42,4.42,0,0,0,1.1.27A8.81,8.81,0,0,0,703.82,467Z"/><path d="M727.69,430a18.21,18.21,0,0,1,2.21-.45,19.85,19.85,0,0,1,3.1-.24,17.29,17.29,0,0,1,2.73.2,4.71,4.71,0,0,1,2,.83,3.78,3.78,0,0,1,1.25,1.69,8.08,8.08,0,0,1,.41,2.8v6.76a17.14,17.14,0,0,1,3.28-1,19.9,19.9,0,0,1,3.41-.27,17,17,0,0,1,6.28,1.17,15.48,15.48,0,0,1,5.25,3.42,15.69,15.69,0,0,1,3.58,5.55,20.59,20.59,0,0,1,1.32,7.66,20.84,20.84,0,0,1-1.35,7.83,15.07,15.07,0,0,1-3.76,5.56,16,16,0,0,1-5.9,3.34,27.45,27.45,0,0,1-15.42.07,20,20,0,0,1-5.38-2.66,6.46,6.46,0,0,1-3-5.51Zm16.15,36.78a6,6,0,0,0,4.93-2.18q1.76-2.17,1.76-6.45t-1.79-6.49a6,6,0,0,0-4.83-2.13,9.18,9.18,0,0,0-2.38.27,14,14,0,0,0-2.18.83v15a7,7,0,0,0,1.83.79A9.53,9.53,0,0,0,743.84,466.82Z"/><path d="M786,476.06a24.14,24.14,0,0,1-7.55-1.14,17.07,17.07,0,0,1-6.07-3.41,15.68,15.68,0,0,1-4.07-5.73,20.28,20.28,0,0,1-1.49-8.07,18.83,18.83,0,0,1,1.49-7.83,15.29,15.29,0,0,1,3.9-5.39,15.53,15.53,0,0,1,5.51-3.1,20.51,20.51,0,0,1,6.35-1,19.3,19.3,0,0,1,6.66,1.1,16.11,16.11,0,0,1,5.18,3,13.61,13.61,0,0,1,3.38,4.62,14.27,14.27,0,0,1,1.2,5.87,4.66,4.66,0,0,1-1.31,3.58,6.52,6.52,0,0,1-3.65,1.59l-17,2.55a5.74,5.74,0,0,0,3.11,3.42A12.16,12.16,0,0,0,787,467.3a19,19,0,0,0,5.35-.73,16.45,16.45,0,0,0,4.1-1.69,5.8,5.8,0,0,1,1.87,1.94,5,5,0,0,1,.76,2.62,4.92,4.92,0,0,1-2.9,4.62,15.59,15.59,0,0,1-5,1.59A35.86,35.86,0,0,1,786,476.06Zm-1.93-27.12a6.79,6.79,0,0,0-2.86.56,5.86,5.86,0,0,0-2,1.41,6.19,6.19,0,0,0-1.14,1.93,7.9,7.9,0,0,0-.44,2.18l11.8-1.94a5.3,5.3,0,0,0-1.52-2.76A5.11,5.11,0,0,0,784.06,448.94Z"/><path d="M817.87,474.89a16,16,0,0,1-2.17.41,21.87,21.87,0,0,1-3.07.21,16.12,16.12,0,0,1-2.73-.21,4.59,4.59,0,0,1-2-.83,3.94,3.94,0,0,1-1.28-1.69,7.26,7.26,0,0,1-.45-2.79v-20.7a5.91,5.91,0,0,1,.59-2.73,6.33,6.33,0,0,1,1.69-2,11.93,11.93,0,0,1,2.73-1.62,27.32,27.32,0,0,1,3.48-1.28,28.13,28.13,0,0,1,3.86-.86,25.79,25.79,0,0,1,4-.31,9.43,9.43,0,0,1,5.24,1.27,4.64,4.64,0,0,1,1.93,4.18,6.87,6.87,0,0,1-.27,1.9,9.62,9.62,0,0,1-.69,1.69c-1,0-2,0-3,.13s-2,.24-3,.42-1.87.38-2.72.58a11.79,11.79,0,0,0-2.18.73Z"/><path d="M848.3,441.91a15.9,15.9,0,0,1,2.18-.42,21.79,21.79,0,0,1,3.07-.2,16,16,0,0,1,2.72.2,4.75,4.75,0,0,1,2,.83,4,4,0,0,1,1.27,1.69,7.3,7.3,0,0,1,.45,2.79v14.84a5.14,5.14,0,0,0,1.38,4,5.92,5.92,0,0,0,4,1.2,10.22,10.22,0,0,0,2.59-.27,9.41,9.41,0,0,0,1.55-.55V441.91a15.9,15.9,0,0,1,2.18-.42,21.89,21.89,0,0,1,3.07-.2,16,16,0,0,1,2.72.2,4.7,4.7,0,0,1,2,.83,3.91,3.91,0,0,1,1.27,1.69,7.3,7.3,0,0,1,.45,2.79v21a5.64,5.64,0,0,1-2.89,5.18,19,19,0,0,1-5.77,2.31,31.42,31.42,0,0,1-7.28.79,26.49,26.49,0,0,1-6.86-.83,15.36,15.36,0,0,1-5.42-2.55,11.39,11.39,0,0,1-3.52-4.45,16,16,0,0,1-1.24-6.59Z"/><path d="M887,458.19a20.63,20.63,0,0,1,1.38-7.9,15,15,0,0,1,3.83-5.55,15.53,15.53,0,0,1,5.73-3.28,22.72,22.72,0,0,1,7.07-1.07,15,15,0,0,1,2.69.24,10.69,10.69,0,0,1,2.14.59V430a17.8,17.8,0,0,1,2.21-.45,19.75,19.75,0,0,1,3.1-.24,17.29,17.29,0,0,1,2.73.2,4.71,4.71,0,0,1,2,.83,3.76,3.76,0,0,1,1.24,1.69,7.83,7.83,0,0,1,.42,2.8v32.7a5.88,5.88,0,0,1-3,5.18,21.29,21.29,0,0,1-5.17,2.31,27,27,0,0,1-15.36-.24,16.37,16.37,0,0,1-6-3.59,15.59,15.59,0,0,1-3.73-5.62A20.37,20.37,0,0,1,887,458.19Zm19.6-8.62a7.47,7.47,0,0,0-5.73,2.13c-1.34,1.43-2,3.59-2,6.49s.62,5,1.86,6.45a6.7,6.7,0,0,0,5.38,2.18,6.3,6.3,0,0,0,2.24-.38,5.12,5.12,0,0,0,1.56-.87V450.39A6.35,6.35,0,0,0,906.61,449.57Z"/><path d="M926.82,469.37a6.82,6.82,0,0,1,1.8-4.83,7.17,7.17,0,0,1,9.79,0,7.38,7.38,0,0,1,0,9.66,7.17,7.17,0,0,1-9.79,0A6.82,6.82,0,0,1,926.82,469.37Z"/></g></svg>
