<svg xmlns="http://www.w3.org/2000/svg" width="980" height="660" viewBox="0 0 980 660"><defs><style>.cls-1{fill:#fcfcfc;}</style></defs><title>game over firkant</title><g id="øv_bøv" data-name="øv bøv"><rect x="3" y="2.5" width="974" height="655" rx="67.25"/><rect class="cls-1" x="24" y="24.69" width="908" height="610.62" rx="62.69"/><path d="M201.59,178.63A38.5,38.5,0,0,1,204.18,164a29.54,29.54,0,0,1,17.71-17.17,38.24,38.24,0,0,1,13.19-2.23,37.45,37.45,0,0,1,12.09,1.91l4.45-7.42a11.76,11.76,0,0,1,6.89,1.86c1.76,1.23,2.65,2.67,2.65,4.29a8.84,8.84,0,0,1-.9,3.66,29.18,29.18,0,0,1-2.07,3.76,31.78,31.78,0,0,1,7.69,10.92,37.56,37.56,0,0,1,2.8,15,39.49,39.49,0,0,1-2.54,14.68A29.56,29.56,0,0,1,259.09,204a30.15,30.15,0,0,1-10.65,6.52,41.26,41.26,0,0,1-25.76.31l-4.35,7.32a11.44,11.44,0,0,1-7-1.91,5.58,5.58,0,0,1-2.55-4.56,8.72,8.72,0,0,1,.91-3.5,37.83,37.83,0,0,1,2-3.81,30.56,30.56,0,0,1-7.42-10.87A38.66,38.66,0,0,1,201.59,178.63Zm18.55,0a33.69,33.69,0,0,0,.42,5.57,22.89,22.89,0,0,0,1.27,4.61l17.28-28.73a16.39,16.39,0,0,0-3.92-.53,13.81,13.81,0,0,0-10.81,4.77Q220.14,169.09,220.14,178.63Zm14.94,19.19A13.78,13.78,0,0,0,246,193.05q4.19-4.77,4.18-14.42a32,32,0,0,0-.42-5.41,22.86,22.86,0,0,0-1.27-4.55l-17.39,28.72A16.42,16.42,0,0,0,235.08,197.82Z"/><path d="M276.1,178.63A38.5,38.5,0,0,1,278.7,164a29.49,29.49,0,0,1,17.7-17.17,38.3,38.3,0,0,1,13.2-2.23,37.35,37.35,0,0,1,12.08,1.91l4.46-7.42A11.76,11.76,0,0,1,333,141c1.76,1.23,2.65,2.67,2.65,4.29a8.87,8.87,0,0,1-.91,3.66,30.38,30.38,0,0,1-2.06,3.76,31.62,31.62,0,0,1,7.68,10.92,37.56,37.56,0,0,1,2.81,15,39.69,39.69,0,0,1-2.54,14.68A29.69,29.69,0,0,1,333.61,204,30.32,30.32,0,0,1,323,210.54a41.26,41.26,0,0,1-25.76.31l-4.35,7.32a11.4,11.4,0,0,1-7-1.91,5.58,5.58,0,0,1-2.55-4.56,8.86,8.86,0,0,1,.9-3.5,40,40,0,0,1,2-3.81,30.69,30.69,0,0,1-7.42-10.87A38.85,38.85,0,0,1,276.1,178.63Zm18.55,0a32.58,32.58,0,0,0,.43,5.57,22.25,22.25,0,0,0,1.27,4.61l17.28-28.73a16.45,16.45,0,0,0-3.92-.53,13.83,13.83,0,0,0-10.82,4.77Q294.66,169.09,294.65,178.63Zm15,19.19a13.77,13.77,0,0,0,10.86-4.77q4.19-4.77,4.19-14.42a32,32,0,0,0-.42-5.41,23.55,23.55,0,0,0-1.27-4.55l-17.39,28.72A16.37,16.37,0,0,0,309.6,197.82Z"/><path d="M350.62,178.63a38.31,38.31,0,0,1,2.6-14.63,29.49,29.49,0,0,1,17.7-17.17,38.26,38.26,0,0,1,13.2-2.23,37.39,37.39,0,0,1,12.08,1.91l4.45-7.42a11.72,11.72,0,0,1,6.89,1.86c1.77,1.23,2.65,2.67,2.65,4.29a8.84,8.84,0,0,1-.9,3.66,29.18,29.18,0,0,1-2.07,3.76,31.65,31.65,0,0,1,7.69,10.92,37.56,37.56,0,0,1,2.81,15,39.48,39.48,0,0,1-2.55,14.68A29.43,29.43,0,0,1,408.12,204a30.15,30.15,0,0,1-10.65,6.52,41.26,41.26,0,0,1-25.76.31l-4.34,7.32a11.45,11.45,0,0,1-7-1.91,5.59,5.59,0,0,1-2.54-4.56,8.86,8.86,0,0,1,.9-3.5,37.83,37.83,0,0,1,2-3.81,30.69,30.69,0,0,1-7.42-10.87A38.66,38.66,0,0,1,350.62,178.63Zm18.55,0a33.69,33.69,0,0,0,.42,5.57,22.89,22.89,0,0,0,1.28,4.61l17.27-28.73a16.39,16.39,0,0,0-3.92-.53,13.83,13.83,0,0,0-10.81,4.77Q369.17,169.09,369.17,178.63Zm14.95,19.19A13.77,13.77,0,0,0,395,193.05q4.18-4.77,4.19-14.42a31,31,0,0,0-.43-5.41,22.21,22.21,0,0,0-1.27-4.55l-17.38,28.72A16.37,16.37,0,0,0,384.12,197.82Z"/><path d="M465.21,208.73a13.14,13.14,0,0,1-4.62,2.23,23.16,23.16,0,0,1-6.83.95,19.94,19.94,0,0,1-7.64-1.32,8,8,0,0,1-4.34-3.66q-1.17-2.43-2.86-6.3T435.37,192q-1.86-4.77-3.82-10.13c-1.31-3.56-2.56-7.19-3.76-10.86s-2.33-7.28-3.4-10.81-2-6.86-2.75-10a13.78,13.78,0,0,1,4.29-2.7,14.92,14.92,0,0,1,6-1.22,11.48,11.48,0,0,1,6.41,1.64q2.49,1.65,3.66,6.1,2.86,10.38,5.78,19.87t6.09,19.77h.64q2.87-10,5.88-21.73t5.78-23.42a23.69,23.69,0,0,1,4.08-1.59,17.33,17.33,0,0,1,4.93-.64,12.2,12.2,0,0,1,6.68,1.75c1.83,1.17,2.75,3.09,2.75,5.78a30.65,30.65,0,0,1-1.11,6.78q-1.11,4.45-2.86,10t-3.92,11.6q-2.18,6-4.35,11.4t-4.08,9.43A37.52,37.52,0,0,1,465.21,208.73Z"/><path d="M533.68,208.73a13.08,13.08,0,0,1-4.61,2.23,23.27,23.27,0,0,1-6.84.95,19.85,19.85,0,0,1-7.63-1.32,8,8,0,0,1-4.35-3.66q-1.17-2.43-2.86-6.3T503.84,192Q502,187.22,500,181.86c-1.3-3.56-2.56-7.19-3.76-10.86s-2.33-7.28-3.39-10.81-2-6.86-2.76-10a13.72,13.72,0,0,1,4.3-2.7,14.92,14.92,0,0,1,6-1.22,11.48,11.48,0,0,1,6.41,1.64q2.49,1.65,3.66,6.1,2.85,10.38,5.77,19.87t6.1,19.77H523q2.87-10,5.89-21.73t5.77-23.42a24.34,24.34,0,0,1,4.08-1.59,17.33,17.33,0,0,1,4.93-.64,12.18,12.18,0,0,1,6.68,1.75c1.84,1.17,2.76,3.09,2.76,5.78a30.2,30.2,0,0,1-1.12,6.78q-1.11,4.45-2.86,10t-3.92,11.6q-2.17,6-4.35,11.4t-4.08,9.43A36.63,36.63,0,0,1,533.68,208.73Z"/><path d="M608.51,212.55c-1.2,0-2.61,0-4.24-.11s-3.3-.21-5-.42-3.45-.48-5.14-.79a24.82,24.82,0,0,1-4.67-1.33q-5.82-2.22-5.83-7.74v-49.5a4.66,4.66,0,0,1,1.22-3.44,8.7,8.7,0,0,1,3.34-2,41.15,41.15,0,0,1,9-1.85,103.6,103.6,0,0,1,11.13-.58q13.58,0,20.88,4.55t7.32,14.1a12.75,12.75,0,0,1-2.76,8.22,15.79,15.79,0,0,1-7.42,5,18.34,18.34,0,0,1,8.85,5.41,14.11,14.11,0,0,1,3.55,9.86q0,10.48-7.79,15.53T608.51,212.55Zm-6.89-40.81h7.74c3,0,5.25-.56,6.63-1.7a6,6,0,0,0,2.06-5,5.33,5.33,0,0,0-2.38-4.56c-1.59-1.12-4-1.69-7.16-1.69-1.06,0-2.27,0-3.65.1a29.24,29.24,0,0,0-3.24.32Zm0,25.86a18.65,18.65,0,0,0,3.82.59c1.55.1,3,.16,4.45.16a13.16,13.16,0,0,0,7.05-1.75,6,6,0,0,0,2.81-5.46q0-3.49-2.33-5c-1.56-1-3.92-1.49-7.1-1.49h-8.7Z"/><path d="M646,178.63A38.5,38.5,0,0,1,648.63,164a29.56,29.56,0,0,1,17.7-17.17,38.34,38.34,0,0,1,13.2-2.23,37.45,37.45,0,0,1,12.09,1.91l4.45-7.42A11.76,11.76,0,0,1,703,141c1.76,1.23,2.65,2.67,2.65,4.29a8.84,8.84,0,0,1-.9,3.66,29.18,29.18,0,0,1-2.07,3.76,31.78,31.78,0,0,1,7.69,10.92,37.56,37.56,0,0,1,2.8,15,39.49,39.49,0,0,1-2.54,14.68A29.69,29.69,0,0,1,703.54,204a30.15,30.15,0,0,1-10.65,6.52,41.26,41.26,0,0,1-25.76.31l-4.35,7.32a11.42,11.42,0,0,1-7-1.91,5.58,5.58,0,0,1-2.55-4.56,8.72,8.72,0,0,1,.91-3.5,37.83,37.83,0,0,1,2-3.81,30.56,30.56,0,0,1-7.42-10.87A38.66,38.66,0,0,1,646,178.63Zm18.55,0a33.69,33.69,0,0,0,.42,5.57,22.89,22.89,0,0,0,1.27,4.61l17.28-28.73a16.39,16.39,0,0,0-3.92-.53,13.81,13.81,0,0,0-10.81,4.77Q664.59,169.09,664.59,178.63Zm14.94,19.19a13.81,13.81,0,0,0,10.87-4.77q4.19-4.77,4.18-14.42a32,32,0,0,0-.42-5.41,22.86,22.86,0,0,0-1.27-4.55L675.5,197.39A16.42,16.42,0,0,0,679.53,197.82Z"/><path d="M760.62,208.73A13.08,13.08,0,0,1,756,211a23.22,23.22,0,0,1-6.84.95,19.89,19.89,0,0,1-7.63-1.32,7.94,7.94,0,0,1-4.34-3.66q-1.17-2.43-2.87-6.3T730.78,192q-1.86-4.77-3.81-10.13c-1.31-3.56-2.57-7.19-3.77-10.86s-2.33-7.28-3.39-10.81-2-6.86-2.76-10a13.72,13.72,0,0,1,4.3-2.7,14.92,14.92,0,0,1,6-1.22,11.48,11.48,0,0,1,6.41,1.64q2.49,1.65,3.66,6.1,2.85,10.38,5.77,19.87t6.1,19.77h.64q2.85-10,5.88-21.73t5.78-23.42a23.69,23.69,0,0,1,4.08-1.59,17.26,17.26,0,0,1,4.92-.64,12.18,12.18,0,0,1,6.68,1.75c1.84,1.17,2.76,3.09,2.76,5.78a30.65,30.65,0,0,1-1.11,6.78q-1.12,4.45-2.87,10t-3.92,11.6q-2.18,6-4.34,11.4t-4.08,9.43A37.34,37.34,0,0,1,760.62,208.73Z"/><path d="M159.79,363.05c-.78,0-1.68,0-2.69-.07s-2.06-.14-3.14-.28-2.16-.31-3.24-.52a15.67,15.67,0,0,1-3-.86q-3.79-1.44-3.8-5V324.06a3,3,0,0,1,.8-2.24,5.55,5.55,0,0,1,2.17-1.28,28.78,28.78,0,0,1,6.28-1.27c2.21-.21,4.18-.31,5.93-.31a33.87,33.87,0,0,1,9.77,1.31,20.17,20.17,0,0,1,7.52,4,18.25,18.25,0,0,1,4.86,6.87A25.39,25.39,0,0,1,183,341a25.66,25.66,0,0,1-1.66,9.62,18.44,18.44,0,0,1-4.73,6.9,19.75,19.75,0,0,1-7.34,4.18A30.75,30.75,0,0,1,159.79,363.05ZM155.93,353c.5.1,1.12.17,1.86.24s1.43.11,2.07.11a12.94,12.94,0,0,0,4.31-.69,8.64,8.64,0,0,0,3.38-2.14,9.84,9.84,0,0,0,2.21-3.76,17.15,17.15,0,0,0,.8-5.56q0-6.21-2.9-9.35a10,10,0,0,0-7.73-3.14c-.64,0-1.3,0-2,.07s-1.34.12-2,.21Z"/><path d="M226.93,346.49a17.52,17.52,0,0,1-1.28,6.79,14.38,14.38,0,0,1-3.69,5.25,16.58,16.58,0,0,1-5.86,3.34,26.37,26.37,0,0,1-15.6,0,16.58,16.58,0,0,1-5.86-3.34,14.38,14.38,0,0,1-3.69-5.25,17.33,17.33,0,0,1-1.28-6.79V320.13c.5-.09,1.31-.22,2.41-.38a22.31,22.31,0,0,1,3.18-.24,14.36,14.36,0,0,1,2.79.24,5,5,0,0,1,2,.86,3.79,3.79,0,0,1,1.24,1.73,8.28,8.28,0,0,1,.41,2.89v21a7,7,0,0,0,1.83,5.17,7,7,0,0,0,9.49,0,7.16,7.16,0,0,0,1.79-5.17V320.13c.51-.09,1.32-.22,2.42-.38a22.07,22.07,0,0,1,3.17-.24,14.54,14.54,0,0,1,2.8.24,5,5,0,0,1,2,.86,3.72,3.72,0,0,1,1.24,1.73,8.25,8.25,0,0,1,.42,2.89Z"/><path d="M261.63,346.42v15.25a21.24,21.24,0,0,1-2.41.41,25.77,25.77,0,0,1-3.24.21,14.54,14.54,0,0,1-2.8-.24,5,5,0,0,1-2-.87,3.62,3.62,0,0,1-1.24-1.72,8.31,8.31,0,0,1-.42-2.9V320.13c.51-.09,1.31-.22,2.42-.38a22.07,22.07,0,0,1,3.17-.24,14.36,14.36,0,0,1,2.79.24,5,5,0,0,1,2,.86,3.72,3.72,0,0,1,1.24,1.73,8.25,8.25,0,0,1,.42,2.89v11l14.35-16.5q4.69,0,6.73,1.76a5.39,5.39,0,0,1,2,4.18,6.76,6.76,0,0,1-.9,3.38,17.52,17.52,0,0,1-2.89,3.59l-8.63,8.62q1.73,1.93,3.62,4t3.73,4c1.22,1.31,2.39,2.57,3.52,3.76s2.1,2.23,2.93,3.11a6.06,6.06,0,0,1-2,4.69,6.52,6.52,0,0,1-2.11,1.24,8.1,8.1,0,0,1-7.11-1,25.16,25.16,0,0,1-3.45-3.35Z"/><path d="M298.34,362.15a6,6,0,0,1-6.41-6.42V320.06c.5-.09,1.31-.22,2.41-.38a22.07,22.07,0,0,1,3.17-.24,14.54,14.54,0,0,1,2.8.24,5,5,0,0,1,2,.86,3.74,3.74,0,0,1,1.25,1.73,8.54,8.54,0,0,1,.41,2.9v27.25h15.8a9.47,9.47,0,0,1,.9,2,8.69,8.69,0,0,1,.41,2.65q0,2.76-1.17,3.9a4.27,4.27,0,0,1-3.11,1.14Z"/><path d="M336.91,321.37a14.49,14.49,0,0,1,3.55-1.31,19.16,19.16,0,0,1,4.8-.62,17.21,17.21,0,0,1,6.11,1,5.29,5.29,0,0,1,3.41,3.14q1.25,3.59,2.69,8.35t2.9,9.83q1.45,5.07,2.83,10t2.42,8.73a5.68,5.68,0,0,1-2.49,1.56,11.8,11.8,0,0,1-3.93.58,12.34,12.34,0,0,1-2.8-.27,5,5,0,0,1-1.86-.83,4.12,4.12,0,0,1-1.17-1.45,12.61,12.61,0,0,1-.8-2.07l-1.24-4.76H338.84c-.37,1.38-.73,2.8-1.1,4.28s-.74,2.89-1.1,4.27a17.93,17.93,0,0,1-2,.59,12,12,0,0,1-2.59.24,9,9,0,0,1-5.21-1.21,3.87,3.87,0,0,1-1.69-3.34,6.73,6.73,0,0,1,.28-1.93c.18-.65.39-1.41.62-2.28.32-1.24.77-2.78,1.34-4.62s1.21-3.83,1.9-6,1.43-4.34,2.21-6.59l2.21-6.38q1-3,1.9-5.35C336.14,323.4,336.59,322.2,336.91,321.37Zm8.28,8.9c-.64,1.93-1.37,4.08-2.17,6.45s-1.53,4.78-2.18,7.21h8.56q-1-3.72-2-7.28t-1.82-6.38Z"/><path d="M383.28,348.42v13.25a21.7,21.7,0,0,1-2.38.41,25,25,0,0,1-3.21.21,14.36,14.36,0,0,1-2.79-.24,4.74,4.74,0,0,1-2-.87,3.84,3.84,0,0,1-1.2-1.72,8.31,8.31,0,0,1-.42-2.9v-32.5a3,3,0,0,1,.8-2.24,5.55,5.55,0,0,1,2.17-1.28,26.38,26.38,0,0,1,5.45-1.21,55.42,55.42,0,0,1,6.63-.37q9.51,0,14.35,4a13.33,13.33,0,0,1,4.83,10.83,12.1,12.1,0,0,1-2.21,7.31,15.82,15.82,0,0,1-5.25,4.7c1.66,2.25,3.29,4.37,4.9,6.34a41.14,41.14,0,0,1,3.8,5.39,6.49,6.49,0,0,1-2.52,3.69,7,7,0,0,1-4.1,1.27,8.89,8.89,0,0,1-2.63-.34,6.25,6.25,0,0,1-1.93-1,8,8,0,0,1-1.52-1.51,21.88,21.88,0,0,1-1.31-1.94l-5.79-9.31Zm4.35-9.18a6.08,6.08,0,0,0,4.14-1.34,5,5,0,0,0,1.51-4,4.76,4.76,0,0,0-1.69-4c-1.12-.9-2.91-1.34-5.34-1.34-.69,0-1.25,0-1.66.06s-.87.12-1.38.21v10.35Z"/><path d="M413.29,326.54a6,6,0,0,1,6.42-6.41h22.77a8.08,8.08,0,0,1,.86,2,8.69,8.69,0,0,1,.38,2.62,5.06,5.06,0,0,1-1.14,3.73,4.14,4.14,0,0,1-3,1.1H425V336h15.53a8.24,8.24,0,0,1,.86,2,8.72,8.72,0,0,1,.38,2.59,5.2,5.2,0,0,1-1.1,3.73,4,4,0,0,1-3,1.1H425v7.25h17.74a8.08,8.08,0,0,1,.86,2,9,9,0,0,1,.38,2.62,5.17,5.17,0,0,1-1.14,3.76,4.06,4.06,0,0,1-3,1.14H419.71a6,6,0,0,1-6.42-6.42Z"/><path d="M467,363.05c-.79,0-1.69,0-2.7-.07s-2.06-.14-3.14-.28-2.16-.31-3.24-.52a15.67,15.67,0,0,1-3-.86q-3.79-1.44-3.79-5V324.06a3,3,0,0,1,.79-2.24,5.63,5.63,0,0,1,2.17-1.28,28.78,28.78,0,0,1,6.28-1.27q3.31-.31,5.94-.31a33.8,33.8,0,0,1,9.76,1.31,20.1,20.1,0,0,1,7.52,4,18.25,18.25,0,0,1,4.86,6.87,28.66,28.66,0,0,1,.07,19.42,18.54,18.54,0,0,1-4.72,6.9,19.87,19.87,0,0,1-7.35,4.18A30.69,30.69,0,0,1,467,363.05ZM463.11,353c.51.1,1.13.17,1.86.24s1.43.11,2.07.11a13,13,0,0,0,4.32-.69,8.79,8.79,0,0,0,3.38-2.14,10,10,0,0,0,2.21-3.76,17.44,17.44,0,0,0,.79-5.56q0-6.21-2.9-9.35a10,10,0,0,0-7.73-3.14c-.64,0-1.3,0-2,.07s-1.35.12-2,.21Z"/><path d="M497.06,326.54a5.94,5.94,0,0,1,6.42-6.41h22.77a8.47,8.47,0,0,1,.86,2,9,9,0,0,1,.38,2.62,5.06,5.06,0,0,1-1.14,3.73,4.15,4.15,0,0,1-3,1.1H508.79V336h15.52a8.78,8.78,0,0,1,1.25,4.55,5.15,5.15,0,0,1-1.11,3.73,4,4,0,0,1-3,1.1H508.79v7.25h17.73a8.08,8.08,0,0,1,.86,2,8.69,8.69,0,0,1,.38,2.62,5.17,5.17,0,0,1-1.14,3.76,4,4,0,0,1-3,1.14H503.48a6,6,0,0,1-6.42-6.42Z"/><path d="M564.54,363.05c-.78,0-1.68,0-2.69-.07s-2.06-.14-3.14-.28-2.16-.31-3.24-.52a15.57,15.57,0,0,1-3-.86q-3.8-1.44-3.79-5V324.06a3,3,0,0,1,.79-2.24,5.67,5.67,0,0,1,2.18-1.28,28.66,28.66,0,0,1,6.28-1.27q3.3-.31,5.93-.31a33.75,33.75,0,0,1,9.76,1.31,20.1,20.1,0,0,1,7.52,4,18.17,18.17,0,0,1,4.87,6.87,25.4,25.4,0,0,1,1.72,9.8,25.66,25.66,0,0,1-1.65,9.62,18.56,18.56,0,0,1-4.73,6.9,19.87,19.87,0,0,1-7.35,4.18A30.64,30.64,0,0,1,564.54,363.05ZM560.68,353c.5.1,1.12.17,1.86.24s1.42.11,2.07.11a12.94,12.94,0,0,0,4.31-.69,8.71,8.71,0,0,0,3.38-2.14,10,10,0,0,0,2.21-3.76,17.16,17.16,0,0,0,.79-5.56q0-6.21-2.89-9.35a10,10,0,0,0-7.73-3.14c-.65,0-1.3,0-2,.07s-1.34.12-2,.21Z"/><path d="M594.62,326.54a6,6,0,0,1,6.42-6.41h22.77a8.08,8.08,0,0,1,.86,2,9,9,0,0,1,.38,2.62,5.06,5.06,0,0,1-1.14,3.73,4.15,4.15,0,0,1-3,1.1H606.35V336h15.53a8.24,8.24,0,0,1,.86,2,8.72,8.72,0,0,1,.38,2.59,5.2,5.2,0,0,1-1.1,3.73,4,4,0,0,1-3,1.1h-12.7v7.25h17.74a8.08,8.08,0,0,1,.86,2,9,9,0,0,1,.38,2.62,5.17,5.17,0,0,1-1.14,3.76,4.06,4.06,0,0,1-3,1.14H601a6,6,0,0,1-6.42-6.42Z"/><path d="M630.5,329.79a8.94,8.94,0,0,1-.89-2.07,9,9,0,0,1-.42-2.76,5.22,5.22,0,0,1,1.21-3.87,4.31,4.31,0,0,1,3.14-1.17h30.08a9.64,9.64,0,0,1,1.31,4.83,5.28,5.28,0,0,1-1.2,3.87,4.34,4.34,0,0,1-3.14,1.17h-7.66v31.88a21.7,21.7,0,0,1-2.38.41,25,25,0,0,1-3.21.21,14.54,14.54,0,0,1-2.8-.24,5,5,0,0,1-2-.87,3.69,3.69,0,0,1-1.24-1.72,8.31,8.31,0,0,1-.42-2.9V329.79Z"/><path d="M696.67,361.67a21.26,21.26,0,0,1-2.38.41,25,25,0,0,1-3.21.21,14.43,14.43,0,0,1-2.79-.24,5,5,0,0,1-2-.87,3.76,3.76,0,0,1-1.24-1.72,8.58,8.58,0,0,1-.41-2.9V320.13c.5-.09,1.31-.22,2.41-.38a22.21,22.21,0,0,1,3.18-.24,14.36,14.36,0,0,1,2.79.24,5,5,0,0,1,2,.86,3.79,3.79,0,0,1,1.24,1.73,8.28,8.28,0,0,1,.41,2.89Z"/><path d="M717.79,346.42v15.25a21.51,21.51,0,0,1-2.42.41,25.65,25.65,0,0,1-3.24.21,14.54,14.54,0,0,1-2.8-.24,5,5,0,0,1-2-.87,3.69,3.69,0,0,1-1.24-1.72,8.31,8.31,0,0,1-.42-2.9V320.13c.51-.09,1.31-.22,2.42-.38a22.07,22.07,0,0,1,3.17-.24,14.54,14.54,0,0,1,2.8.24,5,5,0,0,1,2,.86,3.72,3.72,0,0,1,1.24,1.73,8.25,8.25,0,0,1,.42,2.89v11l14.35-16.5q4.7,0,6.73,1.76a5.39,5.39,0,0,1,2,4.18,6.86,6.86,0,0,1-.89,3.38,18,18,0,0,1-2.9,3.59l-8.63,8.62q1.73,1.93,3.63,4t3.72,4c1.22,1.31,2.39,2.57,3.52,3.76l2.93,3.11a6.06,6.06,0,0,1-2,4.69,6.42,6.42,0,0,1-2.11,1.24,8.07,8.07,0,0,1-7.1-1,24.07,24.07,0,0,1-3.45-3.35Z"/><path d="M760.22,346.42v15.25a21.66,21.66,0,0,1-2.41.41,25.93,25.93,0,0,1-3.25.21,14.36,14.36,0,0,1-2.79-.24,5,5,0,0,1-2-.87,3.76,3.76,0,0,1-1.24-1.72,8.58,8.58,0,0,1-.41-2.9V320.13c.5-.09,1.31-.22,2.41-.38a22.21,22.21,0,0,1,3.18-.24,14.43,14.43,0,0,1,2.79.24,5,5,0,0,1,2,.86,3.79,3.79,0,0,1,1.24,1.73,8.52,8.52,0,0,1,.41,2.89v11l14.35-16.5c3.13,0,5.38.59,6.73,1.76a5.37,5.37,0,0,1,2,4.18,6.76,6.76,0,0,1-.9,3.38,17.62,17.62,0,0,1-2.9,3.59l-8.62,8.62c1.15,1.29,2.35,2.62,3.62,4s2.51,2.73,3.73,4l3.51,3.76,2.94,3.11a6.37,6.37,0,0,1-.55,2.69,6.2,6.2,0,0,1-1.49,2,6.38,6.38,0,0,1-2.1,1.24,7.35,7.35,0,0,1-2.49.41,7.27,7.27,0,0,1-4.62-1.41,24.07,24.07,0,0,1-3.45-3.35Z"/><path d="M790.51,326.54a6,6,0,0,1,6.42-6.41H819.7a8.08,8.08,0,0,1,.86,2,9,9,0,0,1,.38,2.62,5.06,5.06,0,0,1-1.14,3.73,4.15,4.15,0,0,1-3,1.1H802.24V336h15.53a8.24,8.24,0,0,1,.86,2,8.72,8.72,0,0,1,.38,2.59,5.2,5.2,0,0,1-1.1,3.73,4,4,0,0,1-3,1.1h-12.7v7.25H820a8.47,8.47,0,0,1,.86,2,9,9,0,0,1,.38,2.62,5.17,5.17,0,0,1-1.14,3.76,4.06,4.06,0,0,1-3,1.14H796.93a6,6,0,0,1-6.42-6.42Z"/><path d="M825.36,356.35a6.81,6.81,0,0,1,1.79-4.83,7.19,7.19,0,0,1,9.8,0,7.41,7.41,0,0,1,0,9.66,7.16,7.16,0,0,1-9.8,0A6.78,6.78,0,0,1,825.36,356.35Z"/><path d="M329.15,444.47a21.7,21.7,0,0,1-2.38.41,25,25,0,0,1-3.21.21,14.36,14.36,0,0,1-2.79-.24,5,5,0,0,1-2-.87,3.69,3.69,0,0,1-1.24-1.72,8.31,8.31,0,0,1-.42-2.9v-32.5a3,3,0,0,1,.8-2.24,5.63,5.63,0,0,1,2.17-1.28,26.4,26.4,0,0,1,5.35-1.21,48.61,48.61,0,0,1,6-.38q9.51,0,14.56,4.08a13.45,13.45,0,0,1,5,11A16.41,16.41,0,0,1,350,423a12.74,12.74,0,0,1-3.17,4.7,14.25,14.25,0,0,1-5.31,3,23.59,23.59,0,0,1-7.42,1.07h-4.9Zm3.59-22.15a6.59,6.59,0,0,0,4.45-1.35,5.15,5.15,0,0,0,1.55-4.1,5.07,5.07,0,0,0-1.62-4,7,7,0,0,0-4.73-1.41q-1.09,0-1.83,0a11.2,11.2,0,0,0-1.48.17v10.7Z"/><path d="M369.17,431.22v13.25a21.7,21.7,0,0,1-2.38.41,25,25,0,0,1-3.21.21,14.36,14.36,0,0,1-2.79-.24,4.74,4.74,0,0,1-2-.87,3.77,3.77,0,0,1-1.2-1.72,8.31,8.31,0,0,1-.42-2.9v-32.5a3,3,0,0,1,.8-2.24,5.55,5.55,0,0,1,2.17-1.28,26.38,26.38,0,0,1,5.45-1.21,55.35,55.35,0,0,1,6.63-.38q9.51,0,14.35,4a13.33,13.33,0,0,1,4.83,10.83,12.1,12.1,0,0,1-2.21,7.31,15.82,15.82,0,0,1-5.25,4.7c1.66,2.25,3.29,4.37,4.9,6.34a41.14,41.14,0,0,1,3.8,5.39,6.49,6.49,0,0,1-2.52,3.69,7,7,0,0,1-4.11,1.27,8.86,8.86,0,0,1-2.62-.34,6.25,6.25,0,0,1-1.93-1,7.81,7.81,0,0,1-1.52-1.52,20.33,20.33,0,0,1-1.31-1.93l-5.79-9.31Zm4.35-9.18a6.08,6.08,0,0,0,4.14-1.34,5,5,0,0,0,1.51-4,4.76,4.76,0,0,0-1.69-4c-1.12-.9-2.91-1.34-5.34-1.34-.69,0-1.25,0-1.66.06s-.87.12-1.38.21V422Z"/><path d="M396.56,423.77a25,25,0,0,1,1.69-9.53,19.22,19.22,0,0,1,11.53-11.17,24.71,24.71,0,0,1,8.59-1.45,24.25,24.25,0,0,1,7.86,1.24l2.9-4.83a7.6,7.6,0,0,1,4.48,1.21,3.41,3.41,0,0,1,1.73,2.79,5.74,5.74,0,0,1-.59,2.38,20,20,0,0,1-1.34,2.45,20.63,20.63,0,0,1,5,7.11,24.38,24.38,0,0,1,1.83,9.8,25.63,25.63,0,0,1-1.66,9.55,19.1,19.1,0,0,1-4.59,7,19.62,19.62,0,0,1-6.93,4.25,26.94,26.94,0,0,1-16.77.2l-2.83,4.76a7.41,7.41,0,0,1-4.55-1.24,3.66,3.66,0,0,1-1.66-3,5.74,5.74,0,0,1,.59-2.27,25.28,25.28,0,0,1,1.28-2.49,20,20,0,0,1-4.83-7.07A25.21,25.21,0,0,1,396.56,423.77Zm12.08,0a22.16,22.16,0,0,0,.27,3.62,15,15,0,0,0,.83,3L421,411.69a10.56,10.56,0,0,0-2.56-.34,9,9,0,0,0-7,3.1Q408.64,417.55,408.64,423.77Zm9.73,12.48a9,9,0,0,0,7.07-3.1q2.71-3.11,2.72-9.38a21.07,21.07,0,0,0-.27-3.52,15.05,15.05,0,0,0-.83-3L415.74,436A11.2,11.2,0,0,0,418.37,436.25Z"/><path d="M471.15,443.36a8.54,8.54,0,0,1-3,1.45,15,15,0,0,1-4.45.62,13,13,0,0,1-5-.86,5.22,5.22,0,0,1-2.83-2.38q-.76-1.59-1.86-4.11c-.74-1.67-1.51-3.55-2.31-5.62s-1.64-4.27-2.49-6.59-1.67-4.68-2.45-7.07-1.52-4.74-2.21-7-1.28-4.46-1.79-6.49a9.12,9.12,0,0,1,2.79-1.76,9.85,9.85,0,0,1,3.9-.79,7.49,7.49,0,0,1,4.18,1.07,6.52,6.52,0,0,1,2.38,4q1.86,6.76,3.76,12.94t4,12.86h.41q1.86-6.48,3.83-14.14t3.76-15.25a16.53,16.53,0,0,1,2.66-1,11.61,11.61,0,0,1,3.2-.41,7.92,7.92,0,0,1,4.35,1.14,4.1,4.1,0,0,1,1.8,3.76,19.66,19.66,0,0,1-.73,4.42q-.72,2.9-1.86,6.52t-2.55,7.55c-.95,2.62-1.89,5.1-2.83,7.42s-1.83,4.37-2.66,6.14A24.24,24.24,0,0,1,471.15,443.36Z"/><path d="M515.72,444.47a21.26,21.26,0,0,1-2.38.41,25,25,0,0,1-3.21.21,14.36,14.36,0,0,1-2.79-.24,5,5,0,0,1-2-.87,3.76,3.76,0,0,1-1.24-1.72,8.58,8.58,0,0,1-.41-2.9V402.93c.5-.09,1.31-.22,2.41-.38a22.21,22.21,0,0,1,3.18-.24,14.43,14.43,0,0,1,2.79.24,5.1,5.1,0,0,1,2,.86,3.79,3.79,0,0,1,1.24,1.73,8.52,8.52,0,0,1,.41,2.89Z"/><path d="M562.57,437.91a5.31,5.31,0,0,1-.76,3.17,7.77,7.77,0,0,1-2.41,2,15.73,15.73,0,0,1-2.42,1.07,26.18,26.18,0,0,1-3.17.89,35.53,35.53,0,0,1-3.62.59,34.25,34.25,0,0,1-3.76.21,31.3,31.3,0,0,1-9.32-1.35,21.16,21.16,0,0,1-7.55-4.07,19.27,19.27,0,0,1-5.07-6.8,24.86,24.86,0,0,1,.17-19.32,20.68,20.68,0,0,1,5.38-7,22.72,22.72,0,0,1,7.66-4.18,29.2,29.2,0,0,1,8.87-1.38c4.36,0,7.83.71,10.38,2.11s3.83,3.23,3.83,5.48a5.35,5.35,0,0,1-.9,3.11,7.54,7.54,0,0,1-2.07,2.07,28.8,28.8,0,0,0-4.31-2,16.24,16.24,0,0,0-5.83-1q-5.8,0-9.21,3.32T535,424a14.67,14.67,0,0,0,.93,5.49,10.4,10.4,0,0,0,2.52,3.79,10.23,10.23,0,0,0,3.66,2.21,13.35,13.35,0,0,0,4.42.73,12.08,12.08,0,0,0,2.69-.28,7,7,0,0,0,1.79-.62V428.8h-7.38a10.87,10.87,0,0,1-.8-2,9,9,0,0,1-.38-2.62,4.83,4.83,0,0,1,1.14-3.59,4.07,4.07,0,0,1,2.94-1.1h11.66a4,4,0,0,1,4.34,4.34Z"/><path d="M570.51,409.34a5.94,5.94,0,0,1,6.41-6.41h22.77a8.06,8.06,0,0,1,.87,2,9,9,0,0,1,.38,2.62,5.06,5.06,0,0,1-1.14,3.73,4.15,4.15,0,0,1-3,1.1H582.24v6.42h15.52a8.24,8.24,0,0,1,.86,2,8.41,8.41,0,0,1,.38,2.59,5.15,5.15,0,0,1-1.1,3.73,4,4,0,0,1-3,1.1H582.24v7.25H600a8.08,8.08,0,0,1,.86,2,9,9,0,0,1,.38,2.62,5.17,5.17,0,0,1-1.14,3.76,4,4,0,0,1-3,1.14H576.92a6,6,0,0,1-6.41-6.42Z"/><path d="M646.2,443.29a6.31,6.31,0,0,1-2.79,1.49,16.49,16.49,0,0,1-4.39.51,15.36,15.36,0,0,1-4.83-.75,6.71,6.71,0,0,1-3.72-3.66l-6.83-13.94c-.69-1.43-1.31-2.77-1.87-4s-1.15-2.72-1.79-4.38l-.41.07q.27,3.74.31,7.59t0,7.59v10.7a22,22,0,0,1-2.31.41,23,23,0,0,1-3.07.21,15.38,15.38,0,0,1-2.69-.21,4.06,4.06,0,0,1-1.93-.83,3.93,3.93,0,0,1-1.18-1.69,8,8,0,0,1-.41-2.79v-34.5a5.74,5.74,0,0,1,3-2.07,13,13,0,0,1,4.27-.69,14.84,14.84,0,0,1,4.87.79,6.6,6.6,0,0,1,3.69,3.62l6.9,13.94c.69,1.43,1.31,2.77,1.86,4s1.15,2.72,1.8,4.38L635,429c-.18-2.48-.3-5-.34-7.45s-.07-5-.07-7.45V402.93a18.49,18.49,0,0,1,2.31-.42,24.59,24.59,0,0,1,3.07-.2,8.22,8.22,0,0,1,4.62,1.07q1.59,1.06,1.59,4.45Z"/><path d="M652.2,439.15a6.82,6.82,0,0,1,1.8-4.83,7.17,7.17,0,0,1,9.79,0,7.38,7.38,0,0,1,0,9.66,7.15,7.15,0,0,1-9.79,0A6.8,6.8,0,0,1,652.2,439.15Z"/></g></svg>
