<svg xmlns="http://www.w3.org/2000/svg" width="610" height="760" viewBox="0 0 610 760"><defs><style>.cls-1{fill:#ffebcc;}.cls-2{fill:#403200;}.cls-3{fill:#fff;}.cls-4{fill:#ccc;}.cls-5{fill:#1f7499;}.cls-6{fill:#e6c85e;}.cls-7{fill:#d8d2c3;}.cls-17,.cls-8{opacity:0.1;}.cls-9{fill:#020202;}.cls-10{fill:#f9f9f9;}.cls-11{fill:#eaeaea;}.cls-12{fill:#f4f3f2;}.cls-13{fill:#f4f4f4;}.cls-14{fill:#efefef;}.cls-15{fill:#f4f1ed;}.cls-16{fill:#c1bfbc;}.cls-18{fill:#e1a0ea;}.cls-19{fill:#cd8ddb;}</style></defs><title>karakteren</title><g id="karakteren"><circle class="cls-1" cx="190.07" cy="301.82" r="174.5"/><path d="M182.57,431.6a31.74,31.74,0,0,1-25.73-13.47,4.9,4.9,0,0,1,8-5.69c6.89,9.67,19.89,12.27,29,5.8a4.9,4.9,0,1,1,5.69,8A29.06,29.06,0,0,1,182.57,431.6Z"/><ellipse class="cls-2" cx="134.19" cy="105.75" rx="125.48" ry="101.95"/><ellipse class="cls-2" cx="23.9" cy="299.37" rx="23.04" ry="80.88"/><ellipse class="cls-2" cx="355.74" cy="284.66" rx="16.67" ry="66.17"/><ellipse class="cls-2" cx="130.75" cy="209.25" rx="134.16" ry="68.15" transform="translate(-79.27 79.74) rotate(-26.34)"/><ellipse class="cls-2" cx="279.28" cy="207.22" rx="51.47" ry="104.89" transform="translate(-51.36 314.98) rotate(-54.63)"/><rect class="cls-3" x="227.32" y="274.37" width="66.66" height="104.89" rx="27.45"/><rect class="cls-3" x="226.34" y="274.37" width="66.66" height="104.89" rx="27.45"/><rect class="cls-3" x="227.32" y="274.37" width="66.66" height="104.89" rx="33.33"/><path d="M260.65,385.57a48.09,48.09,0,0,1-48-48V275.35a48,48,0,1,1,96.08,0v62.18A48.09,48.09,0,0,1,260.65,385.57Zm0-147.47a37.29,37.29,0,0,0-37.25,37.25v62.18a37.25,37.25,0,1,0,74.5,0V275.35A37.29,37.29,0,0,0,260.65,238.1Z"/><ellipse cx="260.17" cy="346.06" rx="30.89" ry="32.23" transform="translate(-10.24 7.94) rotate(-1.72)"/><path class="cls-4" d="M241,346.91a4.9,4.9,0,0,1-4.9-4.9c0-11.35,11-20.59,24.51-20.59a4.91,4.91,0,0,1,0,9.81c-8,0-14.71,4.93-14.71,10.78A4.9,4.9,0,0,1,241,346.91Z"/><rect class="cls-3" x="113.6" y="274.37" width="66.66" height="104.89" rx="27.45"/><rect class="cls-3" x="112.62" y="274.37" width="66.66" height="104.89" rx="27.45"/><rect class="cls-3" x="113.6" y="274.37" width="66.66" height="104.89" rx="33.33"/><path d="M146.93,385.57a48.09,48.09,0,0,1-48-48V275.35a48,48,0,1,1,96.07,0v62.18A48.09,48.09,0,0,1,146.93,385.57Zm0-147.47a37.29,37.29,0,0,0-37.25,37.25v62.18a37.25,37.25,0,1,0,74.5,0V275.35A37.29,37.29,0,0,0,146.93,238.1Z"/><ellipse cx="146.45" cy="346.06" rx="30.89" ry="32.23" transform="translate(-10.29 4.54) rotate(-1.72)"/><path class="cls-4" d="M127.33,346.91a4.9,4.9,0,0,1-4.91-4.9c0-11.35,11-20.59,24.51-20.59a4.91,4.91,0,0,1,0,9.81c-8,0-14.7,4.93-14.7,10.78A4.9,4.9,0,0,1,127.33,346.91Z"/><path d="M189.12,336a4.89,4.89,0,0,1-3.73-8.08,23.45,23.45,0,0,1,16.66-8.19,25.1,25.1,0,0,1,17.8,6.06,4.9,4.9,0,1,1-6.37,7.45,15.3,15.3,0,0,0-10.87-3.72,13.72,13.72,0,0,0-9.77,4.77A4.89,4.89,0,0,1,189.12,336Z"/><rect x="42.73" y="312.65" width="61.76" height="6.44" transform="translate(36.74 -6.36) rotate(6.59)"/><rect x="302.67" y="307.12" width="48.52" height="6.57" transform="translate(-60.74 80.3) rotate(-12.82)"/><rect class="cls-1" x="178.3" y="459.65" width="24.51" height="75.48" rx="11.27"/><ellipse class="cls-5" cx="194.08" cy="559.77" rx="74.06" ry="62.76"/><path class="cls-5" d="M259,646.21c0,13.19.18,24.21.13,36.35-.05,11.31-7.49,14.83-17.65,16.77-13.11,2.5-31.3,1.76-46.77,1.76s-34.2.28-47.48-2.3c-11.28-2.19-18-9.09-18.54-19.6-.55-11.17.37-21.1.37-33,0-12,0-21.72-.16-33.36-.34-26.16,37.27-38.8,65.91-38.8,25.65,0,59.52,10.09,62.4,32.6C259.51,624.37,259,631.27,259,646.21Z"/><rect class="cls-5" x="95.83" y="509.98" width="28.99" height="173.15" rx="14.49"/><ellipse class="cls-5" cx="137.65" cy="519.21" rx="42.35" ry="31.38" transform="translate(-55.25 17.89) rotate(-6.2)"/><rect class="cls-5" x="305.07" y="392.98" width="28.99" height="173.15" rx="14.49" transform="translate(528.86 -57.37) rotate(54.97)"/><ellipse class="cls-5" cx="233.48" cy="522.21" rx="42.35" ry="31.38" transform="translate(-139.09 88.15) rotate(-16.55)"/><rect class="cls-6" x="160.67" y="496.25" width="56.45" height="32.04" rx="16.02"/><path class="cls-3" d="M192.74,564.71l.53.09c-6.78,3.05-10.29-1.41-13.66-8.89l-16.06-32.42-23.08-24.14c-3.36-7.47-.57-16.09,6.21-19.15l6.64-3c6.79-3,15.09.56,18.46,8L199,545.57C202.32,553,199.52,561.66,192.74,564.71Z"/><path class="cls-3" d="M187.73,564.5l-.53.09c6.66,3.08,10.2-1.35,13.65-8.79l16.36-32.23,23.19-23.94c3.45-7.43.81-16-5.85-19.13l-6.52-3c-6.67-3.08-14.93.48-18.37,7.91l-27.78,60C178.44,552.81,181.07,561.42,187.73,564.5Z"/><rect class="cls-7" x="300.14" y="346.4" width="309" height="409.8" rx="45.13"/><path d="M338.87,393.75c-.51,0-1.12,0-1.82-.05s-1.42-.09-2.17-.18-1.48-.2-2.21-.34a11,11,0,0,1-2-.57,3.39,3.39,0,0,1-2.51-3.33V368a2,2,0,0,1,.52-1.49,3.71,3.71,0,0,1,1.44-.84,17.78,17.78,0,0,1,3.87-.8,46.8,46.8,0,0,1,4.79-.25c3.89,0,6.89.66,9,2a6.66,6.66,0,0,1,3.14,6.07,5.47,5.47,0,0,1-1.18,3.53,6.8,6.8,0,0,1-3.2,2.17,7.89,7.89,0,0,1,3.81,2.32,6.09,6.09,0,0,1,1.53,4.24,7.4,7.4,0,0,1-3.35,6.68C346.28,393,343.07,393.75,338.87,393.75Zm-3-17.56h3.33a4.45,4.45,0,0,0,2.85-.73,2.61,2.61,0,0,0,.89-2.14,2.28,2.28,0,0,0-1-2,5.28,5.28,0,0,0-3.08-.73c-.45,0-1,0-1.57.05a11.8,11.8,0,0,0-1.39.13Zm0,11.13a7.9,7.9,0,0,0,1.64.25c.67.05,1.31.07,1.92.07a5.67,5.67,0,0,0,3-.75,2.59,2.59,0,0,0,1.21-2.35,2.34,2.34,0,0,0-1-2.14,5.7,5.7,0,0,0-3.05-.64h-3.74Z"/><path d="M355,379.16a16.7,16.7,0,0,1,1.11-6.3,13.16,13.16,0,0,1,3.06-4.58,13,13,0,0,1,4.56-2.8,17.25,17.25,0,0,1,11.35,0,13.29,13.29,0,0,1,4.59,2.8,12.91,12.91,0,0,1,3.07,4.58,16.51,16.51,0,0,1,1.12,6.3,17,17,0,0,1-1.09,6.31,12.67,12.67,0,0,1-3,4.61,13,13,0,0,1-4.58,2.8,16.7,16.7,0,0,1-5.74,1,16.49,16.49,0,0,1-5.75-1,12.77,12.77,0,0,1-4.56-2.85,13.13,13.13,0,0,1-3-4.61A16.66,16.66,0,0,1,355,379.16Zm8.2,0c0,2.76.57,4.83,1.69,6.2a6,6,0,0,0,9.07,0q1.69-2.06,1.69-6.2T374,373a5.52,5.52,0,0,0-4.54-2.05,5.66,5.66,0,0,0-4.54,2Q363.22,375,363.22,379.16Z"/><path d="M413.47,392.06a4,4,0,0,1-1.84,1,10.69,10.69,0,0,1-2.9.34,9.87,9.87,0,0,1-3.19-.5,4.42,4.42,0,0,1-2.46-2.41l-4.52-9.21q-.68-1.42-1.23-2.67c-.36-.84-.76-1.8-1.18-2.9l-.28.05q.18,2.46.21,5c0,1.71,0,3.38,0,5v7.07a12.5,12.5,0,0,1-1.53.27,15.51,15.51,0,0,1-2,.14,10.33,10.33,0,0,1-1.77-.14,2.52,2.52,0,0,1-2.06-1.66,5.28,5.28,0,0,1-.27-1.85V366.8a3.87,3.87,0,0,1,2-1.37,8.74,8.74,0,0,1,2.83-.45,9.82,9.82,0,0,1,3.21.52,4.37,4.37,0,0,1,2.44,2.39l4.56,9.22c.46.94.87,1.83,1.23,2.66s.76,1.8,1.19,2.9l.23-.05c-.12-1.64-.2-3.28-.23-4.92s-.05-3.28-.05-4.93v-7.38a12.85,12.85,0,0,1,1.53-.28,15.59,15.59,0,0,1,2-.13,5.5,5.5,0,0,1,3.06.7c.69.47,1,1.45,1,2.94Z"/><path d="M429.89,393.75c-.52,0-1.11,0-1.78-.05s-1.36-.09-2.07-.18-1.43-.2-2.15-.34a11.45,11.45,0,0,1-2-.57,3.4,3.4,0,0,1-2.51-3.33V368a2,2,0,0,1,.53-1.49,3.66,3.66,0,0,1,1.43-.84,19.09,19.09,0,0,1,4.15-.84c1.46-.14,2.77-.21,3.92-.21a22.39,22.39,0,0,1,6.46.87,13.38,13.38,0,0,1,5,2.67,12,12,0,0,1,3.21,4.53,19,19,0,0,1,.05,12.84,12.19,12.19,0,0,1-3.13,4.56,13.1,13.1,0,0,1-4.85,2.76A20.25,20.25,0,0,1,429.89,393.75Zm-2.55-6.66c.33.06.74.12,1.23.16a13.24,13.24,0,0,0,1.37.07,8.43,8.43,0,0,0,2.85-.46,5.66,5.66,0,0,0,2.23-1.41,6.63,6.63,0,0,0,1.46-2.48,11.42,11.42,0,0,0,.52-3.68q0-4.1-1.91-6.17A6.6,6.6,0,0,0,430,371c-.42,0-.86,0-1.3,0s-.89.07-1.34.13Z"/><path d="M449.77,369.63a3.94,3.94,0,0,1,4.24-4.24h15.05a5.53,5.53,0,0,1,.57,1.32,5.79,5.79,0,0,1,.25,1.73,3.32,3.32,0,0,1-.75,2.46,2.73,2.73,0,0,1-2,.73h-9.62v4.24h10.26a5.49,5.49,0,0,1,.57,1.3,5.66,5.66,0,0,1,.25,1.71,3.41,3.41,0,0,1-.73,2.47,2.66,2.66,0,0,1-2,.73h-8.39v4.78h11.72a5.81,5.81,0,0,1,.57,1.33,5.74,5.74,0,0,1,.25,1.73,3.42,3.42,0,0,1-.75,2.48,2.64,2.64,0,0,1-2,.76H454a3.94,3.94,0,0,1-4.24-4.24Z"/><path d="M499.52,388.51a3.55,3.55,0,0,1-.5,2.09,5.3,5.3,0,0,1-1.6,1.33,10.68,10.68,0,0,1-1.59.7,17.54,17.54,0,0,1-2.1.6,24.11,24.11,0,0,1-2.4.38,23,23,0,0,1-2.48.14,20.85,20.85,0,0,1-6.16-.89,14,14,0,0,1-5-2.69,12.82,12.82,0,0,1-3.35-4.49,16.51,16.51,0,0,1,.11-12.77,13.73,13.73,0,0,1,3.56-4.63,14.9,14.9,0,0,1,5.06-2.76,19.34,19.34,0,0,1,5.86-.91A14.35,14.35,0,0,1,495.8,366q2.54,1.39,2.53,3.63a3.51,3.51,0,0,1-.59,2.05,4.83,4.83,0,0,1-1.37,1.37,18.26,18.26,0,0,0-2.85-1.35,10.61,10.61,0,0,0-3.85-.66,8.39,8.39,0,0,0-6.09,2.19,8.07,8.07,0,0,0-2.26,6.06,9.71,9.71,0,0,0,.62,3.63,7,7,0,0,0,1.67,2.51,6.75,6.75,0,0,0,2.41,1.46,8.77,8.77,0,0,0,2.92.48,7.36,7.36,0,0,0,1.78-.19,4.41,4.41,0,0,0,1.18-.41v-4.28H487a7,7,0,0,1-.53-1.33,5.74,5.74,0,0,1-.25-1.73,3.21,3.21,0,0,1,.75-2.37,2.66,2.66,0,0,1,1.94-.73h7.71a2.61,2.61,0,0,1,2.87,2.87Z"/><path d="M511.1,366.21a9.29,9.29,0,0,1,2.35-.87,12.71,12.71,0,0,1,3.17-.41,11.39,11.39,0,0,1,4,.66,3.49,3.49,0,0,1,2.26,2.08q.83,2.37,1.78,5.51t1.92,6.5c.63,2.24,1.26,4.44,1.87,6.61s1.14,4.1,1.59,5.77a3.71,3.71,0,0,1-1.64,1,7.78,7.78,0,0,1-2.6.39,8.1,8.1,0,0,1-1.85-.19,3.32,3.32,0,0,1-1.23-.54,2.71,2.71,0,0,1-.77-1,8.92,8.92,0,0,1-.53-1.37l-.82-3.15h-8.25c-.24.92-.49,1.86-.73,2.83s-.49,1.92-.73,2.83a12.59,12.59,0,0,1-1.35.39,8.28,8.28,0,0,1-1.71.16,6,6,0,0,1-3.44-.8,2.58,2.58,0,0,1-1.12-2.21,4.36,4.36,0,0,1,.19-1.28c.12-.43.25-.93.41-1.5.21-.83.51-1.84.89-3.06s.79-2.53,1.25-3.94.94-2.87,1.46-4.36,1-2.89,1.46-4.22.87-2.5,1.25-3.53S510.89,366.75,511.1,366.21Zm-.23-7.57a4.49,4.49,0,0,1,1.65-3.56,6.47,6.47,0,0,1,4.37-1.41,6.87,6.87,0,0,1,4.56,1.41,4.44,4.44,0,0,1,1.69,3.56,4.37,4.37,0,0,1-1.69,3.53,6.92,6.92,0,0,1-4.56,1.39,6.51,6.51,0,0,1-4.37-1.39A4.42,4.42,0,0,1,510.87,358.64Zm5.7,13.45c-.42,1.28-.9,2.7-1.43,4.26s-1,3.16-1.44,4.77h5.66c-.43-1.64-.86-3.25-1.3-4.81l-1.21-4.22Zm-1.09-13.45a1.29,1.29,0,0,0,.43,1,1.49,1.49,0,0,0,1,.39,1.61,1.61,0,0,0,1.12-.39,1.32,1.32,0,0,0,.43-1,1.34,1.34,0,0,0-.43-1,1.61,1.61,0,0,0-1.12-.39,1.49,1.49,0,0,0-1,.39A1.31,1.31,0,0,0,515.48,358.64Z"/><path d="M541.74,384.08v8.76a12.39,12.39,0,0,1-1.57.27,16.89,16.89,0,0,1-2.12.14,9.31,9.31,0,0,1-1.85-.16,3.19,3.19,0,0,1-1.32-.57,2.61,2.61,0,0,1-.8-1.14,5.67,5.67,0,0,1-.27-1.92V368a2,2,0,0,1,.52-1.49,3.71,3.71,0,0,1,1.44-.84,17.63,17.63,0,0,1,3.6-.8,37.74,37.74,0,0,1,4.38-.25q6.3,0,9.49,2.65a8.83,8.83,0,0,1,3.19,7.16,8,8,0,0,1-1.46,4.83,10.42,10.42,0,0,1-3.47,3.1q1.65,2.23,3.24,4.2a27.4,27.4,0,0,1,2.51,3.55,4.29,4.29,0,0,1-1.67,2.44,4.63,4.63,0,0,1-2.71.84,5.87,5.87,0,0,1-1.73-.22,4.27,4.27,0,0,1-1.28-.64,5.57,5.57,0,0,1-1-1,15.1,15.1,0,0,1-.87-1.28l-3.83-6.16Zm2.88-6.06a4,4,0,0,0,2.73-.89,3.32,3.32,0,0,0,1-2.62,3.18,3.18,0,0,0-1.12-2.63,5.69,5.69,0,0,0-3.53-.88,10.78,10.78,0,0,0-1.1,0c-.27,0-.58.08-.91.14V378Z"/><path d="M572.07,393.75c-.52,0-1.11,0-1.78-.05s-1.36-.09-2.08-.18-1.42-.2-2.14-.34a11.45,11.45,0,0,1-2-.57,3.4,3.4,0,0,1-2.51-3.33V368a2,2,0,0,1,.52-1.49,3.71,3.71,0,0,1,1.44-.84,19.09,19.09,0,0,1,4.15-.84c1.46-.14,2.77-.21,3.92-.21a22.37,22.37,0,0,1,6.45.87,13.3,13.3,0,0,1,5,2.67,12,12,0,0,1,3.22,4.53,19,19,0,0,1,0,12.84,12.3,12.3,0,0,1-3.13,4.56,13.1,13.1,0,0,1-4.85,2.76A20.25,20.25,0,0,1,572.07,393.75Zm-2.56-6.66c.34.06.75.12,1.24.16a13.19,13.19,0,0,0,1.36.07,8.35,8.35,0,0,0,2.85-.46,5.7,5.7,0,0,0,2.24-1.41,6.63,6.63,0,0,0,1.46-2.48,11.42,11.42,0,0,0,.52-3.68q0-4.1-1.91-6.17a6.6,6.6,0,0,0-5.11-2.08c-.43,0-.86,0-1.3,0s-.89.07-1.35.13Z"/><path class="cls-8" d="M609.14,391.53V635.89L406.23,346.4H564A45.26,45.26,0,0,1,609.14,391.53Z"/><rect class="cls-1" x="426.06" y="427.97" width="56.85" height="57.74" rx="17.48"/><rect class="cls-3" x="439.24" y="446.53" width="13.67" height="21.52" rx="5.63"/><rect class="cls-3" x="439.04" y="446.53" width="13.67" height="21.52" rx="5.63"/><ellipse cx="445.98" cy="461.23" rx="6.34" ry="6.61" transform="translate(-13.61 13.56) rotate(-1.72)"/><path class="cls-4" d="M442.46,462.84a2.24,2.24,0,0,1-2.24-2.24c0-3,2.81-5.45,6.26-5.45a2.24,2.24,0,1,1,0,4.47c-1.07,0-1.78.59-1.78,1A2.24,2.24,0,0,1,442.46,462.84Z"/><rect class="cls-3" x="456.7" y="446.53" width="13.67" height="21.52" rx="5.63"/><rect class="cls-3" x="456.5" y="446.53" width="13.67" height="21.52" rx="5.63"/><ellipse cx="463.44" cy="461.23" rx="6.34" ry="6.61" transform="translate(-13.6 14.08) rotate(-1.72)"/><path class="cls-4" d="M459.92,462.84a2.24,2.24,0,0,1-2.24-2.24c0-3,2.81-5.45,6.26-5.45a2.24,2.24,0,1,1,0,4.47c-1.07,0-1.79.59-1.79,1A2.23,2.23,0,0,1,459.92,462.84Z"/><circle class="cls-9" cx="454.71" cy="473.62" r="2.69"/><path class="cls-9" d="M459,482.34a5.24,5.24,0,0,1-5.37-5.08,1.12,1.12,0,0,1,2.24,0,3.14,3.14,0,0,0,6.26,0,1.12,1.12,0,0,1,2.24,0A5.24,5.24,0,0,1,459,482.34Z"/><path class="cls-9" d="M450.46,482.79a5.24,5.24,0,0,1-5.38-5.08,1.12,1.12,0,0,1,2.24,0,3.15,3.15,0,0,0,6.27,0,1.12,1.12,0,0,1,2.24,0A5.24,5.24,0,0,1,450.46,482.79Z"/><rect class="cls-9" x="452.92" y="472.73" width="3.58" height="8.06" rx="1.62"/><ellipse class="cls-1" cx="424.05" cy="451.02" rx="13.2" ry="5.66" transform="translate(-192.92 501.89) rotate(-51.48)"/><ellipse class="cls-1" cx="484.47" cy="447.88" rx="5.66" ry="13.2" transform="translate(-173.51 399.19) rotate(-38.52)"/><ellipse class="cls-10" cx="424.54" cy="425.27" rx="16.47" ry="9.06"/><ellipse class="cls-11" cx="445.66" cy="419.32" rx="12.93" ry="23.51" transform="translate(-104.74 686.73) rotate(-69.17)"/><ellipse class="cls-12" cx="427.99" cy="436.81" rx="16.38" ry="11.44" transform="translate(-127.88 181.88) rotate(-20.95)"/><ellipse class="cls-10" cx="459.12" cy="411.55" rx="16.47" ry="12.35"/><ellipse class="cls-13" cx="476.68" cy="420.88" rx="16.47" ry="12.35" transform="translate(-141.65 272.46) rotate(-27.94)"/><ellipse class="cls-10" cx="468.14" cy="436.58" rx="8.02" ry="7.94" transform="translate(-171.59 458.9) rotate(-45)"/><ellipse class="cls-13" cx="484.67" cy="432.9" rx="11.69" ry="11.66" transform="translate(-92.29 731.94) rotate(-69.17)"/><ellipse class="cls-14" cx="451.53" cy="433.4" rx="12.5" ry="13.65" transform="translate(-104.75 146.58) rotate(-16.55)"/><path class="cls-1" d="M455.91,590.14a14.66,14.66,0,0,1-14.65-14.64,3.14,3.14,0,0,1,6.28,0,8.37,8.37,0,1,0,16.73,0,3.14,3.14,0,1,1,6.28,0A14.66,14.66,0,0,1,455.91,590.14Z"/><ellipse class="cls-2" cx="474.95" cy="586.12" rx="14.12" ry="7.65" transform="matrix(0.5, -0.87, 0.87, 0.5, -270.12, 704.38)"/><ellipse class="cls-2" cx="436.21" cy="585.29" rx="7.62" ry="14.12" transform="translate(-234.2 296.52) rotate(-30)"/><rect class="cls-15" x="430.28" y="581.51" width="50.74" height="71.13" rx="17.26"/><rect class="cls-2" x="418.94" y="619.69" width="73.42" height="38.71" rx="9.12"/><circle class="cls-3" cx="447.54" cy="635.39" r="3.66"/><circle class="cls-3" cx="463.75" cy="635.39" r="3.66"/><rect class="cls-3" x="437.83" y="591.69" width="15.98" height="25.14" rx="6.58"/><rect class="cls-3" x="437.6" y="591.69" width="15.98" height="25.14" rx="6.58"/><ellipse cx="445.71" cy="608.88" rx="7.4" ry="7.72" transform="translate(-18.03 13.61) rotate(-1.72)"/><path class="cls-4" d="M441.59,610.76a2.61,2.61,0,0,1-2.61-2.62c0-3.51,3.28-6.37,7.31-6.37a2.62,2.62,0,1,1,0,5.23c-1.25,0-2.08.69-2.08,1.14A2.62,2.62,0,0,1,441.59,610.76Z"/><rect class="cls-3" x="458.23" y="591.69" width="15.98" height="25.14" rx="6.58"/><rect class="cls-3" x="458" y="591.69" width="15.98" height="25.14" rx="6.58"/><ellipse cx="466.11" cy="608.88" rx="7.4" ry="7.72" transform="translate(-18.02 14.23) rotate(-1.72)"/><path class="cls-4" d="M462,610.76a2.61,2.61,0,0,1-2.61-2.62c0-3.51,3.28-6.37,7.31-6.37a2.62,2.62,0,1,1,0,5.23c-1.25,0-2.08.69-2.08,1.14A2.62,2.62,0,0,1,462,610.76Z"/><path class="cls-16" d="M448.61,685.29l-16.33,7.55a2.07,2.07,0,0,1-2.94-2.07L431,672.85a2.06,2.06,0,0,1,1.32-1.74,2,2,0,0,1,2,.23l14.7,10.37A2.07,2.07,0,0,1,448.61,685.29Z"/><g class="cls-17"><path d="M432.28,671.11l8.28,17.9-8.28,3.83a2.07,2.07,0,0,1-2.94-2.07L431,672.85A2.06,2.06,0,0,1,432.28,671.11Z"/></g><path class="cls-16" d="M462.86,688.52l16.33,7.56a2.08,2.08,0,0,0,2.94-2.08l-1.62-17.92a2.09,2.09,0,0,0-3.27-1.51l-14.7,10.37A2.07,2.07,0,0,0,462.86,688.52Z"/><g class="cls-17"><path d="M479.19,674.34l-8.28,17.91,8.28,3.83a2.08,2.08,0,0,0,2.94-2.08l-1.62-17.92A2.06,2.06,0,0,0,479.19,674.34Z"/></g><ellipse class="cls-16" cx="454.68" cy="715.89" rx="34.41" ry="32.79"/><rect class="cls-3" x="438.49" y="698.55" width="14.11" height="22.2" rx="5.81"/><rect class="cls-3" x="438.28" y="698.55" width="14.11" height="22.2" rx="5.81"/><ellipse cx="445.44" cy="713.72" rx="6.54" ry="6.82" transform="translate(-21.16 13.65) rotate(-1.72)"/><path class="cls-4" d="M441.81,715.39a2.31,2.31,0,0,1-2.31-2.31c0-3.11,2.9-5.63,6.46-5.63a2.31,2.31,0,1,1,0,4.62c-1.11,0-1.84.6-1.84,1A2.31,2.31,0,0,1,441.81,715.39Z"/><rect class="cls-3" x="456.5" y="698.55" width="14.11" height="22.2" rx="5.81"/><rect class="cls-3" x="456.29" y="698.55" width="14.11" height="22.2" rx="5.81"/><ellipse cx="463.45" cy="713.72" rx="6.54" ry="6.82" transform="translate(-21.16 14.19) rotate(-1.72)"/><path class="cls-4" d="M459.82,715.39a2.32,2.32,0,0,1-2.31-2.31c0-3.11,2.9-5.63,6.46-5.63a2.31,2.31,0,1,1,0,4.62c-1.11,0-1.84.6-1.84,1A2.31,2.31,0,0,1,459.82,715.39Z"/><circle class="cls-9" cx="454.45" cy="729.74" r="2.77"/><path class="cls-9" d="M458.83,738.73a5.41,5.41,0,0,1-5.54-5.24,1.16,1.16,0,0,1,2.31,0,3.25,3.25,0,0,0,6.47,0,1.16,1.16,0,0,1,2.31,0A5.41,5.41,0,0,1,458.83,738.73Z"/><path class="cls-9" d="M450.06,739.2a5.41,5.41,0,0,1-5.54-5.25,1.16,1.16,0,0,1,2.31,0,3.24,3.24,0,0,0,6.46,0,1.16,1.16,0,0,1,2.31,0A5.41,5.41,0,0,1,450.06,739.2Z"/><rect class="cls-9" x="452.6" y="728.82" width="3.69" height="8.31" rx="1.67"/><ellipse class="cls-9" cx="455.81" cy="728.82" rx="5.5" ry="2.89" transform="matrix(0.5, -0.87, 0.87, 0.5, -403.27, 759.15)"/><ellipse class="cls-9" cx="452.62" cy="728.82" rx="2.89" ry="5.5" transform="translate(-303.77 323.96) rotate(-30)"/><rect class="cls-9" x="412.67" y="728.33" width="32.81" height="1.2" rx="0.6" transform="translate(45.58 -24.98) rotate(3.52)"/><rect class="cls-9" x="412.76" y="723.3" width="32.81" height="1.2" rx="0.6" transform="translate(169.71 -76.66) rotate(12.7)"/><rect class="cls-9" x="414.67" y="717.67" width="32.81" height="1.2" rx="0.6" transform="translate(381.86 -117.98) rotate(27.6)"/><rect class="cls-9" x="464.16" y="728.33" width="32.81" height="1.2" rx="0.6" transform="translate(1004.99 1426.97) rotate(176.48)"/><rect class="cls-9" x="464.06" y="723.3" width="32.81" height="1.2" rx="0.6" transform="translate(1108.37 1324.41) rotate(167.3)"/><rect class="cls-9" x="462.16" y="717.67" width="32.81" height="1.2" rx="0.6" transform="translate(1235.46 1133.05) rotate(152.4)"/><ellipse class="cls-18" cx="456.74" cy="532.18" rx="43.8" ry="27.89"/><ellipse class="cls-18" cx="479.88" cy="517.23" rx="27.23" ry="8.29" transform="translate(-200.87 702.66) rotate(-62.38)"/><ellipse class="cls-18" cx="439.27" cy="519.02" rx="8.29" ry="27.23" transform="translate(-190.55 262.77) rotate(-27.62)"/><rect class="cls-3" x="441.7" y="509.85" width="13.64" height="21.46" rx="5.61"/><rect class="cls-3" x="441.5" y="509.85" width="13.64" height="21.46" rx="5.61"/><ellipse cx="448.42" cy="524.51" rx="6.32" ry="6.59" transform="translate(-15.5 13.66) rotate(-1.72)"/><path class="cls-4" d="M444.91,526.12a2.23,2.23,0,0,1-2.23-2.23c0-3,2.8-5.44,6.24-5.44a2.23,2.23,0,1,1,0,4.46c-1.07,0-1.78.59-1.78,1A2.23,2.23,0,0,1,444.91,526.12Z"/><rect class="cls-3" x="459.11" y="509.85" width="13.64" height="21.46" rx="5.61"/><rect class="cls-3" x="458.91" y="509.85" width="13.64" height="21.46" rx="5.61"/><ellipse cx="465.83" cy="524.51" rx="6.32" ry="6.59" transform="translate(-15.49 14.18) rotate(-1.72)"/><path class="cls-4" d="M462.32,526.12a2.23,2.23,0,0,1-2.24-2.23c0-3,2.8-5.44,6.25-5.44a2.23,2.23,0,1,1,0,4.46c-1.07,0-1.78.59-1.78,1A2.23,2.23,0,0,1,462.32,526.12Z"/><ellipse class="cls-19" cx="456.9" cy="543.34" rx="15.84" ry="11.38"/><circle class="cls-3" cx="452.66" cy="540.89" r="2.68"/><circle class="cls-3" cx="461.58" cy="540.89" r="2.68"/><ellipse class="cls-1" cx="430.64" cy="341.3" rx="55.5" ry="18.5"/></g></svg>
