<svg id="Layer_1" data-name="Layer 1" xmlns="http://www.w3.org/2000/svg" width="3500" height="700" viewBox="0 0 3500 700"><defs><style>.cls-1{fill:#ffebcb;}.cls-2{fill:#432e00;}.cls-3{fill:#fff;}.cls-4{fill:#ccc;}.cls-5{fill:#00759b;}.cls-6{fill:#f0c855;}.cls-7,.cls-8{fill:none;}.cls-8{stroke:#000;stroke-linecap:round;stroke-miterlimit:10;stroke-width:15px;}</style></defs><title>karakter_sprite</title><circle class="cls-1" cx="342.6" cy="299.32" r="174.5"/><path d="M335.11,429.1a31.7,31.7,0,0,1-25.73-13.47,4.9,4.9,0,0,1,8-5.69c6.89,9.67,19.89,12.28,29,5.8a4.9,4.9,0,1,1,5.69,8A29,29,0,0,1,335.11,429.1Z"/><ellipse class="cls-2" cx="286.72" cy="103.26" rx="125.48" ry="101.95"/><ellipse class="cls-2" cx="176.43" cy="296.87" rx="23.04" ry="80.88"/><ellipse class="cls-2" cx="508.27" cy="282.16" rx="16.67" ry="66.17"/><ellipse class="cls-2" cx="283.28" cy="206.75" rx="134.16" ry="68.15" transform="translate(-62.33 147.17) rotate(-26.34)"/><ellipse class="cls-2" cx="431.81" cy="204.72" rx="51.47" ry="104.89" transform="matrix(0.58, -0.82, 0.82, 0.58, 14.91, 438.31)"/><rect class="cls-3" x="379.85" y="271.87" width="66.66" height="104.89" rx="27.45"/><rect class="cls-3" x="378.87" y="271.87" width="66.66" height="104.89" rx="27.45"/><rect class="cls-3" x="379.85" y="271.87" width="66.66" height="104.89" rx="33.33"/><path d="M413.18,383.07a48.08,48.08,0,0,1-48-48V272.85a48,48,0,0,1,96.07,0V335A48.09,48.09,0,0,1,413.18,383.07Zm0-147.47a37.29,37.29,0,0,0-37.25,37.25V335a37.25,37.25,0,0,0,74.5,0V272.85A37.29,37.29,0,0,0,413.18,235.6Z"/><ellipse cx="412.7" cy="343.56" rx="30.89" ry="32.23" transform="translate(-10.1 12.51) rotate(-1.72)"/><path class="cls-4" d="M393.57,344.41a4.9,4.9,0,0,1-4.9-4.9c0-11.35,11-20.58,24.51-20.58a4.9,4.9,0,1,1,0,9.8c-8,0-14.7,4.94-14.7,10.78A4.9,4.9,0,0,1,393.57,344.41Z"/><rect class="cls-3" x="266.13" y="271.87" width="66.66" height="104.89" rx="27.45"/><rect class="cls-3" x="265.15" y="271.87" width="66.66" height="104.89" rx="27.45"/><rect class="cls-3" x="266.13" y="271.87" width="66.66" height="104.89" rx="33.33"/><path d="M299.46,383.07a48.09,48.09,0,0,1-48-48V272.85a48,48,0,0,1,96.07,0V335A48.09,48.09,0,0,1,299.46,383.07Zm0-147.47a37.29,37.29,0,0,0-37.25,37.25V335a37.26,37.26,0,0,0,74.51,0V272.85A37.3,37.3,0,0,0,299.46,235.6Z"/><ellipse cx="298.98" cy="343.56" rx="30.89" ry="32.23" transform="translate(-10.15 9.1) rotate(-1.72)"/><path class="cls-4" d="M279.86,344.41a4.9,4.9,0,0,1-4.9-4.9c0-11.35,11-20.58,24.5-20.58a4.9,4.9,0,1,1,0,9.8c-8,0-14.7,4.94-14.7,10.78A4.9,4.9,0,0,1,279.86,344.41Z"/><path d="M341.65,333.54a4.91,4.91,0,0,1-3.73-8.09,23.51,23.51,0,0,1,16.66-8.19,25,25,0,0,1,17.8,6.07,4.9,4.9,0,1,1-6.37,7.45,15.36,15.36,0,0,0-10.87-3.73,13.79,13.79,0,0,0-9.77,4.77A4.85,4.85,0,0,1,341.65,333.54Z"/><rect x="195.27" y="310.15" width="61.76" height="6.44" transform="translate(37.46 -23.88) rotate(6.59)"/><rect x="455.2" y="304.62" width="48.52" height="6.57" transform="translate(-56.38 114.09) rotate(-12.82)"/><rect class="cls-1" x="330.83" y="457.15" width="24.51" height="75.48" rx="11.27"/><ellipse class="cls-5" cx="346.61" cy="557.28" rx="74.06" ry="62.76"/><path class="cls-5" d="M411.58,643.72c0,13.18.18,24.2.12,36.34-.05,11.31-7.49,14.84-17.65,16.77-13.11,2.5-31.3,1.77-46.77,1.77s-34.19.28-47.48-2.3c-11.28-2.19-18-9.1-18.53-19.61-.56-11.16.36-21.09.36-33,0-12,0-21.73-.15-33.37-.35-26.16,37.26-38.79,65.9-38.79,25.65,0,59.53,10.08,62.4,32.59C412,621.88,411.58,628.77,411.58,643.72Z"/><rect class="cls-5" x="248.37" y="507.48" width="28.99" height="173.15" rx="14.49"/><ellipse class="cls-5" cx="290.18" cy="516.71" rx="42.35" ry="31.38" transform="translate(-54.08 34.35) rotate(-6.2)"/><rect class="cls-5" x="457.61" y="390.48" width="28.99" height="173.15" rx="14.49" transform="translate(591.8 -183.35) rotate(54.97)"/><ellipse class="cls-5" cx="386.02" cy="519.71" rx="42.35" ry="31.38" transform="translate(-132.05 131.5) rotate(-16.55)"/><rect class="cls-6" x="313.2" y="493.75" width="56.45" height="32.04" rx="16.02"/><path class="cls-3" d="M345.27,562.22l.54.08c-6.79,3.05-10.3-1.41-13.66-8.89L316.09,521,293,496.85c-3.36-7.47-.57-16.09,6.22-19.14l6.64-3c6.78-3.06,15.08.56,18.45,8l27.17,60.32C354.85,550.55,352.05,559.16,345.27,562.22Z"/><path class="cls-3" d="M340.26,562l-.53.08c6.67,3.08,10.21-1.35,13.65-8.78l16.37-32.24,23.19-23.94c3.44-7.43.8-16-5.86-19.12l-6.52-3c-6.66-3.09-14.93.47-18.37,7.9l-27.78,60C331,550.32,333.6,558.92,340.26,562Z"/><rect class="cls-7" x="-0.5" width="700" height="700"/><circle class="cls-1" cx="1042.6" cy="299.32" r="174.5"/><path d="M897.5,338.57l95.73-23.33,1.16,5.43L898.66,344Z"/><path d="M1017.11,429.1a31.7,31.7,0,0,1-25.73-13.47,4.9,4.9,0,0,1,8-5.69c6.89,9.67,19.89,12.28,29,5.8a4.9,4.9,0,1,1,5.69,8A29,29,0,0,1,1017.11,429.1Z"/><ellipse class="cls-2" cx="952.47" cy="117.54" rx="125.48" ry="101.95" transform="translate(-2.59 211.7) rotate(-12.67)"/><ellipse class="cls-2" cx="887.32" cy="330.62" rx="23.04" ry="80.88" transform="translate(-50.9 202.6) rotate(-12.67)"/><ellipse class="cls-2" cx="1207.52" cy="242.02" rx="18.95" ry="64.64" transform="translate(-23.68 270.65) rotate(-12.67)"/><ellipse class="cls-2" cx="971.8" cy="219.27" rx="134.16" ry="68.15" transform="translate(78.64 660.56) rotate(-39.01)"/><ellipse class="cls-2" cx="1116.27" cy="184.72" rx="51.47" ry="104.89" transform="translate(514.97 1143.17) rotate(-67.29)"/><rect class="cls-3" x="1118.85" y="271.87" width="66.66" height="104.89" rx="27.45"/><rect class="cls-3" x="1117.87" y="271.87" width="66.66" height="104.89" rx="27.45"/><rect class="cls-3" x="1122.85" y="271.87" width="66.66" height="104.89" rx="33.33"/><path d="M1152.18,383.07a48.08,48.08,0,0,1-48-48V272.85a48,48,0,0,1,96.07,0V335A48.09,48.09,0,0,1,1152.18,383.07Zm0-147.47a37.29,37.29,0,0,0-37.25,37.25V335a37.25,37.25,0,0,0,74.5,0V272.85A37.29,37.29,0,0,0,1152.18,235.6Z"/><ellipse cx="1156.7" cy="340.56" rx="30.89" ry="32.23" transform="translate(-9.68 34.78) rotate(-1.72)"/><path class="cls-4" d="M1138.82,344.76a4.91,4.91,0,0,1-6.14-3.22c-3.38-10.84,4.36-22.93,17.26-27a4.9,4.9,0,0,1,2.92,9.36c-7.61,2.38-12.57,9.1-10.82,14.68A4.91,4.91,0,0,1,1138.82,344.76Z"/><rect class="cls-3" x="1005.13" y="271.87" width="66.66" height="104.89" rx="27.45"/><rect class="cls-3" x="1009.15" y="271.87" width="66.66" height="104.89" rx="27.45"/><path d="M1038.46,383.07a48.09,48.09,0,0,1-48-48V272.85a48,48,0,0,1,96.07,0V335A48.09,48.09,0,0,1,1038.46,383.07Zm0-147.47a37.29,37.29,0,0,0-37.25,37.25V335a37.26,37.26,0,0,0,74.51,0V272.85A37.3,37.3,0,0,0,1038.46,235.6Z"/><ellipse cx="1044.98" cy="341.56" rx="30.89" ry="32.23" transform="translate(-9.76 31.43) rotate(-1.72)"/><path class="cls-4" d="M1027.49,346.52a4.9,4.9,0,0,1-6-3.47c-2.94-11,5.29-22.73,18.34-26.23a4.9,4.9,0,0,1,2.54,9.47c-7.7,2.07-12.93,8.58-11.41,14.22A4.9,4.9,0,0,1,1027.49,346.52Z"/><path d="M1080.65,333.54a4.91,4.91,0,0,1-3.73-8.09,23.51,23.51,0,0,1,16.66-8.19,25,25,0,0,1,17.8,6.07,4.9,4.9,0,1,1-6.37,7.45,15.36,15.36,0,0,0-10.87-3.73,13.79,13.79,0,0,0-9.77,4.77A4.85,4.85,0,0,1,1080.65,333.54Z"/><rect class="cls-1" x="1030.83" y="457.15" width="24.51" height="75.48" rx="11.27"/><ellipse class="cls-5" cx="1046.61" cy="557.28" rx="74.06" ry="62.76"/><path class="cls-5" d="M1111.58,643.72c0,13.18.18,24.2.12,36.34,0,11.31-7.49,14.84-17.65,16.77-13.11,2.5-31.3,1.77-46.77,1.77s-34.19.28-47.48-2.3c-11.28-2.19-18-9.1-18.53-19.61-.56-11.16.36-21.09.36-33,0-12,0-21.73-.15-33.37-.35-26.16,37.26-38.79,65.9-38.79,25.65,0,59.53,10.08,62.4,32.59C1112,621.88,1111.58,628.77,1111.58,643.72Z"/><rect class="cls-5" x="948.37" y="507.48" width="28.99" height="173.15" rx="14.49"/><ellipse class="cls-5" cx="990.18" cy="516.71" rx="42.35" ry="31.38" transform="translate(-49.99 109.91) rotate(-6.2)"/><rect class="cls-5" x="1157.61" y="390.48" width="28.99" height="173.15" rx="14.49" transform="translate(890.03 -756.57) rotate(54.97)"/><ellipse class="cls-5" cx="1086.02" cy="519.71" rx="42.35" ry="31.38" transform="translate(-103.05 330.9) rotate(-16.55)"/><rect class="cls-6" x="1013.2" y="493.75" width="56.45" height="32.04" rx="16.02"/><path class="cls-3" d="M1045.27,562.22l.54.08c-6.79,3.05-10.3-1.41-13.66-8.89L1016.09,521,993,496.85c-3.36-7.47-.57-16.09,6.22-19.14l6.64-3c6.78-3.06,15.08.56,18.45,8l27.17,60.32C1054.85,550.55,1052.05,559.16,1045.27,562.22Z"/><path class="cls-3" d="M1040.26,562l-.53.08c6.67,3.08,10.21-1.35,13.65-8.78l16.37-32.24,23.19-23.94c3.44-7.43.8-16-5.86-19.12l-6.52-3c-6.66-3.09-14.93.47-18.37,7.9l-27.78,60C1031,550.32,1033.6,558.92,1040.26,562Z"/><rect class="cls-7" x="699.5" width="700" height="700"/><circle class="cls-1" cx="1742.6" cy="299.32" r="174.5"/><rect class="cls-1" x="1730.83" y="457.15" width="24.51" height="75.48" rx="11.27"/><ellipse class="cls-5" cx="1746.61" cy="557.28" rx="74.06" ry="62.76"/><path class="cls-5" d="M1811.58,643.72c0,13.18.18,24.2.12,36.34,0,11.31-7.49,14.84-17.65,16.77-13.11,2.5-31.3,1.77-46.77,1.77s-34.19.28-47.48-2.3c-11.28-2.19-18-9.1-18.53-19.61-.56-11.16.36-21.09.36-33,0-12,0-21.73-.15-33.37-.35-26.16,37.26-38.79,65.9-38.79,25.65,0,59.53,10.08,62.4,32.59C1812,621.88,1811.58,628.77,1811.58,643.72Z"/><rect class="cls-5" x="1648.37" y="507.48" width="28.99" height="173.15" rx="14.49"/><ellipse class="cls-5" cx="1690.18" cy="516.71" rx="42.35" ry="31.38" transform="translate(-45.9 185.48) rotate(-6.2)"/><rect class="cls-5" x="1857.61" y="390.48" width="28.99" height="173.15" rx="14.49" transform="translate(1188.27 -1329.79) rotate(54.97)"/><ellipse class="cls-5" cx="1786.02" cy="519.71" rx="42.35" ry="31.38" transform="translate(-74.05 530.31) rotate(-16.55)"/><rect class="cls-6" x="1713.2" y="493.75" width="56.45" height="32.04" rx="16.02"/><path class="cls-3" d="M1745.27,562.22l.54.08c-6.79,3.05-10.3-1.41-13.66-8.89L1716.09,521,1693,496.85c-3.36-7.47-.57-16.09,6.22-19.14l6.64-3c6.78-3.06,15.08.56,18.45,8l27.17,60.32C1754.85,550.55,1752.05,559.16,1745.27,562.22Z"/><path class="cls-3" d="M1740.26,562l-.53.08c6.67,3.08,10.21-1.35,13.65-8.78l16.37-32.24,23.19-23.94c3.44-7.43.8-16-5.86-19.12l-6.52-3c-6.66-3.09-14.93.47-18.37,7.9l-27.78,60C1731,550.32,1733.6,558.92,1740.26,562Z"/><rect class="cls-7" x="1399.5" width="700" height="700"/><circle class="cls-1" cx="2442.6" cy="299.32" r="174.5"/><rect class="cls-1" x="2430.83" y="457.15" width="24.51" height="75.48" rx="11.27"/><ellipse class="cls-5" cx="2446.61" cy="557.28" rx="74.06" ry="62.76"/><path class="cls-5" d="M2511.58,643.72c0,13.18.18,24.2.12,36.34,0,11.31-7.49,14.84-17.65,16.77-13.11,2.5-31.3,1.77-46.77,1.77s-34.19.28-47.48-2.3c-11.28-2.19-18-9.1-18.53-19.61-.56-11.16.36-21.09.36-33,0-12,0-21.73-.15-33.37-.35-26.16,37.26-38.79,65.9-38.79,25.65,0,59.53,10.08,62.4,32.59C2512,621.88,2511.58,628.77,2511.58,643.72Z"/><rect class="cls-5" x="2348.37" y="507.48" width="28.99" height="173.15" rx="14.49"/><ellipse class="cls-5" cx="2390.18" cy="516.71" rx="42.35" ry="31.38" transform="translate(-41.81 261.05) rotate(-6.2)"/><rect class="cls-5" x="2557.61" y="390.48" width="28.99" height="173.15" rx="14.49" transform="translate(1486.5 -1903.02) rotate(54.97)"/><ellipse class="cls-5" cx="2486.02" cy="519.71" rx="42.35" ry="31.38" transform="translate(-45.05 729.72) rotate(-16.55)"/><rect class="cls-6" x="2413.2" y="493.75" width="56.45" height="32.04" rx="16.02"/><path class="cls-3" d="M2445.27,562.22l.54.08c-6.79,3.05-10.3-1.41-13.66-8.89L2416.09,521,2393,496.85c-3.36-7.47-.57-16.09,6.22-19.14l6.64-3c6.78-3.06,15.08.56,18.45,8l27.17,60.32C2454.85,550.55,2452.05,559.16,2445.27,562.22Z"/><path class="cls-3" d="M2440.26,562l-.53.08c6.67,3.08,10.21-1.35,13.65-8.78l16.37-32.24,23.19-23.94c3.44-7.43.8-16-5.86-19.12l-6.52-3c-6.66-3.09-14.93.47-18.37,7.9l-27.78,60C2431,550.32,2433.6,558.92,2440.26,562Z"/><rect class="cls-7" x="2099.5" width="700" height="700"/><circle class="cls-1" cx="3142.6" cy="299.32" r="174.5"/><rect class="cls-1" x="3130.83" y="457.15" width="24.51" height="75.48" rx="11.27"/><ellipse class="cls-5" cx="3146.61" cy="557.28" rx="74.06" ry="62.76"/><path class="cls-5" d="M3211.58,643.72c0,13.18.18,24.2.12,36.34,0,11.31-7.49,14.84-17.65,16.77-13.11,2.5-31.3,1.77-46.77,1.77s-34.19.28-47.48-2.3c-11.28-2.19-18-9.1-18.53-19.61-.56-11.16.36-21.09.36-33,0-12,0-21.73-.15-33.37-.35-26.16,37.26-38.79,65.9-38.79,25.65,0,59.53,10.08,62.4,32.59C3212,621.88,3211.58,628.77,3211.58,643.72Z"/><rect class="cls-5" x="3048.37" y="507.48" width="28.99" height="173.15" rx="14.49"/><ellipse class="cls-5" cx="3090.18" cy="516.71" rx="42.35" ry="31.38" transform="translate(-37.72 336.62) rotate(-6.2)"/><rect class="cls-5" x="3257.61" y="390.48" width="28.99" height="173.15" rx="14.49" transform="translate(1784.74 -2476.24) rotate(54.97)"/><ellipse class="cls-5" cx="3186.02" cy="519.71" rx="42.35" ry="31.38" transform="translate(-16.04 929.12) rotate(-16.55)"/><rect class="cls-6" x="3113.2" y="493.75" width="56.45" height="32.04" rx="16.02"/><path class="cls-3" d="M3145.27,562.22l.54.08c-6.79,3.05-10.3-1.41-13.66-8.89L3116.09,521,3093,496.85c-3.36-7.47-.57-16.09,6.22-19.14l6.64-3c6.78-3.06,15.08.56,18.45,8l27.17,60.32C3154.85,550.55,3152.05,559.16,3145.27,562.22Z"/><path class="cls-3" d="M3140.26,562l-.53.08c6.67,3.08,10.21-1.35,13.65-8.78l16.37-32.24,23.19-23.94c3.44-7.43.8-16-5.86-19.12l-6.52-3c-6.66-3.09-14.93.47-18.37,7.9l-27.78,60C3131,550.32,3133.6,558.92,3140.26,562Z"/><rect class="cls-7" x="2799.5" width="700" height="700"/><path d="M1735.34,433.35a29.92,29.92,0,0,1-19.21-7.05A32.54,32.54,0,0,1,1704.67,405a5,5,0,0,1,9.94-1.17,22.52,22.52,0,0,0,7.92,14.8,19.89,19.89,0,0,0,15.15,4.61,5,5,0,0,1,1.17,9.93A29.5,29.5,0,0,1,1735.34,433.35Z"/><ellipse class="cls-2" cx="1626.06" cy="117.28" rx="128" ry="104" transform="translate(64.25 584.81) rotate(-20.79)"/><ellipse class="cls-2" cx="1584.03" cy="334.23" rx="30.19" ry="92.09" transform="translate(-22.26 535.99) rotate(-19.07)"/><ellipse class="cls-2" cx="1673.18" cy="213.21" rx="146.87" ry="85.13" transform="translate(169.79 977.93) rotate(-34.22)"/><ellipse class="cls-2" cx="1825.4" cy="170.32" rx="45.68" ry="107" transform="translate(957.04 1784.96) rotate(-67.06)"/><path d="M1876.5,382.43a49.05,49.05,0,0,1-49-49V270a49,49,0,0,1,98,0v63.43A49.05,49.05,0,0,1,1876.5,382.43Zm0-150.43a38,38,0,0,0-38,38v63.43a38,38,0,0,0,76,0V270A38,38,0,0,0,1876.5,232Z"/><rect class="cls-3" x="1734.5" y="252" width="68" height="107" rx="34"/><path d="M1760.5,382.43a49.05,49.05,0,0,1-49-49V270a49,49,0,0,1,98,0v63.43A49.05,49.05,0,0,1,1760.5,382.43Zm0-150.43a38,38,0,0,0-38,38v63.43a38,38,0,0,0,76,0V270A38,38,0,0,0,1760.5,232Z"/><ellipse cx="1771.01" cy="326.13" rx="31.51" ry="32.87" transform="translate(-8.97 53.16) rotate(-1.72)"/><path class="cls-4" d="M1752.22,338.07a5,5,0,0,1-4.26-2.37c-6.1-9.84-1.52-23.76,10.19-31a5,5,0,1,1,5.27,8.5c-6.91,4.28-10.1,12.19-7,17.25a5,5,0,0,1-4.24,7.64Z"/><rect class="cls-3" x="1850.5" y="252" width="68" height="107" rx="34"/><path d="M1876.5,382.43a49.05,49.05,0,0,1-49-49V270a49,49,0,0,1,98,0v63.43A49.05,49.05,0,0,1,1876.5,382.43Zm0-150.43a38,38,0,0,0-38,38v63.43a38,38,0,0,0,76,0V270A38,38,0,0,0,1876.5,232Z"/><ellipse cx="1887.01" cy="326.13" rx="31.51" ry="32.87" transform="translate(-8.92 56.63) rotate(-1.72)"/><path class="cls-4" d="M1868.22,338.07a5,5,0,0,1-4.26-2.37c-6.1-9.84-1.52-23.76,10.19-31a5,5,0,1,1,5.27,8.5c-6.91,4.28-10.1,12.19-7,17.25a5,5,0,0,1-4.24,7.64Z"/><path d="M1803.53,331.9a5,5,0,0,1-3.8-8.25,24,24,0,0,1,17-8.35,25.57,25.57,0,0,1,18.16,6.19,5,5,0,0,1-6.5,7.6,15.62,15.62,0,0,0-11.08-3.8,14,14,0,0,0-10,4.86A5,5,0,0,1,1803.53,331.9Z"/><path d="M1617.5,341.57l95.73-23.33,1.16,5.43L1618.66,347Z"/><path d="M2435.34,434.35a29.92,29.92,0,0,1-19.21-7.05A32.54,32.54,0,0,1,2404.67,406a5,5,0,0,1,9.94-1.17,22.52,22.52,0,0,0,7.92,14.8,19.89,19.89,0,0,0,15.15,4.61,5,5,0,0,1,1.17,9.93A29.5,29.5,0,0,1,2435.34,434.35Z"/><ellipse class="cls-2" cx="2326.06" cy="118.28" rx="128" ry="104" transform="translate(109.48 833.34) rotate(-20.79)"/><ellipse class="cls-2" cx="2284.03" cy="335.23" rx="30.19" ry="92.09" transform="translate(15.85 764.79) rotate(-19.07)"/><ellipse class="cls-2" cx="2373.18" cy="214.21" rx="146.87" ry="85.13" transform="translate(290.43 1371.8) rotate(-34.22)"/><ellipse class="cls-2" cx="2525.4" cy="171.32" rx="45.68" ry="107" transform="translate(1383.27 2430.2) rotate(-67.06)"/><path d="M2576.5,383.43a49.05,49.05,0,0,1-49-49V271a49,49,0,0,1,98,0v63.43A49.05,49.05,0,0,1,2576.5,383.43Zm0-150.43a38,38,0,0,0-38,38v63.43a38,38,0,0,0,76,0V271A38,38,0,0,0,2576.5,233Z"/><rect class="cls-3" x="2434.5" y="287" width="68" height="73" rx="28.08"/><path d="M2460.5,383.43a49.05,49.05,0,0,1-49-49V271a49,49,0,0,1,98,0v63.43A49.05,49.05,0,0,1,2460.5,383.43Zm0-150.43a38,38,0,0,0-38,38v63.43a38,38,0,0,0,76,0V271A38,38,0,0,0,2460.5,233Z"/><ellipse cx="2468.8" cy="339.46" rx="28.94" ry="22.49" transform="translate(-9.05 74.05) rotate(-1.72)"/><path class="cls-4" d="M2456.12,330.57a3,3,0,0,1,.15-3c3.83-6.12,12.9-7.61,20.21-3.32a3,3,0,0,1,1,4.2,3.21,3.21,0,0,1-4.31,1.09c-4.31-2.53-9.62-2-11.6,1.15a3.21,3.21,0,0,1-4.31,1.08A2.94,2.94,0,0,1,2456.12,330.57Z"/><rect class="cls-3" x="2546.5" y="289" width="68" height="73" rx="28.08"/><ellipse cx="2580.8" cy="341.46" rx="28.94" ry="22.49" transform="translate(-9.06 77.41) rotate(-1.72)"/><path class="cls-4" d="M2568.12,332.57a3,3,0,0,1,.15-3c3.83-6.12,12.9-7.61,20.21-3.32a3,3,0,0,1,1,4.2,3.21,3.21,0,0,1-4.31,1.09c-4.31-2.53-9.62-2-11.6,1.15a3.21,3.21,0,0,1-4.31,1.08A2.94,2.94,0,0,1,2568.12,332.57Z"/><path d="M2576.5,383.43a49.05,49.05,0,0,1-49-49V271a49,49,0,0,1,98,0v63.43A49.05,49.05,0,0,1,2576.5,383.43Zm0-150.43a38,38,0,0,0-38,38v63.43a38,38,0,0,0,76,0V271A38,38,0,0,0,2576.5,233Z"/><path d="M2503.53,332.9a5,5,0,0,1-3.8-8.25,24,24,0,0,1,17-8.35,25.57,25.57,0,0,1,18.16,6.19,5,5,0,0,1-6.5,7.6,15.62,15.62,0,0,0-11.08-3.8,14,14,0,0,0-10,4.86A5,5,0,0,1,2503.53,332.9Z"/><path d="M2317.5,342.57l95.73-23.33,1.16,5.43L2318.66,348Z"/><path d="M3138.34,432.35a29.92,29.92,0,0,1-19.21-7.05A32.54,32.54,0,0,1,3107.67,404a5,5,0,0,1,9.94-1.17,22.52,22.52,0,0,0,7.92,14.8,19.89,19.89,0,0,0,15.15,4.61,5,5,0,1,1,1.17,9.93A29.5,29.5,0,0,1,3138.34,432.35Z"/><ellipse class="cls-2" cx="3029.06" cy="116.28" rx="128" ry="104" transform="translate(155.96 1082.74) rotate(-20.79)"/><ellipse class="cls-2" cx="2987.03" cy="333.23" rx="30.19" ry="92.09" transform="translate(55.1 994.41) rotate(-19.07)"/><ellipse class="cls-2" cx="3076.18" cy="212.21" rx="146.87" ry="85.13" transform="translate(413.27 1766.83) rotate(-34.22)"/><ellipse class="cls-2" cx="3228.4" cy="169.32" rx="45.68" ry="107" transform="translate(1814.1 3076.38) rotate(-67.06)"/><path d="M3279.5,381.43a49.05,49.05,0,0,1-49-49V269a49,49,0,0,1,98,0v63.43A49.05,49.05,0,0,1,3279.5,381.43Zm0-150.43a38,38,0,0,0-38,38v63.43a38,38,0,0,0,76,0V269A38,38,0,0,0,3279.5,231Z"/><path d="M3163.5,381.43a49.05,49.05,0,0,1-49-49V269a49,49,0,0,1,98,0v63.43A49.05,49.05,0,0,1,3163.5,381.43Zm0-150.43a38,38,0,0,0-38,38v63.43a38,38,0,0,0,76,0V269A38,38,0,0,0,3163.5,231Z"/><path class="cls-8" d="M3141.4,328.5c-.31-10.3,10.24-19,23.58-19.36s24.39,7.62,24.69,17.91"/><path class="cls-8" d="M3259.4,331.5c-.31-10.3,10.24-19,23.58-19.36s24.39,7.62,24.69,17.91"/><path d="M3279.5,381.43a49.05,49.05,0,0,1-49-49V269a49,49,0,0,1,98,0v63.43A49.05,49.05,0,0,1,3279.5,381.43Zm0-150.43a38,38,0,0,0-38,38v63.43a38,38,0,0,0,76,0V269A38,38,0,0,0,3279.5,231Z"/><path d="M3206.53,330.9a5,5,0,0,1-3.8-8.25,24,24,0,0,1,17-8.35,25.57,25.57,0,0,1,18.16,6.19,5,5,0,0,1-6.5,7.6,15.62,15.62,0,0,0-11.08-3.8,14,14,0,0,0-10,4.86A5,5,0,0,1,3206.53,330.9Z"/><path d="M3020.5,340.57l95.73-23.33,1.16,5.43L3021.66,346Z"/></svg>
