<svg xmlns="http://www.w3.org/2000/svg" width="310" height="440" viewBox="0 0 310 440"><defs><style>.cls-1{fill:#d8d2c3;}.cls-15,.cls-2{opacity:0.1;}.cls-3{fill:#ffebcc;}.cls-4{fill:#fff;}.cls-5{fill:#ccc;}.cls-6{fill:#020202;}.cls-7{fill:#f9f9f9;}.cls-8{fill:#eaeaea;}.cls-9{fill:#f4f3f2;}.cls-10{fill:#f4f4f4;}.cls-11{fill:#efefef;}.cls-12{fill:#403200;}.cls-13{fill:#f4f1ed;}.cls-14{fill:#c1bfbc;}.cls-16{fill:#e1a0ea;}.cls-17{fill:#cd8ddb;}</style></defs><title>liste_dyr</title><g id="karakteren"><rect class="cls-1" x="0.5" y="26.9" width="309" height="409.8" rx="45.13"/><path d="M39.24,74.25c-.52,0-1.13,0-1.82,0S36,74.11,35.25,74s-1.48-.2-2.21-.34a11.3,11.3,0,0,1-2-.57,3.4,3.4,0,0,1-2.51-3.33V48.49A2,2,0,0,1,29.05,47a3.74,3.74,0,0,1,1.43-.84,18,18,0,0,1,3.88-.8,46.65,46.65,0,0,1,4.79-.25c3.89,0,6.88.66,9,2a6.65,6.65,0,0,1,3.15,6.07,5.48,5.48,0,0,1-1.19,3.53,6.77,6.77,0,0,1-3.19,2.17,7.89,7.89,0,0,1,3.81,2.32,6.08,6.08,0,0,1,1.52,4.24,7.38,7.38,0,0,1-3.35,6.68C46.65,73.53,43.43,74.25,39.24,74.25Zm-3-17.56H39.6A4.45,4.45,0,0,0,42.45,56a2.58,2.58,0,0,0,.89-2.14,2.3,2.3,0,0,0-1-2,5.3,5.3,0,0,0-3.08-.73c-.46,0-1,0-1.57,0a12,12,0,0,0-1.4.13Zm0,11.13a8,8,0,0,0,1.65.25c.66.05,1.3.07,1.91.07a5.62,5.62,0,0,0,3-.75A2.57,2.57,0,0,0,44.07,65a2.33,2.33,0,0,0-1-2.14A5.77,5.77,0,0,0,40,62.26H36.27Z"/><path d="M55.38,59.66a16.51,16.51,0,0,1,1.12-6.3A12.64,12.64,0,0,1,64.11,46a17.28,17.28,0,0,1,11.36,0,13.34,13.34,0,0,1,4.58,2.8,12.93,12.93,0,0,1,3.08,4.58,16.7,16.7,0,0,1,1.12,6.3A17,17,0,0,1,83.15,66a12.77,12.77,0,0,1-3,4.61,13,13,0,0,1-4.58,2.8,16.76,16.76,0,0,1-5.75,1,16.53,16.53,0,0,1-5.75-1,12.77,12.77,0,0,1-4.56-2.85,13.27,13.27,0,0,1-3-4.61A16.86,16.86,0,0,1,55.38,59.66Zm8.21,0q0,4.14,1.69,6.2a5.52,5.52,0,0,0,4.51,2,5.59,5.59,0,0,0,4.56-2c1.12-1.37,1.69-3.44,1.69-6.2s-.56-4.79-1.67-6.16a5.52,5.52,0,0,0-4.54-2,5.64,5.64,0,0,0-4.53,2Q63.59,55.51,63.59,59.66Z"/><path d="M113.84,72.56a4.06,4.06,0,0,1-1.85,1,10.61,10.61,0,0,1-2.89.34,9.83,9.83,0,0,1-3.19-.5A4.41,4.41,0,0,1,103.44,71l-4.51-9.21q-.69-1.42-1.23-2.67c-.37-.84-.76-1.8-1.19-2.9l-.27.05c.12,1.64.19,3.31.2,5s0,3.38,0,5v7.07a13.27,13.27,0,0,1-1.53.27,15.63,15.63,0,0,1-2,.14,10.45,10.45,0,0,1-1.78-.14,2.67,2.67,0,0,1-1.28-.55A2.6,2.6,0,0,1,89.08,72a5.26,5.26,0,0,1-.28-1.85V47.3a3.85,3.85,0,0,1,2-1.37,8.68,8.68,0,0,1,2.82-.45,9.83,9.83,0,0,1,3.22.52,4.37,4.37,0,0,1,2.44,2.39l4.56,9.22c.45.94.86,1.83,1.23,2.66s.76,1.8,1.18,2.9l.23-.05c-.12-1.64-.2-3.28-.23-4.92s0-3.28,0-4.93V45.89a12.09,12.09,0,0,1,1.53-.28,15.48,15.48,0,0,1,2-.13,5.48,5.48,0,0,1,3.05.7q1,.7,1,2.94Z"/><path d="M130.25,74.25c-.51,0-1.11,0-1.77,0s-1.36-.09-2.08-.18-1.43-.2-2.14-.34a11.31,11.31,0,0,1-2-.57,3.39,3.39,0,0,1-2.5-3.33V48.49a2,2,0,0,1,.52-1.49,3.71,3.71,0,0,1,1.44-.84,19,19,0,0,1,4.15-.84c1.46-.14,2.76-.21,3.92-.21a22.37,22.37,0,0,1,6.45.87,13.3,13.3,0,0,1,5,2.67,12.07,12.07,0,0,1,3.22,4.53,16.83,16.83,0,0,1,1.14,6.48,16.93,16.93,0,0,1-1.1,6.36,12.28,12.28,0,0,1-3.12,4.56,13.15,13.15,0,0,1-4.86,2.76A20.16,20.16,0,0,1,130.25,74.25Zm-2.55-6.66c.34.06.75.12,1.23.16a13.38,13.38,0,0,0,1.37.07,8.43,8.43,0,0,0,2.85-.46A5.59,5.59,0,0,0,135.38,66a6.5,6.5,0,0,0,1.46-2.48,11.4,11.4,0,0,0,.53-3.68q0-4.09-1.92-6.17a6.58,6.58,0,0,0-5.1-2.08c-.43,0-.86,0-1.3.05s-.89.07-1.35.13Z"/><path d="M150.13,50.13a3.94,3.94,0,0,1,4.25-4.24h15a4.83,4.83,0,0,1,.57,1.32,5.79,5.79,0,0,1,.25,1.73,3.32,3.32,0,0,1-.75,2.46,2.7,2.7,0,0,1-2,.73h-9.62v4.24h10.26a5.93,5.93,0,0,1,.57,1.3,6,6,0,0,1,.25,1.71,3.45,3.45,0,0,1-.73,2.47,2.68,2.68,0,0,1-2,.73h-8.39v4.78h11.72a5.81,5.81,0,0,1,.57,1.33,6.08,6.08,0,0,1,.25,1.73,3.38,3.38,0,0,1-.76,2.48,2.64,2.64,0,0,1-2,.76H154.38a3.94,3.94,0,0,1-4.25-4.24Z"/><path d="M199.88,69a3.48,3.48,0,0,1-.5,2.09,5.12,5.12,0,0,1-1.59,1.33,10.84,10.84,0,0,1-1.6.7,17.54,17.54,0,0,1-2.1.6,23.9,23.9,0,0,1-2.39.38,23.38,23.38,0,0,1-2.49.14,20.78,20.78,0,0,1-6.15-.89,14,14,0,0,1-5-2.69,12.82,12.82,0,0,1-3.35-4.49,14.89,14.89,0,0,1-1.23-6.25,14.8,14.8,0,0,1,1.35-6.52,13.7,13.7,0,0,1,3.55-4.63A15,15,0,0,1,183.45,46a19.27,19.27,0,0,1,5.85-.91,14.43,14.43,0,0,1,6.87,1.39c1.68.93,2.53,2.14,2.53,3.63a3.58,3.58,0,0,1-.59,2,5.1,5.1,0,0,1-1.37,1.37,18.26,18.26,0,0,0-2.85-1.35,10.67,10.67,0,0,0-3.86-.66A8.35,8.35,0,0,0,184,53.73a8,8,0,0,0-2.26,6.06,9.51,9.51,0,0,0,.62,3.63A6.93,6.93,0,0,0,184,65.93a6.79,6.79,0,0,0,2.42,1.46,8.71,8.71,0,0,0,2.91.48,7.3,7.3,0,0,0,1.78-.19,4.37,4.37,0,0,0,1.19-.41V63h-4.88a7.1,7.1,0,0,1-.52-1.33,5.75,5.75,0,0,1-.26-1.73,3.21,3.21,0,0,1,.76-2.37,2.63,2.63,0,0,1,1.93-.73H197a2.61,2.61,0,0,1,2.87,2.87Z"/><path d="M211.47,46.71a9.2,9.2,0,0,1,2.34-.87,12.71,12.71,0,0,1,3.17-.41,11.45,11.45,0,0,1,4,.66,3.52,3.52,0,0,1,2.26,2.08c.54,1.58,1.14,3.42,1.78,5.51s1.27,4.27,1.91,6.5,1.26,4.44,1.87,6.61,1.14,4.1,1.6,5.77a3.8,3.8,0,0,1-1.65,1,7.71,7.71,0,0,1-2.59.39,8,8,0,0,1-1.85-.19,3.32,3.32,0,0,1-1.23-.54,2.84,2.84,0,0,1-.78-1,8,8,0,0,1-.52-1.37L221,67.77h-8.26c-.24.92-.48,1.86-.73,2.83s-.48,1.92-.73,2.83a12.4,12.4,0,0,1-1.34.39,8.28,8.28,0,0,1-1.71.16,6,6,0,0,1-3.44-.8A2.56,2.56,0,0,1,203.67,71a4.71,4.71,0,0,1,.18-1.28c.12-.43.26-.93.41-1.5.21-.83.51-1.84.89-3.06s.8-2.53,1.26-3.94.94-2.87,1.45-4.36,1-2.89,1.46-4.22.88-2.5,1.26-3.53S211.25,47.25,211.47,46.71Zm-.23-7.57a4.51,4.51,0,0,1,1.64-3.56,6.48,6.48,0,0,1,4.38-1.41,6.91,6.91,0,0,1,4.56,1.41,4.46,4.46,0,0,1,1.68,3.56,4.38,4.38,0,0,1-1.68,3.53,7,7,0,0,1-4.56,1.39,6.52,6.52,0,0,1-4.38-1.39A4.44,4.44,0,0,1,211.24,39.14Zm5.7,13.45-1.44,4.26q-.8,2.35-1.43,4.77h5.65c-.43-1.64-.86-3.25-1.3-4.81s-.84-3-1.21-4.22Zm-1.1-13.45a1.29,1.29,0,0,0,.44,1,1.48,1.48,0,0,0,1,.39,1.61,1.61,0,0,0,1.12-.39,1.29,1.29,0,0,0,.43-1,1.31,1.31,0,0,0-.43-1,1.61,1.61,0,0,0-1.12-.39,1.48,1.48,0,0,0-1,.39A1.32,1.32,0,0,0,215.84,39.14Z"/><path d="M242.11,64.58v8.76a13.1,13.1,0,0,1-1.57.27,17.15,17.15,0,0,1-2.12.14,9.24,9.24,0,0,1-1.85-.16,3.19,3.19,0,0,1-1.32-.57,2.53,2.53,0,0,1-.8-1.14,5.65,5.65,0,0,1-.28-1.92V48.49A2,2,0,0,1,234.7,47a3.71,3.71,0,0,1,1.44-.84,17.48,17.48,0,0,1,3.6-.8,37.74,37.74,0,0,1,4.38-.25q6.28,0,9.48,2.65a8.8,8.8,0,0,1,3.19,7.16,8,8,0,0,1-1.46,4.83,10.39,10.39,0,0,1-3.46,3.1q1.63,2.24,3.24,4.2a27.23,27.23,0,0,1,2.5,3.55A4.27,4.27,0,0,1,256,73a4.65,4.65,0,0,1-2.71.84,6,6,0,0,1-1.74-.22,4.21,4.21,0,0,1-1.27-.64,5.61,5.61,0,0,1-1-1,15,15,0,0,1-.86-1.28l-3.83-6.16ZM245,58.52a4,4,0,0,0,2.74-.89,3.31,3.31,0,0,0,1-2.62,3.16,3.16,0,0,0-1.12-2.63,5.67,5.67,0,0,0-3.53-.88,10.56,10.56,0,0,0-1.09,0c-.28,0-.58.08-.92.14v6.84Z"/><path d="M272.43,74.25c-.51,0-1.11,0-1.78,0s-1.36-.09-2.07-.18-1.43-.2-2.14-.34a11.31,11.31,0,0,1-2-.57,3.4,3.4,0,0,1-2.51-3.33V48.49a2,2,0,0,1,.53-1.49,3.71,3.71,0,0,1,1.44-.84,19,19,0,0,1,4.14-.84q2.19-.21,3.93-.21a22.37,22.37,0,0,1,6.45.87,13.3,13.3,0,0,1,5,2.67,12,12,0,0,1,3.21,4.53,16.83,16.83,0,0,1,1.14,6.48A16.94,16.94,0,0,1,286.66,66a12.28,12.28,0,0,1-3.12,4.56,13.23,13.23,0,0,1-4.86,2.76A20.25,20.25,0,0,1,272.43,74.25Zm-2.55-6.66c.33.06.74.12,1.23.16a13.38,13.38,0,0,0,1.37.07,8.43,8.43,0,0,0,2.85-.46A5.66,5.66,0,0,0,277.56,66,6.5,6.5,0,0,0,279,63.47a11.4,11.4,0,0,0,.53-3.68q0-4.09-1.92-6.17a6.6,6.6,0,0,0-5.11-2.08c-.42,0-.86,0-1.3.05s-.89.07-1.34.13Z"/><path class="cls-2" d="M309.5,72V316.39L106.6,26.9H264.37A45.25,45.25,0,0,1,309.5,72Z"/><rect class="cls-3" x="126.42" y="108.47" width="56.85" height="57.74" rx="17.48"/><rect class="cls-4" x="139.61" y="127.03" width="13.67" height="21.52" rx="5.63"/><rect class="cls-4" x="139.41" y="127.03" width="13.67" height="21.52" rx="5.63"/><ellipse cx="146.35" cy="141.73" rx="6.34" ry="6.61" transform="translate(-4.18 4.44) rotate(-1.72)"/><path class="cls-5" d="M142.82,143.34a2.23,2.23,0,0,1-2.23-2.24c0-3,2.8-5.45,6.26-5.45a2.24,2.24,0,0,1,0,4.47c-1.08,0-1.79.59-1.79,1A2.24,2.24,0,0,1,142.82,143.34Z"/><rect class="cls-4" x="157.06" y="127.03" width="13.67" height="21.52" rx="5.63"/><rect class="cls-4" x="156.86" y="127.03" width="13.67" height="21.52" rx="5.63"/><ellipse cx="163.8" cy="141.73" rx="6.34" ry="6.61" transform="translate(-4.17 4.97) rotate(-1.72)"/><path class="cls-5" d="M160.28,143.34A2.24,2.24,0,0,1,158,141.1c0-3,2.81-5.45,6.26-5.45a2.24,2.24,0,1,1,0,4.47c-1.07,0-1.78.59-1.78,1A2.24,2.24,0,0,1,160.28,143.34Z"/><circle class="cls-6" cx="155.07" cy="154.12" r="2.69"/><path class="cls-6" d="M159.32,162.84a5.24,5.24,0,0,1-5.37-5.08,1.12,1.12,0,0,1,2.24,0,3.15,3.15,0,0,0,6.27,0,1.12,1.12,0,1,1,2.24,0A5.24,5.24,0,0,1,159.32,162.84Z"/><path class="cls-6" d="M150.82,163.29a5.24,5.24,0,0,1-5.37-5.08,1.12,1.12,0,1,1,2.24,0,3.14,3.14,0,0,0,6.26,0,1.12,1.12,0,1,1,2.24,0A5.24,5.24,0,0,1,150.82,163.29Z"/><rect class="cls-6" x="153.28" y="153.23" width="3.58" height="8.06" rx="1.62"/><ellipse class="cls-3" cx="124.41" cy="131.52" rx="13.2" ry="5.66" transform="translate(-55.97 146.95) rotate(-51.48)"/><ellipse class="cls-3" cx="184.84" cy="128.38" rx="5.66" ry="13.2" transform="translate(-39.73 143.05) rotate(-38.52)"/><ellipse class="cls-7" cx="124.9" cy="105.77" rx="16.47" ry="9.06"/><ellipse class="cls-8" cx="146.02" cy="99.82" rx="12.93" ry="23.51" transform="translate(0.8 200.8) rotate(-69.17)"/><ellipse class="cls-9" cx="128.35" cy="117.31" rx="16.38" ry="11.44" transform="translate(-33.46 53.64) rotate(-20.95)"/><ellipse class="cls-7" cx="159.48" cy="92.05" rx="16.47" ry="12.35"/><ellipse class="cls-10" cx="177.05" cy="101.38" rx="16.47" ry="12.35" transform="translate(-26.87 94.79) rotate(-27.94)"/><ellipse class="cls-7" cx="168.51" cy="117.08" rx="8.02" ry="7.94" transform="translate(-33.43 153.44) rotate(-45)"/><ellipse class="cls-10" cx="185.04" cy="113.4" rx="11.69" ry="11.66" transform="translate(13.25 246.01) rotate(-69.17)"/><ellipse class="cls-11" cx="151.9" cy="113.9" rx="12.5" ry="13.65" transform="matrix(0.96, -0.28, 0.28, 0.96, -26.15, 47.99)"/><path class="cls-3" d="M156.27,270.64A14.66,14.66,0,0,1,141.62,256a3.14,3.14,0,0,1,6.28,0,8.37,8.37,0,1,0,16.74,0,3.14,3.14,0,0,1,6.28,0A14.66,14.66,0,0,1,156.27,270.64Z"/><ellipse class="cls-12" cx="175.31" cy="266.62" rx="14.12" ry="7.65" transform="matrix(0.5, -0.87, 0.87, 0.5, -143.24, 285.14)"/><ellipse class="cls-12" cx="136.58" cy="265.79" rx="7.62" ry="14.12" transform="translate(-114.6 103.9) rotate(-30)"/><rect class="cls-13" x="130.64" y="262.01" width="50.74" height="71.13" rx="17.26"/><rect class="cls-12" x="119.3" y="300.19" width="73.42" height="38.71" rx="9.12"/><circle class="cls-4" cx="147.9" cy="315.89" r="3.66"/><circle class="cls-4" cx="164.12" cy="315.89" r="3.66"/><rect class="cls-4" x="138.2" y="272.19" width="15.98" height="25.14" rx="6.58"/><rect class="cls-4" x="137.96" y="272.19" width="15.98" height="25.14" rx="6.58"/><ellipse cx="146.07" cy="289.38" rx="7.4" ry="7.72" transform="translate(-8.6 4.5) rotate(-1.72)"/><path class="cls-5" d="M142,291.26a2.62,2.62,0,0,1-2.62-2.62c0-3.51,3.28-6.37,7.32-6.37a2.62,2.62,0,0,1,0,5.23c-1.25,0-2.09.69-2.09,1.14A2.61,2.61,0,0,1,142,291.26Z"/><rect class="cls-4" x="158.6" y="272.19" width="15.98" height="25.14" rx="6.58"/><rect class="cls-4" x="158.36" y="272.19" width="15.98" height="25.14" rx="6.58"/><ellipse cx="166.47" cy="289.38" rx="7.4" ry="7.72" transform="translate(-8.59 5.11) rotate(-1.72)"/><path class="cls-5" d="M162.36,291.26a2.62,2.62,0,0,1-2.62-2.62c0-3.51,3.28-6.37,7.32-6.37a2.62,2.62,0,0,1,0,5.23c-1.26,0-2.09.69-2.09,1.14A2.61,2.61,0,0,1,162.36,291.26Z"/><path class="cls-14" d="M149,365.79l-16.33,7.55a2.08,2.08,0,0,1-3-2.07l1.63-17.92a2,2,0,0,1,1.32-1.74,2,2,0,0,1,1.94.23l14.71,10.37A2.07,2.07,0,0,1,149,365.79Z"/><g class="cls-15"><path d="M132.65,351.61l8.28,17.9-8.28,3.83a2.08,2.08,0,0,1-3-2.07l1.63-17.92A2,2,0,0,1,132.65,351.61Z"/></g><path class="cls-14" d="M163.22,369l16.34,7.56a2.08,2.08,0,0,0,2.94-2.08l-1.63-17.92a2.08,2.08,0,0,0-3.26-1.51L162.9,365.44A2.08,2.08,0,0,0,163.22,369Z"/><g class="cls-15"><path d="M179.55,354.84l-8.28,17.91,8.29,3.83a2.08,2.08,0,0,0,2.94-2.08l-1.63-17.92A2,2,0,0,0,179.55,354.84Z"/></g><ellipse class="cls-14" cx="155.04" cy="396.39" rx="34.41" ry="32.79"/><rect class="cls-4" x="138.85" y="379.05" width="14.11" height="22.2" rx="5.81"/><rect class="cls-4" x="138.65" y="379.05" width="14.11" height="22.2" rx="5.81"/><ellipse cx="145.81" cy="394.22" rx="6.54" ry="6.82" transform="translate(-11.74 4.54) rotate(-1.72)"/><path class="cls-5" d="M142.17,395.89a2.31,2.31,0,0,1-2.3-2.31c0-3.11,2.89-5.63,6.45-5.63a2.31,2.31,0,1,1,0,4.62c-1.1,0-1.84.6-1.84,1A2.31,2.31,0,0,1,142.17,395.89Z"/><rect class="cls-4" x="156.87" y="379.05" width="14.11" height="22.2" rx="5.81"/><rect class="cls-4" x="156.66" y="379.05" width="14.11" height="22.2" rx="5.81"/><ellipse cx="163.82" cy="394.22" rx="6.54" ry="6.82" transform="translate(-11.73 5.08) rotate(-1.72)"/><path class="cls-5" d="M160.19,395.89a2.31,2.31,0,0,1-2.31-2.31c0-3.11,2.89-5.63,6.45-5.63a2.31,2.31,0,0,1,0,4.62c-1.1,0-1.84.6-1.84,1A2.31,2.31,0,0,1,160.19,395.89Z"/><circle class="cls-6" cx="154.81" cy="410.24" r="2.77"/><path class="cls-6" d="M159.2,419.23a5.4,5.4,0,0,1-5.54-5.24,1.16,1.16,0,0,1,2.31,0,3.25,3.25,0,0,0,6.46,0,1.16,1.16,0,0,1,2.31,0A5.41,5.41,0,0,1,159.2,419.23Z"/><path class="cls-6" d="M150.42,419.7a5.41,5.41,0,0,1-5.54-5.25,1.16,1.16,0,0,1,2.31,0,3.25,3.25,0,0,0,6.47,0,1.16,1.16,0,0,1,2.31,0A5.42,5.42,0,0,1,150.42,419.7Z"/><rect class="cls-6" x="152.96" y="409.32" width="3.69" height="8.31" rx="1.67"/><ellipse class="cls-6" cx="156.17" cy="409.32" rx="5.5" ry="2.89" transform="translate(-276.39 339.91) rotate(-60)"/><ellipse class="cls-6" cx="152.99" cy="409.32" rx="2.89" ry="5.5" transform="translate(-184.16 131.33) rotate(-30)"/><rect class="cls-6" x="113.03" y="408.83" width="32.81" height="1.2" rx="0.6" transform="translate(25.39 -7.18) rotate(3.52)"/><rect class="cls-6" x="113.13" y="403.8" width="32.81" height="1.2" rx="0.6" transform="translate(92.11 -18.59) rotate(12.7)"/><rect class="cls-6" x="115.03" y="398.17" width="32.81" height="1.2" rx="0.6" transform="translate(199.72 -15.51) rotate(27.6)"/><rect class="cls-6" x="164.52" y="408.83" width="32.81" height="1.2" rx="0.6" transform="translate(386.66 806.98) rotate(176.48)"/><rect class="cls-6" x="164.43" y="403.8" width="32.81" height="1.2" rx="0.6" transform="translate(446.17 759.13) rotate(167.3)"/><rect class="cls-6" x="162.53" y="398.17" width="32.81" height="1.2" rx="0.6" transform="translate(522.26 669.24) rotate(152.4)"/><ellipse class="cls-16" cx="157.1" cy="212.68" rx="43.8" ry="27.89"/><ellipse class="cls-16" cx="180.25" cy="197.73" rx="27.23" ry="8.29" transform="translate(-78.51 265.78) rotate(-62.38)"/><ellipse class="cls-16" cx="139.63" cy="199.52" rx="8.29" ry="27.23" transform="translate(-76.58 87.46) rotate(-27.62)"/><rect class="cls-4" x="142.06" y="190.35" width="13.64" height="21.46" rx="5.61"/><rect class="cls-4" x="141.86" y="190.35" width="13.64" height="21.46" rx="5.61"/><ellipse cx="148.78" cy="205.01" rx="6.32" ry="6.59" transform="translate(-6.07 4.55) rotate(-1.72)"/><path class="cls-5" d="M145.27,206.62a2.23,2.23,0,0,1-2.23-2.23c0-3,2.8-5.44,6.24-5.44a2.23,2.23,0,1,1,0,4.46c-1.07,0-1.78.59-1.78,1A2.23,2.23,0,0,1,145.27,206.62Z"/><rect class="cls-4" x="159.47" y="190.35" width="13.64" height="21.46" rx="5.61"/><rect class="cls-4" x="159.27" y="190.35" width="13.64" height="21.46" rx="5.61"/><ellipse cx="166.19" cy="205.01" rx="6.32" ry="6.59" transform="translate(-6.06 5.07) rotate(-1.72)"/><path class="cls-5" d="M162.68,206.62a2.23,2.23,0,0,1-2.23-2.23c0-3,2.8-5.44,6.24-5.44a2.23,2.23,0,0,1,0,4.46c-1.07,0-1.78.59-1.78,1A2.23,2.23,0,0,1,162.68,206.62Z"/><ellipse class="cls-17" cx="157.26" cy="223.84" rx="15.84" ry="11.38"/><circle class="cls-4" cx="153.02" cy="221.39" r="2.68"/><circle class="cls-4" cx="161.95" cy="221.39" r="2.68"/><ellipse class="cls-3" cx="131" cy="21.8" rx="55.5" ry="18.5"/></g></svg>
