<svg xmlns="http://www.w3.org/2000/svg" width="210" height="80" viewBox="0 0 210 80"><defs><style>.cls-1{fill:#eaeaea;}.cls-2{fill:#b51222;}.cls-3{opacity:0.1;}</style></defs><title>liv</title><g id="forgrund_bord" data-name="forgrund bord"><rect class="cls-1" x="126.47" y="4.36" width="82.05" height="75.16" rx="7.52"/><path class="cls-2" d="M79.28,51.16C70.39,66.55,56.53,76,45,75.75l-.66,0a17.58,17.58,0,0,1-8-2.31c-12.48-7.21-13.47-28.85-2.22-48.35a61.2,61.2,0,0,1,10.2-13.2l.66-.62C55.47,1.38,68-2.4,77.07,2.81,89.54,10,90.53,31.67,79.28,51.16Z"/><path class="cls-2" d="M52.28,73.42A17.6,17.6,0,0,1,45,75.69l-.66,0c-11.7.62-25.93-8.89-35-24.57C-1.94,31.67-.95,10,11.52,2.81c9.22-5.31,22.12-1.27,32.77,9.06l.66.65a60.87,60.87,0,0,1,9.54,12.55C65.75,44.57,64.76,66.21,52.28,73.42Z"/><path class="cls-3" d="M45,11.25v64.5l-.66,0c-11.7.62-25.93-8.89-35-24.57C-1.94,31.67-.95,10,11.52,2.81c9.22-5.31,22.12-1.27,32.77,9.06Z"/></g></svg>
