<svg xmlns="http://www.w3.org/2000/svg" width="220" height="140" viewBox="0 0 220 140"><defs><style>.cls-1{fill:#e2e2e2;}.cls-2{fill:#d6d6d6;}.cls-3{fill:#229122;}.cls-4{fill:#ededed;}.cls-5{fill:#fff;}.cls-6{fill:#24a029;}.cls-7{fill:#eaeaea;}</style></defs><title>point</title><g id="forgrund_bord" data-name="forgrund bord"><path class="cls-1" d="M36.34,121l-22.81-37a22.27,22.27,0,0,1-2.65-12.5l7.77-57.83c.5-3.7,2.51-4.14,4.46-1l22.82,37a22.28,22.28,0,0,1,2.65,12.51l-7.77,57.82C40.31,123.77,38.3,124.21,36.34,121Z"/><path class="cls-2" d="M84.5,81.6,66.35,129.53c-1.55,4.11-3.76,4.7-4.9,1.32L43.68,78.09c-1.14-3.38-.8-9.51.76-13.62L62.59,16.54c1.55-4.11,3.76-4.7,4.9-1.32L85.26,68C86.4,71.36,86.06,77.49,84.5,81.6Z"/><path class="cls-3" d="M50.83,73.72l-1.5,56.56c-.14,5.25-2.74,6.06-5.77,1.79l-35-49.16A33.61,33.61,0,0,1,3.3,65.59L4.8,9C4.94,3.77,7.54,3,10.58,7.23l35,49.16A33.46,33.46,0,0,1,50.83,73.72Z"/><path class="cls-1" d="M100.49,107.83l-32.57,26c-2.79,2.23-5.75.64-6.57-3.53L48.49,65.23c-.83-4.18.78-9.41,3.58-11.64l32.56-26c2.8-2.23,5.75-.64,6.58,3.53l12.86,65.09C104.89,100.36,103.28,105.6,100.49,107.83Z"/><path class="cls-4" d="M103.64,119.14,56.7,131.35c-4,1.05-7.37-1.36-7.43-5.36l-1-62.33a10,10,0,0,1,7.2-9.17l46.94-12.21c4-1,7.36,1.37,7.43,5.36l1,62.34A10,10,0,0,1,103.64,119.14Z"/><rect class="cls-5" x="47.26" y="57.25" width="65.87" height="77.61" rx="7.83"/><rect class="cls-6" x="42.04" y="60.35" width="82.05" height="75.16" rx="7.52"/><rect class="cls-7" x="134.65" y="58.39" width="82.05" height="75.16" rx="7.52"/></g></svg>
