<svg xmlns="http://www.w3.org/2000/svg" width="1230" height="830" viewBox="0 0 1230 830"><defs><style>.cls-1{fill:#fcfcfc;}.cls-2{opacity:0.3;}.cls-3{fill:#a0a0a0;}</style></defs><title>setting</title><g id="setting"><rect x="3.5" y="3.78" width="1223" height="822.45" rx="84.44"/><rect class="cls-1" x="34.5" y="54.45" width="1108" height="745.11" rx="76.5"/><g class="cls-2"><path class="cls-3" d="M1106.5,225.2c-50.73,14.76-104.19-15.1-119.16-66.57a97.3,97.3,0,0,1,34-104.51H874.89a220.25,220.25,0,0,0,118.19,279.1,217.88,217.88,0,0,0,81.1,18.19,216.12,216.12,0,0,0,66.54-8.58c1.6-.46,3.2-.95,4.78-1.45V202.68A94.13,94.13,0,0,1,1106.5,225.2Z"/><rect class="cls-3" x="862.29" y="216.6" width="144.5" height="148.51" rx="48.17" transform="translate(332.86 -481.12) rotate(34.78)"/><path class="cls-3" d="M954.75,54.12a50.26,50.26,0,0,1-3.29,18.52l-18,47.55a51,51,0,0,1-65.6,29.51l-6.34-2.4-45.17-17.15a51,51,0,0,1-29.52-65.6l4-10.43Z"/><path class="cls-3" d="M1145.5,275.39V423.13l-2.35.68a46.15,46.15,0,0,1-57-31.33l-11.94-41.07-2-6.78a46.15,46.15,0,0,1,31.32-57Z"/></g><path d="M161.76,163.19q-4.87-1.66-8.88-3.39a27,27,0,0,1-6.88-4.16,17.26,17.26,0,0,1-4.49-5.83,19,19,0,0,1-1.61-8.27,18.15,18.15,0,0,1,7.27-15.09q7.26-5.67,20.37-5.66a56.09,56.09,0,0,1,8.88.66,26.52,26.52,0,0,1,7,2.06,12.28,12.28,0,0,1,4.61,3.55,8,8,0,0,1,1.67,5.05,8.88,8.88,0,0,1-1.34,4.94,14,14,0,0,1-3.22,3.5,24.59,24.59,0,0,0-6.55-2.72,32.66,32.66,0,0,0-9-1.17q-5,0-7.32,1.39a4,4,0,0,0-2.33,3.49,3.23,3.23,0,0,0,1.44,2.72,14.91,14.91,0,0,0,4.33,2l5.88,1.88q10.44,3.33,16,8.49t5.61,14a18.47,18.47,0,0,1-7.44,15.26q-7.44,5.82-21.87,5.83a50.55,50.55,0,0,1-9.49-.84,30.1,30.1,0,0,1-7.66-2.44,14.11,14.11,0,0,1-5.1-4,8.82,8.82,0,0,1-1.83-5.5,8.28,8.28,0,0,1,1.88-5.49,14.32,14.32,0,0,1,4.11-3.5,30.38,30.38,0,0,0,7.6,4.22,26.6,26.6,0,0,0,9.83,1.77c3.62,0,6.18-.55,7.66-1.66a4.81,4.81,0,0,0,2.22-3.89,3.81,3.81,0,0,0-1.78-3.38,22.7,22.7,0,0,0-5-2.28Z"/><path d="M203.83,133a9.59,9.59,0,0,1,10.32-10.33h36.63a13.47,13.47,0,0,1,1.39,3.22,14.26,14.26,0,0,1,.61,4.22q0,4.21-1.83,6a6.62,6.62,0,0,1-4.83,1.78H222.7V148.2h25a14.5,14.5,0,0,1,2,7.33q0,4.22-1.77,6a6.45,6.45,0,0,1-4.78,1.78H222.7V175h28.53a13.47,13.47,0,0,1,1.39,3.22,14.65,14.65,0,0,1,.61,4.22c0,2.82-.61,4.83-1.84,6.05a6.52,6.52,0,0,1-4.82,1.83H214.15A9.58,9.58,0,0,1,203.83,180Z"/><path d="M261.55,138.21a14,14,0,0,1-1.44-3.33,14.42,14.42,0,0,1-.67-4.44q0-4.32,1.94-6.21a7,7,0,0,1,5.05-1.89h48.4a14.35,14.35,0,0,1,1.44,3.33,14.51,14.51,0,0,1,.67,4.44q0,4.33-1.94,6.22a6.94,6.94,0,0,1-5.05,1.88H297.62V189.5a31,31,0,0,1-3.82.66,41.14,41.14,0,0,1-5.17.33,23.81,23.81,0,0,1-4.49-.38,8.09,8.09,0,0,1-3.28-1.39,6,6,0,0,1-2-2.78,13.33,13.33,0,0,1-.67-4.66V138.21Z"/><path d="M324.38,138.21a14.37,14.37,0,0,1-1.45-3.33,14.72,14.72,0,0,1-.66-4.44c0-2.88.64-5,1.94-6.21a6.93,6.93,0,0,1,5.05-1.89h48.4a15.26,15.26,0,0,1,1.44,3.33,14.82,14.82,0,0,1,.66,4.44c0,2.89-.64,5-1.94,6.22a6.92,6.92,0,0,1-5.05,1.88H360.45V189.5a30.91,30.91,0,0,1-3.83.66,41.11,41.11,0,0,1-5.16.33,24,24,0,0,1-4.5-.38,8.1,8.1,0,0,1-3.27-1.39,6,6,0,0,1-2-2.78,13.6,13.6,0,0,1-.66-4.66V138.21Z"/><path d="M408.62,189.5a30.91,30.91,0,0,1-3.83.66,41,41,0,0,1-5.16.33,23.81,23.81,0,0,1-4.49-.38,8.09,8.09,0,0,1-3.28-1.39,6,6,0,0,1-2-2.78,13.33,13.33,0,0,1-.67-4.66V122.67c.81-.14,2.11-.35,3.88-.61a35.35,35.35,0,0,1,5.11-.39,23.13,23.13,0,0,1,4.5.39,8,8,0,0,1,3.27,1.39,6,6,0,0,1,2,2.78,13.6,13.6,0,0,1,.66,4.66Z"/><path d="M484,187.61A10.11,10.11,0,0,1,479.5,190a26.32,26.32,0,0,1-7.05.83,24.51,24.51,0,0,1-7.77-1.22q-3.66-1.23-6-5.89l-11-22.42c-1.11-2.29-2.11-4.46-3-6.49s-1.85-4.39-2.89-7.05l-.66.11q.44,6,.5,12.21t.05,12.21V189.5a30.81,30.81,0,0,1-3.72.66,37.6,37.6,0,0,1-4.94.33,25.44,25.44,0,0,1-4.33-.33,6.56,6.56,0,0,1-3.1-1.33,6.34,6.34,0,0,1-1.89-2.72,12.75,12.75,0,0,1-.67-4.5v-55.5a9.37,9.37,0,0,1,4.78-3.33,21.2,21.2,0,0,1,6.88-1.11,23.92,23.92,0,0,1,7.82,1.28c2.48.85,4.46,2.8,5.94,5.83l11.1,22.42q1.67,3.45,3,6.49t2.89,7.05l.55-.11q-.45-6-.55-12t-.12-12v-18a31.58,31.58,0,0,1,3.72-.66,37.75,37.75,0,0,1,4.94-.34c3.26,0,5.74.58,7.44,1.72s2.55,3.54,2.55,7.16Z"/><path d="M559.36,179a8.69,8.69,0,0,1-1.22,5.11,12.75,12.75,0,0,1-3.89,3.22,25.09,25.09,0,0,1-3.88,1.72,43.46,43.46,0,0,1-5.11,1.44,57.51,57.51,0,0,1-11.87,1.28,50.53,50.53,0,0,1-15-2.17A33.94,33.94,0,0,1,506.25,183a31.05,31.05,0,0,1-8.16-10.93,36.21,36.21,0,0,1-3-15.21A36,36,0,0,1,498.37,141,33.39,33.39,0,0,1,507,129.72,36.24,36.24,0,0,1,519.34,123a46.56,46.56,0,0,1,14.27-2.22q10.54,0,16.7,3.38t6.16,8.83a8.62,8.62,0,0,1-1.44,5,11.72,11.72,0,0,1-3.33,3.33,45.14,45.14,0,0,0-6.94-3.27,25.88,25.88,0,0,0-9.38-1.61q-9.32,0-14.81,5.33t-5.5,14.76a23.49,23.49,0,0,0,1.5,8.82,16.84,16.84,0,0,0,4,6.11A16.52,16.52,0,0,0,526.5,175a21.3,21.3,0,0,0,7.11,1.17,18.77,18.77,0,0,0,4.33-.45,11.37,11.37,0,0,0,2.88-1V164.3H529a17.32,17.32,0,0,1-1.28-3.22,14.26,14.26,0,0,1-.61-4.22c0-2.66.61-4.59,1.83-5.77a6.51,6.51,0,0,1,4.72-1.78h18.76a6.37,6.37,0,0,1,7,7Z"/><path d="M177.37,455.54a7.71,7.71,0,0,1-2.68,1.4,12.79,12.79,0,0,1-3.8.52,13.44,13.44,0,0,1-4.76-.72,3.84,3.84,0,0,1-2.44-2.48q-2.24-7-3.68-11.4t-2.24-7.64h-.4q-.24,4.71-.36,8.6t-.16,7.56q0,3.67-.16,7.44c-.08,2.5-.2,5.28-.36,8.32a15.08,15.08,0,0,1-2.72.68,21.16,21.16,0,0,1-3.36.28,11.2,11.2,0,0,1-5.48-1.12q-2-1.12-2-4.08l2.32-40.8a7.62,7.62,0,0,1,2.8-2.24,12.67,12.67,0,0,1,6.08-1.2,13.88,13.88,0,0,1,6.64,1.32,7.79,7.79,0,0,1,3.52,4.28c.48,1.28,1,2.75,1.56,4.4s1.12,3.36,1.68,5.12,1.11,3.5,1.64,5.24l1.44,4.68h.4q1.92-6.72,3.84-13t3.52-10.52a12.59,12.59,0,0,1,3.08-1.08,18.06,18.06,0,0,1,4.2-.44,15.23,15.23,0,0,1,6.4,1.16,4.61,4.61,0,0,1,2.88,3.32c.21,1.06.44,2.7.68,4.92s.49,4.7.76,7.48.53,5.7.8,8.8.52,6.06.76,8.92.44,5.46.6,7.84.27,4.2.32,5.48a10.56,10.56,0,0,1-2.84,1.16,16.52,16.52,0,0,1-3.8.36,11.42,11.42,0,0,1-5.12-1c-1.39-.7-2.13-2.05-2.24-4.08q-.48-8.73-.6-15.68t-.36-11.68h-.4c-.53,2.08-1.31,4.69-2.32,7.84S178.81,450.63,177.37,455.54Z"/><path d="M250.57,449.54a20.26,20.26,0,0,1-1.48,7.88,16.71,16.71,0,0,1-4.28,6.08,19.36,19.36,0,0,1-6.8,3.88,30.72,30.72,0,0,1-18.08,0,19.36,19.36,0,0,1-6.8-3.88,16.59,16.59,0,0,1-4.28-6.08,20.26,20.26,0,0,1-1.48-7.88V419c.59-.11,1.52-.26,2.8-.44a25.09,25.09,0,0,1,3.68-.28,16.36,16.36,0,0,1,3.24.28,5.69,5.69,0,0,1,2.36,1,4.29,4.29,0,0,1,1.44,2,9.73,9.73,0,0,1,.48,3.36v24.4a8.21,8.21,0,0,0,2.12,6,8.08,8.08,0,0,0,11,0,8.28,8.28,0,0,0,2.08-6V419c.59-.11,1.52-.26,2.8-.44a25.09,25.09,0,0,1,3.68-.28,16.36,16.36,0,0,1,3.24.28,5.69,5.69,0,0,1,2.36,1,4.29,4.29,0,0,1,1.44,2,9.73,9.73,0,0,1,.48,3.36Z"/><path d="M274.49,448.18c-2.35-.8-4.48-1.62-6.4-2.44a19.72,19.72,0,0,1-5-3,12.49,12.49,0,0,1-3.24-4.2,13.74,13.74,0,0,1-1.16-6A13.08,13.08,0,0,1,264,421.7q5.23-4.08,14.68-4.08a40.13,40.13,0,0,1,6.4.48,19.07,19.07,0,0,1,5.08,1.48,8.81,8.81,0,0,1,3.32,2.56,5.79,5.79,0,0,1,1.2,3.64,6.42,6.42,0,0,1-1,3.56,10.34,10.34,0,0,1-2.32,2.52,18.12,18.12,0,0,0-4.72-2,23.74,23.74,0,0,0-6.48-.84,10.65,10.65,0,0,0-5.28,1,2.9,2.9,0,0,0-1.68,2.52,2.32,2.32,0,0,0,1,2,10.72,10.72,0,0,0,3.12,1.4l4.24,1.36q7.51,2.4,11.56,6.12t4,10.12a13.32,13.32,0,0,1-5.36,11q-5.37,4.2-15.76,4.2a36.59,36.59,0,0,1-6.84-.6,21.7,21.7,0,0,1-5.52-1.76,10.29,10.29,0,0,1-3.68-2.88,6.34,6.34,0,0,1-1.32-4,6,6,0,0,1,1.36-4,10,10,0,0,1,3-2.52,22,22,0,0,0,5.48,3,19.17,19.17,0,0,0,7.08,1.28q3.92,0,5.52-1.2a3.49,3.49,0,0,0,1.6-2.8,2.74,2.74,0,0,0-1.28-2.44,16.71,16.71,0,0,0-3.6-1.64Z"/><path d="M318.81,467.14a22.45,22.45,0,0,1-2.76.48,29.51,29.51,0,0,1-3.72.24,17.15,17.15,0,0,1-3.24-.28,5.76,5.76,0,0,1-2.36-1,4.34,4.34,0,0,1-1.44-2,9.81,9.81,0,0,1-.48-3.36V419c.58-.11,1.52-.26,2.8-.44a25,25,0,0,1,3.68-.28,16.5,16.5,0,0,1,3.24.28,5.69,5.69,0,0,1,2.36,1,4.29,4.29,0,0,1,1.44,2,9.73,9.73,0,0,1,.48,3.36Z"/><path d="M343.29,449.46v17.68a22.35,22.35,0,0,1-2.8.48,30.38,30.38,0,0,1-3.76.24,17.15,17.15,0,0,1-3.24-.28,5.76,5.76,0,0,1-2.36-1,4.34,4.34,0,0,1-1.44-2,9.81,9.81,0,0,1-.48-3.36V419c.58-.11,1.52-.26,2.8-.44a25,25,0,0,1,3.68-.28,16.5,16.5,0,0,1,3.24.28,5.69,5.69,0,0,1,2.36,1,4.29,4.29,0,0,1,1.44,2,9.73,9.73,0,0,1,.48,3.36v12.72l16.64-19.12q5.43,0,7.8,2a6.21,6.21,0,0,1,2.36,4.84,7.9,7.9,0,0,1-1,3.92,21.19,21.19,0,0,1-3.36,4.16l-10,10q2,2.24,4.2,4.64t4.32,4.68q2.12,2.28,4.08,4.36l3.4,3.6a7.37,7.37,0,0,1-.64,3.12,7.24,7.24,0,0,1-1.72,2.32,7.36,7.36,0,0,1-2.44,1.44,8.62,8.62,0,0,1-2.88.48,8.4,8.4,0,0,1-5.36-1.64,29.08,29.08,0,0,1-4-3.88Z"/><path d="M157.29,582a6.91,6.91,0,0,1-7.44-7.44V533.22c.59-.11,1.52-.25,2.8-.44a25.09,25.09,0,0,1,3.68-.28,16.36,16.36,0,0,1,3.24.28,5.82,5.82,0,0,1,2.36,1,4.34,4.34,0,0,1,1.44,2,9.73,9.73,0,0,1,.48,3.36v31.6h18.32a10.64,10.64,0,0,1,1,2.36,9.92,9.92,0,0,1,.48,3.08c0,2.13-.45,3.64-1.36,4.52a5,5,0,0,1-3.6,1.32Z"/><path d="M211,581.46a22.22,22.22,0,0,1-2.72.48,27.9,27.9,0,0,1-3.6.24,9.94,9.94,0,0,1-5.52-1.24c-1.23-.83-1.84-2.57-1.84-5.24V564.9q-2-3-4.32-6.56T188.41,551c-1.49-2.51-2.88-5-4.16-7.4a68,68,0,0,1-3.12-6.68,10.85,10.85,0,0,1,2.84-2.64,7.83,7.83,0,0,1,4.44-1.2,9.17,9.17,0,0,1,5.08,1.28,11.92,11.92,0,0,1,3.72,4.8l6.64,13.36h.48q1.13-2.47,2-4.52c.56-1.36,1.11-2.72,1.64-4.08s1.09-2.77,1.68-4.24,1.25-3.16,2-5.08a14.36,14.36,0,0,1,3.2-1.12,14.93,14.93,0,0,1,3.36-.4,7.65,7.65,0,0,1,4.76,1.48,5.21,5.21,0,0,1,2,4.44,8.35,8.35,0,0,1-.4,2.32,26.16,26.16,0,0,1-1.84,4.12q-1.44,2.76-4.2,7.48T211,565.22Z"/><path d="M249.85,583.06c-.91,0-1.95,0-3.12-.08s-2.39-.16-3.64-.32-2.51-.36-3.76-.6a18.4,18.4,0,0,1-3.48-1c-2.94-1.12-4.4-3.07-4.4-5.84V537.86a3.48,3.48,0,0,1,.92-2.6,6.52,6.52,0,0,1,2.52-1.48,33.33,33.33,0,0,1,7.28-1.48q3.84-.36,6.88-.36a39.55,39.55,0,0,1,11.32,1.52,23.27,23.27,0,0,1,8.72,4.68,21.26,21.26,0,0,1,5.64,8,33.33,33.33,0,0,1,.08,22.52,21.59,21.59,0,0,1-5.48,8,23.08,23.08,0,0,1-8.52,4.84A35.77,35.77,0,0,1,249.85,583.06Zm-4.48-11.68c.58.11,1.3.2,2.16.28s1.65.12,2.4.12a15.11,15.11,0,0,0,5-.8,10.05,10.05,0,0,0,3.92-2.48,11.56,11.56,0,0,0,2.56-4.36,20,20,0,0,0,.92-6.44q0-7.2-3.36-10.84a11.6,11.6,0,0,0-9-3.64c-.75,0-1.51,0-2.28.08s-1.56.13-2.36.24Z"/><path d="M284.73,540.74a6.91,6.91,0,0,1,7.44-7.44h26.4a10,10,0,0,1,1,2.32,10.44,10.44,0,0,1,.44,3q0,3-1.32,4.32a4.8,4.8,0,0,1-3.48,1.28H298.33v7.44h18a10.26,10.26,0,0,1,1,2.28,10,10,0,0,1,.44,3c0,2-.43,3.47-1.28,4.32a4.67,4.67,0,0,1-3.44,1.28H298.33V571h20.56a10,10,0,0,1,1,2.32,10.44,10.44,0,0,1,.44,3c0,2-.44,3.48-1.32,4.36a4.7,4.7,0,0,1-3.48,1.32H292.17a6.91,6.91,0,0,1-7.44-7.44Z"/><path d="M362.65,533.3a9.87,9.87,0,0,1,1,2.36,10.87,10.87,0,0,1,.44,3.08q0,3.12-1.32,4.44a4.82,4.82,0,0,1-3.56,1.32h-16.8v9h17.52a8.23,8.23,0,0,1,1.08,2.32,10.44,10.44,0,0,1,.44,3c0,2-.44,3.48-1.32,4.36a4.82,4.82,0,0,1-3.56,1.32h-14v16.88a22.45,22.45,0,0,1-2.76.48,29.51,29.51,0,0,1-3.72.24,16.36,16.36,0,0,1-3.24-.28,5.76,5.76,0,0,1-2.36-1,4.34,4.34,0,0,1-1.44-2,9.73,9.73,0,0,1-.48-3.36v-34.8A6.91,6.91,0,0,1,336,533.3Z"/><path d="M405.13,533.3a9.87,9.87,0,0,1,1,2.36,10.87,10.87,0,0,1,.44,3.08q0,3.12-1.32,4.44a4.82,4.82,0,0,1-3.56,1.32h-16.8v9h17.52a8.23,8.23,0,0,1,1.08,2.32,10.44,10.44,0,0,1,.44,3c0,2-.44,3.48-1.32,4.36a4.82,4.82,0,0,1-3.56,1.32h-14v16.88a22.45,22.45,0,0,1-2.76.48,29.51,29.51,0,0,1-3.72.24,16.36,16.36,0,0,1-3.24-.28,5.76,5.76,0,0,1-2.36-1,4.34,4.34,0,0,1-1.44-2,9.73,9.73,0,0,1-.48-3.36v-34.8a6.91,6.91,0,0,1,7.44-7.44Z"/><path d="M413.53,540.74A6.91,6.91,0,0,1,421,533.3h26.4a10,10,0,0,1,1,2.32,10.44,10.44,0,0,1,.44,3q0,3-1.32,4.32a4.8,4.8,0,0,1-3.48,1.28H427.13v7.44h18a10.26,10.26,0,0,1,1,2.28,10,10,0,0,1,.44,3c0,2-.43,3.47-1.28,4.32a4.67,4.67,0,0,1-3.44,1.28H427.13V571h20.56a10,10,0,0,1,1,2.32,10.44,10.44,0,0,1,.44,3c0,2-.44,3.48-1.32,4.36a4.7,4.7,0,0,1-3.48,1.32H421a6.91,6.91,0,0,1-7.44-7.44Z"/><path d="M471.44,563.78v17.68a22,22,0,0,1-2.8.48,30.26,30.26,0,0,1-3.76.24,16.5,16.5,0,0,1-3.24-.28,5.82,5.82,0,0,1-2.36-1,4.34,4.34,0,0,1-1.44-2,9.73,9.73,0,0,1-.48-3.36V533.3c.59-.11,1.52-.25,2.8-.44a25.09,25.09,0,0,1,3.68-.28,16.36,16.36,0,0,1,3.24.28,5.76,5.76,0,0,1,2.36,1,4.34,4.34,0,0,1,1.44,2,9.73,9.73,0,0,1,.48,3.36v12.72L488,532.82q5.44,0,7.8,2a6.18,6.18,0,0,1,2.36,4.84,7.77,7.77,0,0,1-1,3.92,20.21,20.21,0,0,1-3.36,4.16l-10,10q2,2.24,4.2,4.64l4.32,4.68,4.08,4.36,3.4,3.6a7.22,7.22,0,0,1-.64,3.12,7,7,0,0,1-1.72,2.32,7.26,7.26,0,0,1-2.44,1.44,8.53,8.53,0,0,1-2.88.48,8.44,8.44,0,0,1-5.36-1.64,29.06,29.06,0,0,1-4-3.88Z"/><path d="M504.32,544.5a11.28,11.28,0,0,1-1.52-5.6c0-2.08.47-3.57,1.4-4.48a5,5,0,0,1,3.64-1.36h34.88a10.2,10.2,0,0,1,1,2.4,10.55,10.55,0,0,1,.48,3.2c0,2.08-.46,3.57-1.4,4.48a5,5,0,0,1-3.64,1.36h-8.88v37a21.75,21.75,0,0,1-2.76.48,29.27,29.27,0,0,1-3.72.24,16.5,16.5,0,0,1-3.24-.28,5.82,5.82,0,0,1-2.36-1,4.34,4.34,0,0,1-1.44-2,9.73,9.73,0,0,1-.48-3.36v-31Z"/><path d="M551,540.74a6.91,6.91,0,0,1,7.44-7.44h26.4a9.25,9.25,0,0,1,1,2.32,10.12,10.12,0,0,1,.44,3q0,3-1.32,4.32a4.8,4.8,0,0,1-3.48,1.28H564.64v7.44h18a9.41,9.41,0,0,1,1,2.28,9.72,9.72,0,0,1,.44,3c0,2-.42,3.47-1.28,4.32a4.66,4.66,0,0,1-3.44,1.28H564.64V571H585.2a9.25,9.25,0,0,1,1,2.32,10.12,10.12,0,0,1,.44,3c0,2-.44,3.48-1.32,4.36a4.7,4.7,0,0,1-3.48,1.32H558.48a6.91,6.91,0,0,1-7.44-7.44Z"/><path d="M608.8,566.1v15.36a21.75,21.75,0,0,1-2.76.48,29.27,29.27,0,0,1-3.72.24,16.5,16.5,0,0,1-3.24-.28,5.53,5.53,0,0,1-2.32-1,4.49,4.49,0,0,1-1.4-2,9.73,9.73,0,0,1-.48-3.36V537.86a3.52,3.52,0,0,1,.92-2.6,6.68,6.68,0,0,1,2.52-1.48,29.89,29.89,0,0,1,6.32-1.4,64.08,64.08,0,0,1,7.68-.44q11,0,16.64,4.64t5.6,12.56a14,14,0,0,1-2.56,8.48,18.25,18.25,0,0,1-6.08,5.44q2.88,3.91,5.68,7.36a46.06,46.06,0,0,1,4.4,6.24,7.49,7.49,0,0,1-2.92,4.28,8.16,8.16,0,0,1-4.76,1.48,10.52,10.52,0,0,1-3-.4A7.47,7.47,0,0,1,623,580.9a9.46,9.46,0,0,1-1.76-1.76,23.7,23.7,0,0,1-1.52-2.24L613,566.1Zm5-10.64a7,7,0,0,0,4.8-1.56,5.8,5.8,0,0,0,1.76-4.6,5.51,5.51,0,0,0-2-4.6q-2-1.56-6.2-1.56a19.17,19.17,0,0,0-1.92.08c-.48,0-1,.13-1.6.24v12Z"/></g></svg>
