<svg xmlns="http://www.w3.org/2000/svg" width="480" height="80" viewBox="0 0 480 80"><defs><style>.cls-1{fill:#fff;}.cls-2{fill:#e6c85e;}</style></defs><title>setting_knap_startskaerm</title><g id="Ekstra_til_startsk" data-name="Ekstra til startsk"><path class="cls-1" d="M152.69,46.73q-4-1.35-7.2-2.74a22.11,22.11,0,0,1-5.58-3.38,14,14,0,0,1-3.64-4.72A15.56,15.56,0,0,1,135,29.18a14.73,14.73,0,0,1,5.9-12.24q5.89-4.59,16.51-4.59a45,45,0,0,1,7.2.54,21.5,21.5,0,0,1,5.72,1.67A9.94,9.94,0,0,1,174,17.44a6.51,6.51,0,0,1,1.35,4.09,7.22,7.22,0,0,1-1.08,4,11.2,11.2,0,0,1-2.61,2.83,20.36,20.36,0,0,0-5.31-2.2,26.63,26.63,0,0,0-7.29-1,12,12,0,0,0-5.94,1.13,3.27,3.27,0,0,0-1.89,2.83,2.63,2.63,0,0,0,1.17,2.21A12.17,12.17,0,0,0,155.93,33l4.77,1.53q8.46,2.7,13,6.89t4.54,11.38a15,15,0,0,1-6,12.38q-6,4.73-17.73,4.72a41.24,41.24,0,0,1-7.69-.67,24.36,24.36,0,0,1-6.21-2A11.48,11.48,0,0,1,136.45,64,7.14,7.14,0,0,1,135,59.51a6.74,6.74,0,0,1,1.53-4.45,11.68,11.68,0,0,1,3.33-2.84A24.51,24.51,0,0,0,146,55.64a21.46,21.46,0,0,0,8,1.44q4.41,0,6.21-1.35a3.89,3.89,0,0,0,1.8-3.15,3.07,3.07,0,0,0-1.44-2.74A18.62,18.62,0,0,0,156.47,48Z"/><path class="cls-1" d="M186.8,22.25a8.27,8.27,0,0,1,2.25-6.12,8.27,8.27,0,0,1,6.12-2.25h29.7A10.76,10.76,0,0,1,226,16.49a11.64,11.64,0,0,1,.49,3.42q0,3.42-1.48,4.86a5.4,5.4,0,0,1-3.92,1.44h-19v8.37h20.25a10.94,10.94,0,0,1,1.13,2.57,11.16,11.16,0,0,1,.49,3.37q0,3.42-1.44,4.86a5.23,5.23,0,0,1-3.87,1.44H202.1v9.45h23.13a10.76,10.76,0,0,1,1.13,2.61,11.64,11.64,0,0,1,.49,3.42q0,3.42-1.48,4.91a5.3,5.3,0,0,1-3.92,1.48H195.17a7.77,7.77,0,0,1-8.37-8.37Z"/><path class="cls-1" d="M233.6,26.48a11.65,11.65,0,0,1-1.17-2.7,11.88,11.88,0,0,1-.54-3.6q0-3.51,1.58-5a5.62,5.62,0,0,1,4.09-1.53H276.8a11.65,11.65,0,0,1,1.17,2.7,11.88,11.88,0,0,1,.54,3.6q0,3.51-1.57,5a5.64,5.64,0,0,1-4.1,1.53h-10V68.06a24.87,24.87,0,0,1-3.1.54,33.1,33.1,0,0,1-4.19.27,18.72,18.72,0,0,1-3.64-.31,6.5,6.5,0,0,1-2.66-1.13,4.86,4.86,0,0,1-1.62-2.25,11,11,0,0,1-.54-3.78V26.48Z"/><path class="cls-1" d="M284.54,26.48a11.65,11.65,0,0,1-1.17-2.7,11.88,11.88,0,0,1-.54-3.6q0-3.51,1.58-5a5.62,5.62,0,0,1,4.09-1.53h39.24a11.65,11.65,0,0,1,1.17,2.7,11.88,11.88,0,0,1,.54,3.6c0,2.34-.53,4-1.57,5a5.64,5.64,0,0,1-4.1,1.53h-10V68.06a25.23,25.23,0,0,1-3.1.54,33.1,33.1,0,0,1-4.19.27,18.72,18.72,0,0,1-3.64-.31,6.5,6.5,0,0,1-2.66-1.13,4.86,4.86,0,0,1-1.62-2.25A11,11,0,0,1,298,61.4V26.48Z"/><path class="cls-1" d="M352.85,68.06a24.87,24.87,0,0,1-3.1.54,33.1,33.1,0,0,1-4.19.27,18.65,18.65,0,0,1-3.64-.31,6.5,6.5,0,0,1-2.66-1.13,4.86,4.86,0,0,1-1.62-2.25,11,11,0,0,1-.54-3.78V13.88c.66-.12,1.71-.28,3.15-.49a28.74,28.74,0,0,1,4.14-.32,18.77,18.77,0,0,1,3.65.32,6.51,6.51,0,0,1,2.65,1.12,4.86,4.86,0,0,1,1.62,2.25,11,11,0,0,1,.54,3.78Z"/><path class="cls-1" d="M414,66.53a8.26,8.26,0,0,1-3.64,1.94,21.28,21.28,0,0,1-5.72.67,19.79,19.79,0,0,1-6.3-1q-3-1-4.86-4.77L384.53,45.2q-1.35-2.79-2.43-5.26t-2.34-5.72l-.54.09q.36,4.86.4,9.9t.05,9.9v14a25.28,25.28,0,0,1-3,.54,30.35,30.35,0,0,1-4,.27,20.37,20.37,0,0,1-3.51-.27,5.38,5.38,0,0,1-2.52-1.08,5.18,5.18,0,0,1-1.53-2.2,10.3,10.3,0,0,1-.54-3.65v-45a7.53,7.53,0,0,1,3.87-2.7,17,17,0,0,1,5.58-.9,19.38,19.38,0,0,1,6.34,1,8.59,8.59,0,0,1,4.82,4.72l9,18.18q1.35,2.79,2.43,5.27T398.93,48l.45-.09q-.36-4.86-.45-9.72t-.09-9.72V13.88a24.76,24.76,0,0,1,3-.54,30.2,30.2,0,0,1,4-.27,10.79,10.79,0,0,1,6,1.4q2.07,1.39,2.07,5.8Z"/><path class="cls-1" d="M475.07,59.51a7,7,0,0,1-1,4.14,10.25,10.25,0,0,1-3.15,2.61,19.91,19.91,0,0,1-3.15,1.4,34.13,34.13,0,0,1-4.14,1.17,44.52,44.52,0,0,1-4.73.76,45.11,45.11,0,0,1-4.9.27,40.88,40.88,0,0,1-12.15-1.75A27.67,27.67,0,0,1,432,62.8a25.21,25.21,0,0,1-6.61-8.87A29.36,29.36,0,0,1,423,41.6a29.26,29.26,0,0,1,2.65-12.87,27,27,0,0,1,7-9.13,29.4,29.4,0,0,1,10-5.45,37.75,37.75,0,0,1,11.57-1.8q8.55,0,13.54,2.75t5,7.15a7,7,0,0,1-1.17,4.05,9.63,9.63,0,0,1-2.7,2.7,37.07,37.07,0,0,0-5.63-2.65,20.92,20.92,0,0,0-7.6-1.31q-7.56,0-12,4.32t-4.45,12a19.13,19.13,0,0,0,1.21,7.16,13.63,13.63,0,0,0,3.29,4.95,13.38,13.38,0,0,0,4.77,2.88,17.31,17.31,0,0,0,5.76.94,15.41,15.41,0,0,0,3.51-.36,9.44,9.44,0,0,0,2.34-.81V47.63h-9.63a14.24,14.24,0,0,1-1-2.61,11.64,11.64,0,0,1-.49-3.42q0-3.24,1.48-4.68a5.28,5.28,0,0,1,3.83-1.44H469.4a5.18,5.18,0,0,1,5.67,5.67Z"/><rect class="cls-1" x="4.93" y="4.35" width="111" height="71.29" rx="28.88"/><path class="cls-2" d="M62.65,63.55A23.28,23.28,0,1,1,85.78,40.27,23.23,23.23,0,0,1,62.65,63.55Zm0-33.58A10.3,10.3,0,1,0,72.8,40.27,10.24,10.24,0,0,0,62.65,30Z"/><rect class="cls-2" x="55.17" y="9.48" width="15.53" height="15.96" rx="5.18"/><rect class="cls-2" x="76.41" y="20.3" width="13.52" height="13.9" rx="4.51" transform="translate(52.01 -54.54) rotate(51)"/><rect class="cls-2" x="35.55" y="44.3" width="15.31" height="15.74" rx="5.1" transform="matrix(0.63, 0.78, -0.78, 0.63, 56.55, -14.24)"/><rect class="cls-2" x="35.05" y="19.31" width="16.17" height="16.62" rx="5.39" transform="translate(-4.88 45.44) rotate(-53)"/><rect class="cls-2" x="75.26" y="43.65" width="15.48" height="15.91" rx="5.16" transform="translate(-8.16 86.83) rotate(-53)"/><rect class="cls-2" x="55.62" y="56.83" width="14.62" height="15.03" rx="4.87"/></g></svg>
