<svg xmlns="http://www.w3.org/2000/svg" width="60" height="70" viewBox="0 0 60 70"><defs><style>.cls-1{fill:#666;}</style></defs><title>setting knap </title><g id="setting_knap" data-name="setting knap"><path class="cls-1" d="M29.78,57.88A23.28,23.28,0,1,1,52.92,34.6,23.23,23.23,0,0,1,29.78,57.88Zm0-33.58A10.3,10.3,0,1,0,39.94,34.6,10.23,10.23,0,0,0,29.78,24.3Z"/><rect class="cls-1" x="22.31" y="3.81" width="15.53" height="15.96" rx="5.18"/><rect class="cls-1" x="43.55" y="14.63" width="13.52" height="13.9" rx="4.51" transform="translate(35.42 -31.1) rotate(51)"/><rect class="cls-1" x="2.69" y="38.62" width="15.31" height="15.74" rx="5.1" transform="translate(39.97 9.19) rotate(51)"/><rect class="cls-1" x="2.18" y="13.64" width="16.17" height="16.62" rx="5.39" transform="translate(-13.44 16.94) rotate(-53)"/><rect class="cls-1" x="42.39" y="37.98" width="15.48" height="15.91" rx="5.16" transform="translate(-16.72 58.32) rotate(-53)"/><rect class="cls-1" x="22.76" y="51.16" width="14.62" height="15.03" rx="4.87"/></g></svg>