<svg xmlns="http://www.w3.org/2000/svg" width="570" height="340" viewBox="0 0 570 340"><defs><style>.cls-1{fill:#463807;}.cls-2{fill:#4f3e0f;}.cls-3{opacity:0.1;}.cls-4{fill:#e2e2e2;}.cls-5{fill:#d6d6d6;}.cls-6{fill:#229122;}.cls-7{fill:#ededed;}.cls-8{fill:#fff;}.cls-9{fill:#24a029;}.cls-10{fill:#eaeaea;}.cls-11{fill:#b51222;}</style></defs><title>skrivebord forgrund</title><g id="forgrund_bord" data-name="forgrund bord"><path class="cls-1" d="M527.35,41.05V328.5c0,5.91-4.19,10.75-9.32,10.75H1.5V30.3H518C523.16,30.3,527.35,35.14,527.35,41.05Z"/><path class="cls-2" d="M568.5,14.31V36.44c0,7.46-5.29,13.56-11.76,13.56H1.5V.75H556.74C563.21.75,568.5,6.85,568.5,14.31Z"/><polygon class="cls-3" points="203.19 0.75 186.77 30.3 175.83 50 15.14 339.25 1.5 339.25 1.5 0.75 203.19 0.75"/><path class="cls-4" d="M65.14,186.19l-22.81-37a22.16,22.16,0,0,1-2.65-12.5l7.77-57.82c.5-3.71,2.51-4.15,4.46-1l22.81,37a22.08,22.08,0,0,1,2.65,12.5L69.6,185.22C69.11,188.93,67.1,189.37,65.14,186.19Z"/><path class="cls-5" d="M113.3,146.75,95.15,194.68c-1.55,4.11-3.76,4.71-4.9,1.32L72.48,143.24c-1.14-3.38-.8-9.51.76-13.61L91.39,81.69c1.55-4.1,3.76-4.7,4.9-1.32l17.77,52.76C115.2,136.51,114.86,142.64,113.3,146.75Z"/><path class="cls-6" d="M79.63,138.87l-1.5,56.56c-.14,5.26-2.74,6.07-5.78,1.8l-35-49.17a33.52,33.52,0,0,1-5.27-17.32l1.5-56.56c.14-5.26,2.74-6.07,5.78-1.8l35,49.17A33.43,33.43,0,0,1,79.63,138.87Z"/><path class="cls-4" d="M129.29,173,96.72,199c-2.79,2.23-5.75.64-6.57-3.53L77.29,130.38c-.83-4.17.78-9.41,3.58-11.64l32.56-26c2.8-2.23,5.75-.64,6.58,3.53l12.86,65.1C133.69,165.52,132.08,170.75,129.29,173Z"/><path class="cls-7" d="M132.44,184.29,85.5,196.51c-4,1-7.37-1.37-7.43-5.36l-1-62.34a9.93,9.93,0,0,1,7.2-9.16l46.93-12.21c4-1,7.37,1.36,7.44,5.35l1,62.34A9.91,9.91,0,0,1,132.44,184.29Z"/><rect class="cls-8" x="76.06" y="122.4" width="65.87" height="77.61" rx="7.83"/><rect class="cls-9" x="70.84" y="125.5" width="82.05" height="75.16" rx="7.52"/><rect class="cls-10" x="163.45" y="123.54" width="82.05" height="75.16" rx="7.52"/><rect class="cls-10" x="163.45" y="228.59" width="82.05" height="75.16" rx="7.52"/><path class="cls-11" d="M116.26,275.38c-8.89,15.39-22.75,24.84-34.33,24.59l-.66,0a17.66,17.66,0,0,1-8-2.31c-12.47-7.21-13.46-28.85-2.21-48.35a60.58,60.58,0,0,1,10.2-13.2l.66-.62C92.45,225.6,105,221.82,114,227,126.52,234.24,127.51,255.89,116.26,275.38Z"/><path class="cls-11" d="M89.26,297.64a17.65,17.65,0,0,1-7.33,2.27l-.66,0c-11.7.62-25.93-8.89-35-24.57C35,255.89,36,234.24,48.5,227c9.22-5.32,22.12-1.28,32.77,9.05l.66.65a60.87,60.87,0,0,1,9.54,12.55C102.73,268.79,101.74,290.43,89.26,297.64Z"/><path class="cls-3" d="M81.93,235.47V300l-.66,0c-11.7.62-25.93-8.89-35-24.57C35,255.89,36,234.24,48.5,227c9.22-5.32,22.12-1.28,32.77,9.05Z"/></g></svg>
