<svg xmlns="http://www.w3.org/2000/svg" width="80" height="80" viewBox="0 0 80 80"><defs><style>.cls-1{fill:#666;}</style></defs><title>spil igen knap </title><g id="menu_og_replay" data-name="menu og replay"><path class="cls-1" d="M41.15,78.14a35.46,35.46,0,0,1-6.46-.6A34.7,34.7,0,0,1,12.28,63,11,11,0,1,1,30.42,50.52a12.93,12.93,0,1,0,3.35-18A11,11,0,0,1,21.32,14.41,34.92,34.92,0,1,1,60.84,72,34.65,34.65,0,0,1,41.15,78.14Z"/><path class="cls-1" d="M25.61,3.34a3.92,3.92,0,0,1,6.71,1l6.13,15.53,6.13,15.54a3.91,3.91,0,0,1-4.21,5.31L23.85,38.26,7.33,35.8a3.91,3.91,0,0,1-2.49-6.3L15.22,16.42Z"/></g></svg>
