<svg id="startskærm" xmlns="http://www.w3.org/2000/svg" width="1600" height="900" viewBox="0 0 1600 900"><defs><style>.cls-1{fill:#1f97a3;}.cls-2{fill:#513a70;}.cls-3{fill:#ffebcc;}.cls-4{fill:#403200;}.cls-5{fill:none;stroke:#000;stroke-miterlimit:10;stroke-width:11px;}.cls-6{fill:#fff;}.cls-7{fill:#ccc;}.cls-8{fill:#1f7499;}.cls-9{fill:#ebddc5;}.cls-10{fill:#e6d4b7;}.cls-11{fill:#e6c85e;}.cls-12{fill:#b2630c;}.cls-13{fill:#bc6bda;}.cls-14{fill:#0075aa;}.cls-15{fill:#209959;}.cls-16{fill:#a83344;}</style></defs><title>startskærm</title><rect class="cls-1" x="-16" y="-22" width="1649" height="945" rx="12"/><rect class="cls-2" x="385" y="35" width="1198" height="261" rx="12"/><circle class="cls-3" cx="403.92" cy="556.86" r="295.07"/><path d="M385.43,779.6a46.36,46.36,0,0,1-29.75-10.93,50.62,50.62,0,0,1-17.83-33.21,5,5,0,0,1,9.93-1.17A40.63,40.63,0,0,0,362.08,761a36.27,36.27,0,0,0,27.6,8.37,5,5,0,1,1,1.17,9.93A47,47,0,0,1,385.43,779.6Z"/><ellipse class="cls-4" cx="204.26" cy="258.94" rx="212.18" ry="172.4" transform="translate(-78.61 89.36) rotate(-20.79)"/><ellipse class="cls-4" cx="134.6" cy="618.58" rx="50.05" ry="152.66" transform="translate(-194.75 77.95) rotate(-19.07)"/><ellipse class="cls-4" cx="282.38" cy="417.96" rx="243.46" ry="141.12" transform="translate(-186.17 231.18) rotate(-34.22)"/><ellipse class="cls-4" cx="534.72" cy="346.86" rx="75.72" ry="177.37" transform="translate(6.86 704.09) rotate(-67.06)"/><rect class="cls-5" x="547.31" y="439.99" width="144.22" height="249.37" rx="43.5"/><rect class="cls-6" x="384.03" y="482.26" width="112.72" height="177.37" rx="34"/><path d="M455.73,694.86H398.52a49.05,49.05,0,0,1-49-49V483.49a49.05,49.05,0,0,1,49-49h57.21a49.05,49.05,0,0,1,49,49V645.86A49.05,49.05,0,0,1,455.73,694.86ZM398.52,445.49a38,38,0,0,0-38,38V645.86a38,38,0,0,0,38,38h57.21a38,38,0,0,0,38-38V483.49a38,38,0,0,0-38-38Z"/><ellipse cx="444.55" cy="605.14" rx="52.23" ry="54.49" transform="translate(-17.91 13.58) rotate(-1.72)"/><path class="cls-7" d="M413.39,621.65a5,5,0,0,1-4.25-2.37C400,604.5,407.08,583.47,425,572.39a5,5,0,1,1,5.26,8.5c-13.19,8.17-18.84,23-12.59,33.12a5,5,0,0,1-4.25,7.64Z"/><rect class="cls-6" x="562.49" y="476.9" width="105.88" height="166.6" rx="34"/><path d="M648,694.86H590.81a49.05,49.05,0,0,1-49-49V483.49a49.05,49.05,0,0,1,49-49H648a49.05,49.05,0,0,1,49,49V645.86A49.05,49.05,0,0,1,648,694.86ZM590.81,445.49a38,38,0,0,0-38,38V645.86a38,38,0,0,0,38,38H648a38,38,0,0,0,38-38V483.49a38,38,0,0,0-38-38Z"/><ellipse cx="619.34" cy="592.31" rx="49.06" ry="51.18" transform="translate(-17.45 18.8) rotate(-1.72)"/><path class="cls-7" d="M590.08,608.12a5,5,0,0,1-4.26-2.37c-8.69-14-2-34,15-44.46a5,5,0,0,1,5.26,8.5c-12.25,7.59-17.51,21.36-11.73,30.69a5,5,0,0,1-4.24,7.64Z"/><path d="M498.46,611.43a5,5,0,0,1-3.8-8.25C508,587.54,532.09,586.1,548.29,600a5,5,0,1,1-6.5,7.6c-12-10.27-29.74-9.32-39.53,2.13A5,5,0,0,1,498.46,611.43Z"/><rect class="cls-3" x="384.03" y="823.74" width="41.44" height="127.64" rx="11.5"/><ellipse class="cls-8" cx="315.28" cy="924.45" rx="71.61" ry="53.06" transform="translate(-97.96 39.44) rotate(-6.2)"/><ellipse class="cls-8" cx="501.01" cy="924.45" rx="53.06" ry="71.61" transform="translate(-472.13 1322.74) rotate(-83.8)"/><path class="cls-6" d="M408.44,1001.4l.9.14c-11.47,5.17-17.41-2.38-23.1-15L359.09,931.7l-39-40.83c-5.7-12.63-1-27.2,10.5-32.37l11.23-5.06c11.47-5.16,25.51.95,31.2,13.59l45.95,102C424.63,981.67,419.91,996.24,408.44,1001.4Z"/><path class="cls-6" d="M400,1001.05l-.9.14c11.27,5.21,17.25-2.29,23.07-14.85l27.68-54.51L489,891.35c5.82-12.57,1.36-27.12-9.9-32.34l-11-5.11c-11.27-5.21-25.25.8-31.07,13.37l-47,101.44C384.25,981.28,388.71,995.83,400,1001.05Z"/><path d="M190.08,630.74l158.69-38.67,1.92,9L192,639.74Z"/><rect class="cls-8" x="752.67" y="674.9" width="31.1" height="321.61" rx="12" transform="translate(1027.17 -269.51) rotate(55.78)"/><ellipse class="cls-3" cx="1007" cy="743.5" rx="126" ry="17.5"/><ellipse class="cls-9" cx="990.36" cy="744.74" rx="14.53" ry="109.88" transform="translate(177.59 1680.09) rotate(-85.95)"/><ellipse class="cls-10" cx="949" cy="748.5" rx="15.5" ry="69" transform="translate(102.43 1611.15) rotate(-83.8)"/><rect class="cls-11" x="1020.39" y="399.39" width="119" height="542.21" rx="17.29" transform="translate(1750.39 -409.39) rotate(90)"/><rect class="cls-12" x="1043.26" y="343.26" width="44.76" height="490.73" rx="12" transform="translate(1654.26 -477.01) rotate(90)"/><rect class="cls-13" x="1001.55" y="-1.55" width="51.9" height="647" rx="12" transform="translate(1349.45 -705.55) rotate(90)"/><rect class="cls-14" x="1021.51" y="189.17" width="67.98" height="591" rx="12" transform="translate(1540.17 -570.84) rotate(90)"/><rect class="cls-15" x="972.19" y="111.86" width="103.67" height="573.96" rx="17" transform="translate(1422.86 -625.19) rotate(90)"/><rect class="cls-16" x="840.36" y="518.65" width="439.08" height="47.59" rx="8"/><path class="cls-6" d="M462.77,220.88c-1.79,0-3.9-.06-6.32-.16s-4.93-.32-7.51-.63-5.13-.71-7.66-1.19a36.81,36.81,0,0,1-6.95-2q-8.68-3.31-8.69-11.54V131.61a6.92,6.92,0,0,1,1.82-5.14,13,13,0,0,1,5-2.92,60.72,60.72,0,0,1,13.43-2.77,157.4,157.4,0,0,1,16.59-.86q20.22,0,31.13,6.79t10.9,21A19,19,0,0,1,500.37,160a23.45,23.45,0,0,1-11.06,7.5,27.46,27.46,0,0,1,13.2,8.06,21.12,21.12,0,0,1,5.29,14.7q0,15.63-11.61,23.14T462.77,220.88ZM452.5,160.05H464q6.8,0,9.88-2.53t3.08-7.43a7.93,7.93,0,0,0-3.56-6.79q-3.56-2.52-10.66-2.53c-1.58,0-3.4.06-5.45.16a41.08,41.08,0,0,0-4.82.47Zm0,38.55a28.41,28.41,0,0,0,5.69.87q3.46.24,6.63.24a19.52,19.52,0,0,0,10.51-2.61q4.19-2.61,4.19-8.14c0-3.47-1.16-6-3.48-7.42s-5.84-2.22-10.58-2.22h-13Z"/><path class="cls-6" d="M551.09,217.72a46,46,0,0,1-5.45.95,59.23,59.23,0,0,1-7.35.47,33.62,33.62,0,0,1-6.4-.55,11.41,11.41,0,0,1-4.66-2,8.53,8.53,0,0,1-2.84-4,19,19,0,0,1-.95-6.63V122.6q1.74-.31,5.53-.87a50.22,50.22,0,0,1,7.27-.55,32.9,32.9,0,0,1,6.4.55,11.41,11.41,0,0,1,4.66,2,8.53,8.53,0,0,1,2.84,4,19.28,19.28,0,0,1,1,6.63Z"/><path class="cls-6" d="M608.76,220.88c-1.8,0-3.9-.06-6.32-.16s-4.93-.32-7.51-.63-5.13-.71-7.66-1.19a36.81,36.81,0,0,1-6.95-2q-8.7-3.31-8.69-11.54V131.61a7,7,0,0,1,1.81-5.14,13,13,0,0,1,5-2.92,60.72,60.72,0,0,1,13.43-2.77,157.11,157.11,0,0,1,16.59-.86q20.22,0,31.13,6.79t10.9,21A19,19,0,0,1,646.36,160a23.45,23.45,0,0,1-11.06,7.5,27.43,27.43,0,0,1,13.19,8.06,21.08,21.08,0,0,1,5.3,14.7q0,15.63-11.62,23.14T608.76,220.88Zm-10.27-60.83H610q6.79,0,9.88-2.53t3.08-7.43a7.93,7.93,0,0,0-3.56-6.79q-3.55-2.52-10.66-2.53c-1.58,0-3.4.06-5.45.16a41.08,41.08,0,0,0-4.82.47Zm0,38.55a28.41,28.41,0,0,0,5.69.87q3.47.24,6.63.24a19.55,19.55,0,0,0,10.51-2.61q4.18-2.61,4.19-8.14c0-3.47-1.17-6-3.48-7.42s-5.85-2.22-10.59-2.22h-13Z"/><path class="cls-6" d="M684.12,218.82q-6.79,0-10.74-3.95t-4-10.74V122.44c1.15-.21,3-.5,5.53-.87a51.67,51.67,0,0,1,7.27-.55,33.51,33.51,0,0,1,6.39.55,11.4,11.4,0,0,1,4.67,2,8.58,8.58,0,0,1,2.84,4,19.35,19.35,0,0,1,1,6.64v62.41h36.18a20.5,20.5,0,0,1,2,4.66,19.33,19.33,0,0,1,1,6.08q0,6.32-2.68,8.93a9.84,9.84,0,0,1-7.12,2.6Z"/><path class="cls-6" d="M778.13,217.72a46,46,0,0,1-5.45.95,59.23,59.23,0,0,1-7.35.47,33.62,33.62,0,0,1-6.4-.55,11.41,11.41,0,0,1-4.66-2,8.53,8.53,0,0,1-2.84-4,19,19,0,0,1-.95-6.63V122.6q1.74-.31,5.53-.87a50.22,50.22,0,0,1,7.27-.55,32.9,32.9,0,0,1,6.4.55,11.41,11.41,0,0,1,4.66,2,8.53,8.53,0,0,1,2.84,4,19.28,19.28,0,0,1,1,6.63Z"/><path class="cls-6" d="M793.93,170.32a57.35,57.35,0,0,1,3.87-21.81,43.89,43.89,0,0,1,26.38-25.59,60,60,0,0,1,39.35,0,45.91,45.91,0,0,1,15.88,9.71,44.78,44.78,0,0,1,10.66,15.88,57.35,57.35,0,0,1,3.87,21.81,59,59,0,0,1-3.79,21.88,44.22,44.22,0,0,1-10.51,16,45.08,45.08,0,0,1-15.88,9.72,58.07,58.07,0,0,1-19.9,3.31A56.89,56.89,0,0,1,824,217.8a44.43,44.43,0,0,1-15.8-9.88,45.61,45.61,0,0,1-10.43-16A57.85,57.85,0,0,1,793.93,170.32Zm28.44,0q0,14.37,5.84,21.49t15.65,7.11q9.95,0,15.8-7.11t5.84-21.49q0-14.22-5.77-21.33T844,141.88q-9.79,0-15.72,7T822.37,170.32Z"/><path class="cls-6" d="M902.47,144.72a20.32,20.32,0,0,1-2.05-4.74,20.93,20.93,0,0,1-.95-6.32c0-4.11.92-7,2.77-8.85a9.85,9.85,0,0,1,7.18-2.68h68.89a20.29,20.29,0,0,1,2.06,4.74,20.93,20.93,0,0,1,1,6.32c0,4.11-.93,7.06-2.77,8.85a9.88,9.88,0,0,1-7.19,2.68H953.82v73a45.63,45.63,0,0,1-5.45.95,59,59,0,0,1-7.34.47,33.55,33.55,0,0,1-6.4-.55,11.4,11.4,0,0,1-4.67-2,8.53,8.53,0,0,1-2.84-4,19.25,19.25,0,0,1-1-6.63V144.72Z"/><path class="cls-6" d="M994.74,137.3q0-6.8,4-10.75t10.75-4h52.14a19.36,19.36,0,0,1,2,4.58,20.46,20.46,0,0,1,.87,6c0,4-.87,6.85-2.6,8.53a9.45,9.45,0,0,1-6.88,2.53H1021.6v14.69h35.55a19.11,19.11,0,0,1,2,4.5,19.68,19.68,0,0,1,.87,5.93c0,4-.85,6.85-2.53,8.53a9.17,9.17,0,0,1-6.79,2.53H1021.6V197h40.61a18.94,18.94,0,0,1,2,4.58,20.79,20.79,0,0,1,.86,6c0,4-.86,6.87-2.6,8.61a9.33,9.33,0,0,1-6.88,2.6h-46.13q-6.8,0-10.75-3.95t-4-10.74Z"/><path class="cls-6" d="M1109.13,182.8v34.92a45.75,45.75,0,0,1-5.53.95,60.85,60.85,0,0,1-7.42.47,33.55,33.55,0,0,1-6.4-.55,11.35,11.35,0,0,1-4.66-2,8.55,8.55,0,0,1-2.85-4,19.27,19.27,0,0,1-.94-6.63V122.6c1.15-.21,3-.5,5.53-.87a50.08,50.08,0,0,1,7.26-.55,32.75,32.75,0,0,1,6.4.55,11.3,11.3,0,0,1,4.66,2,8.48,8.48,0,0,1,2.85,4,19.28,19.28,0,0,1,1,6.63v25.13l32.86-37.77q10.74,0,15.41,4a12.3,12.3,0,0,1,4.66,9.56,15.47,15.47,0,0,1-2.06,7.74,40.17,40.17,0,0,1-6.63,8.22L1133.47,171q3.94,4.43,8.29,9.16t8.53,9.25q4.18,4.5,8.06,8.61t6.72,7.11a14.33,14.33,0,0,1-1.27,6.16,14,14,0,0,1-3.39,4.58,14.54,14.54,0,0,1-4.82,2.85,17.07,17.07,0,0,1-5.69.94,16.59,16.59,0,0,1-10.59-3.24,56.11,56.11,0,0,1-7.9-7.66Z"/><path class="cls-6" d="M1200.77,125.45a33.29,33.29,0,0,1,8.14-3,43.65,43.65,0,0,1,11-1.42,39.63,39.63,0,0,1,14,2.29q6.09,2.3,7.83,7.19,2.83,8.22,6.16,19.12t6.63,22.51q3.33,11.63,6.48,22.91t5.53,20a13,13,0,0,1-5.69,3.56,27.12,27.12,0,0,1-9,1.34,27.71,27.71,0,0,1-6.4-.63,11.3,11.3,0,0,1-4.27-1.9,9.32,9.32,0,0,1-2.68-3.32,28,28,0,0,1-1.82-4.74l-2.85-10.9H1205.2q-1.28,4.74-2.53,9.8t-2.53,9.79a39.61,39.61,0,0,1-4.66,1.35,27.89,27.89,0,0,1-5.93.55q-8.05,0-11.92-2.77a8.87,8.87,0,0,1-3.88-7.66,15.7,15.7,0,0,1,.64-4.42c.42-1.48.89-3.21,1.42-5.22q1.1-4.26,3.08-10.58t4.35-13.67q2.37-7.35,5-15.09t5.06-14.61q2.37-6.89,4.34-12.25T1200.77,125.45Zm19,20.38q-2.2,6.63-5,14.77t-5,16.51h19.59q-2.22-8.54-4.5-16.67t-4.19-14.61Z"/><path class="cls-6" d="M1307,187.38v30.34a46,46,0,0,1-5.45.95,59.23,59.23,0,0,1-7.35.47,33.62,33.62,0,0,1-6.4-.55,10.73,10.73,0,0,1-4.58-2,8.85,8.85,0,0,1-2.77-4,19.27,19.27,0,0,1-.94-6.63V131.61a7,7,0,0,1,1.81-5.14,13,13,0,0,1,5-2.92,59.5,59.5,0,0,1,12.48-2.77,127.26,127.26,0,0,1,15.17-.86q21.81,0,32.86,9.16t11.06,24.81a27.67,27.67,0,0,1-5,16.74,36.33,36.33,0,0,1-12,10.75q5.68,7.74,11.22,14.53a94.44,94.44,0,0,1,8.69,12.33,14.92,14.92,0,0,1-5.77,8.45,16,16,0,0,1-9.4,2.92,20.06,20.06,0,0,1-6-.79,14.37,14.37,0,0,1-4.43-2.21,18.09,18.09,0,0,1-3.47-3.47,45.78,45.78,0,0,1-3-4.43l-13.27-21.33Zm10-21q6,0,9.48-3.08c2.32-2.06,3.48-5.08,3.48-9.09s-1.29-7-3.87-9.08-6.67-3.08-12.25-3.08a37.85,37.85,0,0,0-3.79.15c-1,.11-2,.27-3.16.48v23.7Z"/><path class="cls-6" d="M1375.68,137.3q0-6.8,4-10.75t10.74-4h52.14a18.94,18.94,0,0,1,2,4.58,20.79,20.79,0,0,1,.87,6c0,4-.87,6.85-2.61,8.53a9.44,9.44,0,0,1-6.87,2.53h-33.34v14.69h35.55a20.49,20.49,0,0,1,2.84,10.43c0,4-.84,6.85-2.53,8.53a9.15,9.15,0,0,1-6.79,2.53h-29.07V197h40.6a18.94,18.94,0,0,1,2,4.58,20.46,20.46,0,0,1,.87,6q0,6-2.61,8.61a9.32,9.32,0,0,1-6.87,2.6h-46.14q-6.8,0-10.74-3.95t-4-10.74Z"/><path class="cls-6" d="M1549,215a14.37,14.37,0,0,1-6.4,3.4,37.2,37.2,0,0,1-10,1.18,35,35,0,0,1-11.06-1.73q-5.22-1.74-8.53-8.38l-15.65-31.91q-2.37-4.91-4.26-9.25t-4.11-10l-1,.16q.63,8.53.71,17.38t.08,17.38v24.49a45.93,45.93,0,0,1-5.29.95,54.25,54.25,0,0,1-7,.47,36.34,36.34,0,0,1-6.16-.47,9.49,9.49,0,0,1-4.43-1.9,9.12,9.12,0,0,1-2.68-3.87,18.07,18.07,0,0,1-1-6.4v-79a13.17,13.17,0,0,1,6.79-4.74,30,30,0,0,1,9.8-1.58A34.1,34.1,0,0,1,1490,123q5.29,1.81,8.45,8.29l15.8,31.92q2.37,4.89,4.27,9.24t4.11,10l.79-.15q-.65-8.54-.79-17.07t-.16-17.06V122.6a45.93,45.93,0,0,1,5.29-.95,54.13,54.13,0,0,1,7-.47c4.64,0,8.16.82,10.59,2.45s3.63,5,3.63,10.19Z"/></svg>
