<svg xmlns="http://www.w3.org/2000/svg" width="400" height="80" viewBox="0 0 400 80"><defs><style>.cls-1{fill:#fff;}.cls-2{fill:#209959;}</style></defs><title>start knap startskaerm</title><g id="Ekstra_til_startsk" data-name="Ekstra til startsk"><path class="cls-1" d="M22.85,48.9C20.12,48,17.64,47,15.41,46.06a23.11,23.11,0,0,1-5.77-3.48,14.48,14.48,0,0,1-3.76-4.89,16,16,0,0,1-1.35-6.93,15.22,15.22,0,0,1,6.09-12.64q6.09-4.76,17.07-4.75a46.88,46.88,0,0,1,7.44.56A22.27,22.27,0,0,1,41,15.65a10.36,10.36,0,0,1,3.86,3,6.75,6.75,0,0,1,1.4,4.23A7.49,7.49,0,0,1,45.17,27a11.45,11.45,0,0,1-2.7,2.93A20.86,20.86,0,0,0,37,27.65a27.63,27.63,0,0,0-7.54-1c-2.79,0-4.83.39-6.14,1.17a3.38,3.38,0,0,0-1.95,2.92A2.7,2.7,0,0,0,22.57,33a12.47,12.47,0,0,0,3.63,1.63l4.93,1.58Q39.86,39,44.57,43.37t4.69,11.76A15.5,15.5,0,0,1,43,67.92Q36.81,72.8,24.71,72.8a42.23,42.23,0,0,1-7.95-.7,25,25,0,0,1-6.42-2,12,12,0,0,1-4.28-3.35,7.36,7.36,0,0,1-1.53-4.6A7,7,0,0,1,6.11,57.5a12.14,12.14,0,0,1,3.44-2.93,25.14,25.14,0,0,0,6.37,3.54,22.26,22.26,0,0,0,8.23,1.49q4.56,0,6.42-1.4a4,4,0,0,0,1.86-3.26,3.19,3.19,0,0,0-1.49-2.83,19.37,19.37,0,0,0-4.18-1.91Z"/><path class="cls-1" d="M54.28,28a12.08,12.08,0,0,1-1.2-2.79,12,12,0,0,1-.56-3.72c0-2.41.54-4.15,1.63-5.2a5.77,5.77,0,0,1,4.23-1.58H98.92a11.63,11.63,0,0,1,1.21,2.79,12,12,0,0,1,.56,3.72c0,2.41-.54,4.15-1.63,5.2A5.77,5.77,0,0,1,94.83,28H84.51v43a25.6,25.6,0,0,1-3.21.56,35.32,35.32,0,0,1-4.32.28,19.09,19.09,0,0,1-3.77-.33,6.51,6.51,0,0,1-2.74-1.16A5,5,0,0,1,68.79,68a11.35,11.35,0,0,1-.56-3.9V28Z"/><path class="cls-1" d="M116.87,16.63a19.84,19.84,0,0,1,4.79-1.77,25.48,25.48,0,0,1,6.47-.84,23.47,23.47,0,0,1,8.23,1.35A7.17,7.17,0,0,1,141,19.6q1.68,4.84,3.63,11.26t3.9,13.25q2,6.84,3.82,13.49t3.25,11.76a7.57,7.57,0,0,1-3.35,2.09,15.78,15.78,0,0,1-5.3.79,16.13,16.13,0,0,1-3.76-.37,6.62,6.62,0,0,1-2.51-1.12,5.28,5.28,0,0,1-1.58-2A16,16,0,0,1,138,66l-1.68-6.41H119.48c-.5,1.85-1,3.78-1.49,5.76s-1,3.91-1.49,5.77a24.34,24.34,0,0,1-2.74.79,16.6,16.6,0,0,1-3.49.32q-4.74,0-7-1.62A5.25,5.25,0,0,1,101,66.1a9.78,9.78,0,0,1,.37-2.6c.25-.87.53-1.89.84-3.07.43-1.67,1-3.75,1.81-6.23s1.63-5.16,2.56-8,1.92-5.85,3-8.89,2-5.9,3-8.6,1.78-5.1,2.56-7.21S116.44,17.74,116.87,16.63Zm11.16,12q-1.29,3.9-2.93,8.69C124,40.52,123,43.75,122.18,47h11.53q-1.31-5-2.65-9.81t-2.47-8.6Z"/><path class="cls-1" d="M179.37,53.08V70.94a25.6,25.6,0,0,1-3.21.56,35.32,35.32,0,0,1-4.32.28,19.09,19.09,0,0,1-3.77-.33,6.23,6.23,0,0,1-2.7-1.16A5.15,5.15,0,0,1,163.75,68a11.11,11.11,0,0,1-.56-3.9V20.26a4.08,4.08,0,0,1,1.07-3,7.73,7.73,0,0,1,2.93-1.72,34.9,34.9,0,0,1,7.34-1.62,73.9,73.9,0,0,1,8.93-.52q12.84,0,19.35,5.4t6.51,14.6a16.35,16.35,0,0,1-3,9.86,21.4,21.4,0,0,1-7.07,6.32q3.34,4.56,6.61,8.56A55.58,55.58,0,0,1,211,65.36a8.79,8.79,0,0,1-3.39,5,9.52,9.52,0,0,1-5.54,1.72,11.88,11.88,0,0,1-3.53-.47,8.62,8.62,0,0,1-2.61-1.3,10.71,10.71,0,0,1-2-2.05,26.88,26.88,0,0,1-1.77-2.6L184.3,53.08Zm5.86-12.36a8.13,8.13,0,0,0,5.58-1.82,6.77,6.77,0,0,0,2-5.34,6.42,6.42,0,0,0-2.27-5.35c-1.52-1.21-3.93-1.82-7.21-1.82a21.25,21.25,0,0,0-2.23.1c-.56.06-1.18.15-1.86.28v14Z"/><path class="cls-1" d="M215.83,28a11.63,11.63,0,0,1-1.21-2.79,12,12,0,0,1-.56-3.72c0-2.41.54-4.15,1.63-5.2a5.77,5.77,0,0,1,4.23-1.58h40.55a12.08,12.08,0,0,1,1.2,2.79,12,12,0,0,1,.56,3.72c0,2.41-.54,4.15-1.63,5.2A5.77,5.77,0,0,1,256.37,28H246.05v43a25.6,25.6,0,0,1-3.21.56,35.32,35.32,0,0,1-4.32.28,19.09,19.09,0,0,1-3.77-.33A6.56,6.56,0,0,1,232,70.29,5,5,0,0,1,230.33,68a11.35,11.35,0,0,1-.56-3.9V28Z"/><rect class="cls-1" x="284.47" y="4.35" width="111" height="71.29" rx="28.88"/><path class="cls-2" d="M367.94,43.12l-36.44,21A3.69,3.69,0,0,1,326,61V18.88a3.68,3.68,0,0,1,5.53-3.19l36.44,21A3.69,3.69,0,0,1,367.94,43.12Z"/></g></svg>
