<svg xmlns="http://www.w3.org/2000/svg" width="1600" height="900" viewBox="0 0 1600 900"><defs><style>.cls-1{fill:#1f97a3;}.cls-2{fill:#513a70;}.cls-3{fill:#ffebcc;}.cls-4{fill:#403200;}.cls-5{fill:none;stroke:#000;stroke-miterlimit:10;stroke-width:11px;}.cls-6{fill:#fff;}.cls-7{fill:#ccc;}.cls-8{fill:#1f7499;}.cls-9{fill:#ebddc5;}.cls-10{fill:#e6d4b7;}.cls-11{fill:#e6c85e;}.cls-12{fill:#b2630c;}.cls-13{fill:#bc6bda;}.cls-14{fill:#0075aa;}.cls-15{fill:#209959;}.cls-16{fill:#a83344;}</style></defs><title>startskærm</title><g id="startskærm"><rect class="cls-1" x="-16" y="-22" width="1649" height="945" rx="12"/><rect class="cls-2" x="385" y="35" width="1198" height="261" rx="12"/><circle class="cls-3" cx="403.92" cy="556.86" r="295.07"/><path d="M385.43,779.6a46.36,46.36,0,0,1-29.75-10.93,50.62,50.62,0,0,1-17.83-33.21,5,5,0,0,1,9.93-1.17A40.63,40.63,0,0,0,362.08,761a36.27,36.27,0,0,0,27.6,8.37,5,5,0,1,1,1.17,9.93A47,47,0,0,1,385.43,779.6Z"/><ellipse class="cls-4" cx="204.26" cy="258.94" rx="212.18" ry="172.4" transform="translate(-78.61 89.36) rotate(-20.79)"/><ellipse class="cls-4" cx="134.6" cy="618.58" rx="50.05" ry="152.66" transform="translate(-194.75 77.95) rotate(-19.07)"/><ellipse class="cls-4" cx="282.38" cy="417.96" rx="243.46" ry="141.12" transform="translate(-186.17 231.18) rotate(-34.22)"/><ellipse class="cls-4" cx="534.72" cy="346.86" rx="75.72" ry="177.37" transform="translate(6.86 704.09) rotate(-67.06)"/><rect class="cls-5" x="547.31" y="439.99" width="144.22" height="249.37" rx="43.5"/><rect class="cls-6" x="384.03" y="482.26" width="112.72" height="177.37" rx="34"/><path d="M455.73,694.86H398.52a49.05,49.05,0,0,1-49-49V483.49a49.05,49.05,0,0,1,49-49h57.21a49.05,49.05,0,0,1,49,49V645.86A49.05,49.05,0,0,1,455.73,694.86ZM398.52,445.49a38,38,0,0,0-38,38V645.86a38,38,0,0,0,38,38h57.21a38,38,0,0,0,38-38V483.49a38,38,0,0,0-38-38Z"/><ellipse cx="444.55" cy="605.14" rx="52.23" ry="54.49" transform="translate(-17.91 13.58) rotate(-1.72)"/><path class="cls-7" d="M413.39,621.65a5,5,0,0,1-4.25-2.37C400,604.5,407.08,583.47,425,572.39a5,5,0,1,1,5.26,8.5c-13.19,8.17-18.84,23-12.59,33.12a5,5,0,0,1-4.25,7.64Z"/><rect class="cls-6" x="562.49" y="476.9" width="105.88" height="166.6" rx="34"/><path d="M648,694.86H590.81a49.05,49.05,0,0,1-49-49V483.49a49.05,49.05,0,0,1,49-49H648a49.05,49.05,0,0,1,49,49V645.86A49.05,49.05,0,0,1,648,694.86ZM590.81,445.49a38,38,0,0,0-38,38V645.86a38,38,0,0,0,38,38H648a38,38,0,0,0,38-38V483.49a38,38,0,0,0-38-38Z"/><ellipse cx="619.34" cy="592.31" rx="49.06" ry="51.18" transform="translate(-17.45 18.8) rotate(-1.72)"/><path class="cls-7" d="M590.08,608.12a5,5,0,0,1-4.26-2.37c-8.69-14-2-34,15-44.46a5,5,0,0,1,5.26,8.5c-12.25,7.59-17.51,21.36-11.73,30.69a5,5,0,0,1-4.24,7.64Z"/><path d="M498.46,611.43a5,5,0,0,1-3.8-8.25C508,587.54,532.09,586.1,548.29,600a5,5,0,1,1-6.5,7.6c-12-10.27-29.74-9.32-39.53,2.13A5,5,0,0,1,498.46,611.43Z"/><rect class="cls-3" x="384.03" y="823.74" width="41.44" height="127.64" rx="11.5"/><ellipse class="cls-8" cx="315.28" cy="924.45" rx="71.61" ry="53.06" transform="translate(-97.96 39.44) rotate(-6.2)"/><ellipse class="cls-8" cx="501.01" cy="924.45" rx="53.06" ry="71.61" transform="translate(-472.13 1322.74) rotate(-83.8)"/><path class="cls-6" d="M408.44,1001.4l.9.14c-11.47,5.17-17.41-2.38-23.1-15L359.09,931.7l-39-40.83c-5.7-12.63-1-27.2,10.5-32.37l11.23-5.06c11.47-5.16,25.51.95,31.2,13.59l45.95,102C424.63,981.67,419.91,996.24,408.44,1001.4Z"/><path class="cls-6" d="M400,1001.05l-.9.14c11.27,5.21,17.25-2.29,23.07-14.85l27.68-54.51L489,891.35c5.82-12.57,1.36-27.12-9.9-32.34l-11-5.11c-11.27-5.21-25.25.8-31.07,13.37l-47,101.44C384.25,981.28,388.71,995.83,400,1001.05Z"/><path d="M190.08,630.74l158.69-38.67,1.92,9L192,639.74Z"/><rect class="cls-8" x="752.67" y="674.9" width="31.1" height="321.61" rx="12" transform="translate(1027.17 -269.51) rotate(55.78)"/><ellipse class="cls-3" cx="1007" cy="743.5" rx="126" ry="17.5"/><ellipse class="cls-9" cx="990.36" cy="744.74" rx="14.53" ry="109.88" transform="translate(177.59 1680.09) rotate(-85.95)"/><ellipse class="cls-10" cx="949" cy="748.5" rx="15.5" ry="69" transform="translate(102.43 1611.15) rotate(-83.8)"/><rect class="cls-11" x="1020.39" y="399.39" width="119" height="542.21" rx="17.29" transform="translate(1750.39 -409.39) rotate(90)"/><rect class="cls-12" x="1043.26" y="343.26" width="44.76" height="490.73" rx="12" transform="translate(1654.26 -477.01) rotate(90)"/><rect class="cls-13" x="1001.55" y="-1.55" width="51.9" height="647" rx="12" transform="translate(1349.45 -705.55) rotate(90)"/><rect class="cls-14" x="1021.51" y="189.17" width="67.98" height="591" rx="12" transform="translate(1540.17 -570.84) rotate(90)"/><rect class="cls-15" x="972.19" y="111.86" width="103.67" height="573.96" rx="17" transform="translate(1422.86 -625.19) rotate(90)"/><rect class="cls-16" x="840.36" y="518.65" width="439.08" height="47.59" rx="8"/><path class="cls-6" d="M462.77,220.88c-1.79,0-3.9-.06-6.32-.16s-4.93-.32-7.51-.63-5.13-.71-7.66-1.19a36.81,36.81,0,0,1-6.95-2q-8.68-3.31-8.69-11.54V131.61a6.92,6.92,0,0,1,1.82-5.14,13,13,0,0,1,5-2.92,60.72,60.72,0,0,1,13.43-2.77,157.4,157.4,0,0,1,16.59-.86q20.22,0,31.13,6.79t10.9,21A19,19,0,0,1,500.37,160a23.45,23.45,0,0,1-11.06,7.5,27.46,27.46,0,0,1,13.2,8.06,21.12,21.12,0,0,1,5.29,14.7q0,15.63-11.61,23.14T462.77,220.88ZM452.5,160.05H464q6.8,0,9.88-2.53t3.08-7.43a7.93,7.93,0,0,0-3.56-6.79q-3.56-2.52-10.66-2.53c-1.58,0-3.4.06-5.45.16a41.08,41.08,0,0,0-4.82.47Zm0,38.55a28.41,28.41,0,0,0,5.69.87q3.46.24,6.63.24a19.52,19.52,0,0,0,10.51-2.61q4.19-2.61,4.19-8.14c0-3.47-1.16-6-3.48-7.42s-5.84-2.22-10.58-2.22h-13Z"/><path class="cls-6" d="M551.09,217.72a46,46,0,0,1-5.45.95,59.23,59.23,0,0,1-7.35.47,33.62,33.62,0,0,1-6.4-.55,11.41,11.41,0,0,1-4.66-2,8.53,8.53,0,0,1-2.84-4,19,19,0,0,1-.95-6.63V122.6q1.74-.31,5.53-.87a50.22,50.22,0,0,1,7.27-.55,32.9,32.9,0,0,1,6.4.55,11.41,11.41,0,0,1,4.66,2,8.53,8.53,0,0,1,2.84,4,19.28,19.28,0,0,1,1,6.63Z"/><path class="cls-6" d="M608.76,220.88c-1.8,0-3.9-.06-6.32-.16s-4.93-.32-7.51-.63-5.13-.71-7.66-1.19a36.81,36.81,0,0,1-6.95-2q-8.7-3.31-8.69-11.54V131.61a7,7,0,0,1,1.81-5.14,13,13,0,0,1,5-2.92,60.72,60.72,0,0,1,13.43-2.77,157.11,157.11,0,0,1,16.59-.86q20.22,0,31.13,6.79t10.9,21A19,19,0,0,1,646.36,160a23.45,23.45,0,0,1-11.06,7.5,27.43,27.43,0,0,1,13.19,8.06,21.08,21.08,0,0,1,5.3,14.7q0,15.63-11.62,23.14T608.76,220.88Zm-10.27-60.83H610q6.79,0,9.88-2.53t3.08-7.43a7.93,7.93,0,0,0-3.56-6.79q-3.55-2.52-10.66-2.53c-1.58,0-3.4.06-5.45.16a41.08,41.08,0,0,0-4.82.47Zm0,38.55a28.41,28.41,0,0,0,5.69.87q3.47.24,6.63.24a19.55,19.55,0,0,0,10.51-2.61q4.18-2.61,4.19-8.14c0-3.47-1.17-6-3.48-7.42s-5.85-2.22-10.59-2.22h-13Z"/><path class="cls-6" d="M684.12,218.82q-6.79,0-10.74-3.95t-4-10.74V122.44c1.15-.21,3-.5,5.53-.87a51.67,51.67,0,0,1,7.27-.55,33.51,33.51,0,0,1,6.39.55,11.4,11.4,0,0,1,4.67,2,8.58,8.58,0,0,1,2.84,4,19.35,19.35,0,0,1,1,6.64v62.41h36.18a20.5,20.5,0,0,1,2,4.66,19.33,19.33,0,0,1,1,6.08q0,6.32-2.68,8.93a9.84,9.84,0,0,1-7.12,2.6Z"/><path class="cls-6" d="M778.13,217.72a46,46,0,0,1-5.45.95,59.23,59.23,0,0,1-7.35.47,33.62,33.62,0,0,1-6.4-.55,11.41,11.41,0,0,1-4.66-2,8.53,8.53,0,0,1-2.84-4,19,19,0,0,1-.95-6.63V122.6q1.74-.31,5.53-.87a50.22,50.22,0,0,1,7.27-.55,32.9,32.9,0,0,1,6.4.55,11.41,11.41,0,0,1,4.66,2,8.53,8.53,0,0,1,2.84,4,19.28,19.28,0,0,1,1,6.63Z"/><path class="cls-6" d="M793.93,170.32a57.35,57.35,0,0,1,3.87-21.81,43.89,43.89,0,0,1,26.38-25.59,60,60,0,0,1,39.35,0,45.91,45.91,0,0,1,15.88,9.71,44.78,44.78,0,0,1,10.66,15.88,57.35,57.35,0,0,1,3.87,21.81,59,59,0,0,1-3.79,21.88,44.22,44.22,0,0,1-10.51,16,45.08,45.08,0,0,1-15.88,9.72,58.07,58.07,0,0,1-19.9,3.31A56.89,56.89,0,0,1,824,217.8a44.43,44.43,0,0,1-15.8-9.88,45.61,45.61,0,0,1-10.43-16A57.85,57.85,0,0,1,793.93,170.32Zm28.44,0q0,14.37,5.84,21.49t15.65,7.11q9.95,0,15.8-7.11t5.84-21.49q0-14.22-5.77-21.33T844,141.88q-9.79,0-15.72,7T822.37,170.32Z"/><path class="cls-6" d="M902.47,144.72a20.32,20.32,0,0,1-2.05-4.74,20.93,20.93,0,0,1-.95-6.32c0-4.11.92-7,2.77-8.85a9.85,9.85,0,0,1,7.18-2.68h68.89a20.29,20.29,0,0,1,2.06,4.74,20.93,20.93,0,0,1,1,6.32c0,4.11-.93,7.06-2.77,8.85a9.88,9.88,0,0,1-7.19,2.68H953.82v73a45.63,45.63,0,0,1-5.45.95,59,59,0,0,1-7.34.47,33.55,33.55,0,0,1-6.4-.55,11.4,11.4,0,0,1-4.67-2,8.53,8.53,0,0,1-2.84-4,19.25,19.25,0,0,1-1-6.63V144.72Z"/><path class="cls-6" d="M994.74,137.3q0-6.8,4-10.75t10.75-4h52.14a19.36,19.36,0,0,1,2,4.58,20.46,20.46,0,0,1,.87,6c0,4-.87,6.85-2.6,8.53a9.45,9.45,0,0,1-6.88,2.53H1021.6v14.69h35.55a19.11,19.11,0,0,1,2,4.5,19.68,19.68,0,0,1,.87,5.93c0,4-.85,6.85-2.53,8.53a9.17,9.17,0,0,1-6.79,2.53H1021.6V197h40.61a18.94,18.94,0,0,1,2,4.58,20.79,20.79,0,0,1,.86,6c0,4-.86,6.87-2.6,8.61a9.33,9.33,0,0,1-6.88,2.6h-46.13q-6.8,0-10.75-3.95t-4-10.74Z"/><path class="cls-6" d="M1109.13,182.8v34.92a45.75,45.75,0,0,1-5.53.95,60.85,60.85,0,0,1-7.42.47,33.55,33.55,0,0,1-6.4-.55,11.35,11.35,0,0,1-4.66-2,8.55,8.55,0,0,1-2.85-4,19.27,19.27,0,0,1-.94-6.63V122.6c1.15-.21,3-.5,5.53-.87a50.08,50.08,0,0,1,7.26-.55,32.75,32.75,0,0,1,6.4.55,11.3,11.3,0,0,1,4.66,2,8.48,8.48,0,0,1,2.85,4,19.28,19.28,0,0,1,1,6.63v25.13l32.86-37.77q10.74,0,15.41,4a12.3,12.3,0,0,1,4.66,9.56,15.47,15.47,0,0,1-2.06,7.74,40.17,40.17,0,0,1-6.63,8.22L1133.47,171q3.94,4.43,8.29,9.16t8.53,9.25q4.18,4.5,8.06,8.61t6.72,7.11a14.33,14.33,0,0,1-1.27,6.16,14,14,0,0,1-3.39,4.58,14.54,14.54,0,0,1-4.82,2.85,17.07,17.07,0,0,1-5.69.94,16.59,16.59,0,0,1-10.59-3.24,56.11,56.11,0,0,1-7.9-7.66Z"/><path class="cls-6" d="M1200.77,125.45a33.29,33.29,0,0,1,8.14-3,43.65,43.65,0,0,1,11-1.42,39.63,39.63,0,0,1,14,2.29q6.09,2.3,7.83,7.19,2.83,8.22,6.16,19.12t6.63,22.51q3.33,11.63,6.48,22.91t5.53,20a13,13,0,0,1-5.69,3.56,27.12,27.12,0,0,1-9,1.34,27.71,27.71,0,0,1-6.4-.63,11.3,11.3,0,0,1-4.27-1.9,9.32,9.32,0,0,1-2.68-3.32,28,28,0,0,1-1.82-4.74l-2.85-10.9H1205.2q-1.28,4.74-2.53,9.8t-2.53,9.79a39.61,39.61,0,0,1-4.66,1.35,27.89,27.89,0,0,1-5.93.55q-8.05,0-11.92-2.77a8.87,8.87,0,0,1-3.88-7.66,15.7,15.7,0,0,1,.64-4.42c.42-1.48.89-3.21,1.42-5.22q1.1-4.26,3.08-10.58t4.35-13.67q2.37-7.35,5-15.09t5.06-14.61q2.37-6.89,4.34-12.25T1200.77,125.45Zm19,20.38q-2.2,6.63-5,14.77t-5,16.51h19.59q-2.22-8.54-4.5-16.67t-4.19-14.61Z"/><path class="cls-6" d="M1307,187.38v30.34a46,46,0,0,1-5.45.95,59.23,59.23,0,0,1-7.35.47,33.62,33.62,0,0,1-6.4-.55,10.73,10.73,0,0,1-4.58-2,8.85,8.85,0,0,1-2.77-4,19.27,19.27,0,0,1-.94-6.63V131.61a7,7,0,0,1,1.81-5.14,13,13,0,0,1,5-2.92,59.5,59.5,0,0,1,12.48-2.77,127.26,127.26,0,0,1,15.17-.86q21.81,0,32.86,9.16t11.06,24.81a27.67,27.67,0,0,1-5,16.74,36.33,36.33,0,0,1-12,10.75q5.68,7.74,11.22,14.53a94.44,94.44,0,0,1,8.69,12.33,14.92,14.92,0,0,1-5.77,8.45,16,16,0,0,1-9.4,2.92,20.06,20.06,0,0,1-6-.79,14.37,14.37,0,0,1-4.43-2.21,18.09,18.09,0,0,1-3.47-3.47,45.78,45.78,0,0,1-3-4.43l-13.27-21.33Zm10-21q6,0,9.48-3.08c2.32-2.06,3.48-5.08,3.48-9.09s-1.29-7-3.87-9.08-6.67-3.08-12.25-3.08a37.85,37.85,0,0,0-3.79.15c-1,.11-2,.27-3.16.48v23.7Z"/><path class="cls-6" d="M1375.68,137.3q0-6.8,4-10.75t10.74-4h52.14a18.94,18.94,0,0,1,2,4.58,20.79,20.79,0,0,1,.87,6c0,4-.87,6.85-2.61,8.53a9.44,9.44,0,0,1-6.87,2.53h-33.34v14.69h35.55a20.49,20.49,0,0,1,2.84,10.43c0,4-.84,6.85-2.53,8.53a9.15,9.15,0,0,1-6.79,2.53h-29.07V197h40.6a18.94,18.94,0,0,1,2,4.58,20.46,20.46,0,0,1,.87,6q0,6-2.61,8.61a9.32,9.32,0,0,1-6.87,2.6h-46.14q-6.8,0-10.74-3.95t-4-10.74Z"/><path class="cls-6" d="M1549,215a14.37,14.37,0,0,1-6.4,3.4,37.2,37.2,0,0,1-10,1.18,35,35,0,0,1-11.06-1.73q-5.22-1.74-8.53-8.38l-15.65-31.91q-2.37-4.91-4.26-9.25t-4.11-10l-1,.16q.63,8.53.71,17.38t.08,17.38v24.49a45.93,45.93,0,0,1-5.29.95,54.25,54.25,0,0,1-7,.47,36.34,36.34,0,0,1-6.16-.47,9.49,9.49,0,0,1-4.43-1.9,9.12,9.12,0,0,1-2.68-3.87,18.07,18.07,0,0,1-1-6.4v-79a13.17,13.17,0,0,1,6.79-4.74,30,30,0,0,1,9.8-1.58A34.1,34.1,0,0,1,1490,123q5.29,1.81,8.45,8.29l15.8,31.92q2.37,4.89,4.27,9.24t4.11,10l.79-.15q-.65-8.54-.79-17.07t-.16-17.06V122.6a45.93,45.93,0,0,1,5.29-.95,54.13,54.13,0,0,1,7-.47c4.64,0,8.16.82,10.59,2.45s3.63,5,3.63,10.19Z"/><path class="cls-6" d="M860.38,407.25q-4.1-1.39-7.44-2.83a23,23,0,0,1-5.77-3.49,14.32,14.32,0,0,1-3.76-4.88,16,16,0,0,1-1.35-6.93,15.22,15.22,0,0,1,6.09-12.65q6.09-4.74,17.06-4.74a45.77,45.77,0,0,1,7.45.56,21.9,21.9,0,0,1,5.9,1.72,10.24,10.24,0,0,1,3.86,3,6.74,6.74,0,0,1,1.39,4.23,7.44,7.44,0,0,1-1.11,4.14,11.29,11.29,0,0,1-2.7,2.93,20.8,20.8,0,0,0-5.49-2.28,27.51,27.51,0,0,0-7.53-1c-2.79,0-4.83.38-6.14,1.16a3.38,3.38,0,0,0-2,2.93,2.7,2.7,0,0,0,1.21,2.28,12.36,12.36,0,0,0,3.63,1.62l4.93,1.59q8.73,2.79,13.43,7.11t4.7,11.76a15.48,15.48,0,0,1-6.23,12.79q-6.22,4.89-18.32,4.88a43.11,43.11,0,0,1-8-.69,25.35,25.35,0,0,1-6.42-2,11.86,11.86,0,0,1-4.28-3.35,7.34,7.34,0,0,1-1.53-4.6,6.93,6.93,0,0,1,1.58-4.6,12,12,0,0,1,3.44-2.93,25.26,25.26,0,0,0,6.37,3.53,22.26,22.26,0,0,0,8.23,1.49q4.56,0,6.42-1.4A4,4,0,0,0,870,413.3a3.19,3.19,0,0,0-1.49-2.84,19.41,19.41,0,0,0-4.18-1.9Z"/><path class="cls-6" d="M891.81,386.33a12.49,12.49,0,0,1-1.21-2.79,12.36,12.36,0,0,1-.55-3.72c0-2.42.54-4.15,1.62-5.21a5.85,5.85,0,0,1,4.24-1.58h40.54a11.63,11.63,0,0,1,1.21,2.79,12.36,12.36,0,0,1,.56,3.72c0,2.42-.54,4.15-1.63,5.21a5.81,5.81,0,0,1-4.23,1.58H922v43a23.86,23.86,0,0,1-3.21.56,33.47,33.47,0,0,1-4.33.28,19.9,19.9,0,0,1-3.76-.32,6.64,6.64,0,0,1-2.74-1.17,4.93,4.93,0,0,1-1.68-2.32,11.37,11.37,0,0,1-.56-3.91V386.33Z"/><path class="cls-6" d="M954.4,375a19.48,19.48,0,0,1,4.79-1.76,25.48,25.48,0,0,1,6.47-.84,23.25,23.25,0,0,1,8.23,1.35,7.17,7.17,0,0,1,4.6,4.23q1.68,4.83,3.63,11.25t3.9,13.25q2,6.84,3.82,13.49t3.25,11.76a7.67,7.67,0,0,1-3.35,2.1,18.42,18.42,0,0,1-9.06.41,6.46,6.46,0,0,1-2.51-1.11,5.57,5.57,0,0,1-1.59-1.95,17.5,17.5,0,0,1-1.07-2.79L973.84,418H957q-.75,2.79-1.49,5.76c-.5,2-1,3.91-1.49,5.77a24.34,24.34,0,0,1-2.74.79,15.9,15.9,0,0,1-3.49.33c-3.16,0-5.5-.55-7-1.63a5.24,5.24,0,0,1-2.28-4.51,9.4,9.4,0,0,1,.37-2.61c.25-.86.53-1.89.84-3.06.43-1.68,1-3.75,1.81-6.24s1.63-5.16,2.56-8,1.92-5.84,3-8.88l3-8.6q1.4-4,2.56-7.21C953.36,377.71,954,376.1,954.4,375Zm11.16,12c-.87,2.6-1.84,5.5-2.93,8.69s-2.06,6.44-2.93,9.72h11.54q-1.31-5-2.65-9.81t-2.47-8.6Z"/><path class="cls-6" d="M1016.9,411.44v17.85a23.86,23.86,0,0,1-3.21.56,33.44,33.44,0,0,1-4.32.28,19.94,19.94,0,0,1-3.77-.32,6.3,6.3,0,0,1-2.7-1.17,5.21,5.21,0,0,1-1.63-2.32,11.4,11.4,0,0,1-.55-3.91v-43.8a4.05,4.05,0,0,1,1.07-3,7.53,7.53,0,0,1,2.93-1.72,34.26,34.26,0,0,1,7.34-1.63,74,74,0,0,1,8.93-.51q12.84,0,19.34,5.39t6.51,14.6a16.33,16.33,0,0,1-3,9.86,21.29,21.29,0,0,1-7.07,6.32q3.35,4.56,6.6,8.56a55.46,55.46,0,0,1,5.12,7.25,8.73,8.73,0,0,1-3.4,5,9.39,9.39,0,0,1-5.53,1.72,12.24,12.24,0,0,1-3.53-.46,8.53,8.53,0,0,1-2.61-1.31,10.65,10.65,0,0,1-2-2,28.35,28.35,0,0,1-1.77-2.61l-7.81-12.55Zm5.86-12.37a8.18,8.18,0,0,0,5.58-1.81,6.78,6.78,0,0,0,2-5.35,6.45,6.45,0,0,0-2.27-5.35q-2.29-1.81-7.21-1.81a21.72,21.72,0,0,0-2.23.09c-.56.06-1.18.16-1.86.28v13.95Z"/><path class="cls-6" d="M1053.35,386.33a13.28,13.28,0,0,1-1.76-6.51c0-2.42.54-4.15,1.62-5.21a5.85,5.85,0,0,1,4.24-1.58H1098a11.63,11.63,0,0,1,1.21,2.79,12.06,12.06,0,0,1,.56,3.72c0,2.42-.54,4.15-1.63,5.21a5.81,5.81,0,0,1-4.23,1.58h-10.32v43a23.86,23.86,0,0,1-3.21.56,33.44,33.44,0,0,1-4.32.28,19.94,19.94,0,0,1-3.77-.32,6.64,6.64,0,0,1-2.74-1.17,4.93,4.93,0,0,1-1.68-2.32,11.37,11.37,0,0,1-.56-3.91V386.33Z"/><path class="cls-6" d="M1009.76,680.09q-4-1.35-7.2-2.75A22.09,22.09,0,0,1,997,674a14,14,0,0,1-3.64-4.73,15.37,15.37,0,0,1-1.31-6.7,14.73,14.73,0,0,1,5.9-12.24q5.88-4.59,16.51-4.59a45,45,0,0,1,7.2.54,21.51,21.51,0,0,1,5.72,1.66,10,10,0,0,1,3.73,2.88,6.54,6.54,0,0,1,1.35,4.1,7.18,7.18,0,0,1-1.08,4,11.25,11.25,0,0,1-2.61,2.84,20.34,20.34,0,0,0-5.31-2.21,26.64,26.64,0,0,0-7.29-.94q-4,0-5.94,1.12a3.29,3.29,0,0,0-1.89,2.84,2.61,2.61,0,0,0,1.17,2.2,12.14,12.14,0,0,0,3.51,1.58l4.77,1.53q8.46,2.7,13,6.88t4.54,11.39a15,15,0,0,1-6,12.37q-6,4.72-17.73,4.73a41.21,41.21,0,0,1-7.69-.68,24.23,24.23,0,0,1-6.21-2,11.39,11.39,0,0,1-4.14-3.24,7.11,7.11,0,0,1-1.49-4.45,6.76,6.76,0,0,1,1.53-4.46,11.64,11.64,0,0,1,3.33-2.83,24.51,24.51,0,0,0,6.17,3.42,21.46,21.46,0,0,0,8,1.44q4.41,0,6.21-1.35a3.89,3.89,0,0,0,1.8-3.15,3.09,3.09,0,0,0-1.44-2.75,18.66,18.66,0,0,0-4.05-1.84Z"/><path class="cls-6" d="M1043.87,655.61a7.77,7.77,0,0,1,8.37-8.37h29.7a10.76,10.76,0,0,1,1.13,2.61,12,12,0,0,1,.49,3.42q0,3.42-1.48,4.86a5.4,5.4,0,0,1-3.92,1.44h-19v8.37h20.25a11.47,11.47,0,0,1,1.62,5.94q0,3.42-1.44,4.86a5.23,5.23,0,0,1-3.87,1.44h-16.56v9.45h23.13a11.17,11.17,0,0,1,1.13,2.61,12,12,0,0,1,.49,3.42q0,3.42-1.48,4.9a5.31,5.31,0,0,1-3.92,1.49h-26.28a7.77,7.77,0,0,1-8.37-8.37Z"/><path class="cls-6" d="M1090.67,659.84a11.65,11.65,0,0,1-1.17-2.7,11.88,11.88,0,0,1-.54-3.6c0-2.34.52-4,1.58-5a5.6,5.6,0,0,1,4.09-1.53h39.24a11.65,11.65,0,0,1,1.17,2.7,11.88,11.88,0,0,1,.54,3.6q0,3.51-1.58,5a5.62,5.62,0,0,1-4.09,1.53h-10v41.58a25.11,25.11,0,0,1-3.11.54,32.94,32.94,0,0,1-4.18.27,18.77,18.77,0,0,1-3.65-.32,6.45,6.45,0,0,1-2.65-1.12,4.86,4.86,0,0,1-1.62-2.25,11,11,0,0,1-.54-3.78V659.84Z"/><path class="cls-6" d="M1141.61,659.84a11.65,11.65,0,0,1-1.17-2.7,11.88,11.88,0,0,1-.54-3.6q0-3.51,1.57-5a5.64,5.64,0,0,1,4.1-1.53h39.24a11.65,11.65,0,0,1,1.17,2.7,11.88,11.88,0,0,1,.54,3.6q0,3.51-1.58,5a5.62,5.62,0,0,1-4.09,1.53h-10v41.58a25.11,25.11,0,0,1-3.11.54,32.94,32.94,0,0,1-4.18.27,18.77,18.77,0,0,1-3.65-.32,6.45,6.45,0,0,1-2.65-1.12,4.86,4.86,0,0,1-1.62-2.25,11,11,0,0,1-.54-3.78V659.84Z"/><path class="cls-6" d="M1209.92,701.42a25.11,25.11,0,0,1-3.11.54,32.94,32.94,0,0,1-4.18.27,18.77,18.77,0,0,1-3.65-.32,6.45,6.45,0,0,1-2.65-1.12,4.86,4.86,0,0,1-1.62-2.25,11,11,0,0,1-.54-3.78V647.24c.66-.12,1.71-.29,3.15-.5a28.68,28.68,0,0,1,4.14-.31,18.72,18.72,0,0,1,3.64.31,6.5,6.5,0,0,1,2.66,1.13,4.86,4.86,0,0,1,1.62,2.25,11,11,0,0,1,.54,3.78Z"/><path class="cls-6" d="M1271,699.89a8.24,8.24,0,0,1-3.65,1.93,21.12,21.12,0,0,1-5.71.68,19.79,19.79,0,0,1-6.3-1q-3-1-4.86-4.77l-8.91-18.18q-1.35-2.79-2.43-5.27t-2.34-5.71l-.54.09q.36,4.86.4,9.9t0,9.9v13.95a25.14,25.14,0,0,1-3,.54,30.2,30.2,0,0,1-4,.27,20.37,20.37,0,0,1-3.51-.27,5.38,5.38,0,0,1-2.52-1.08,5.22,5.22,0,0,1-1.53-2.21,10.24,10.24,0,0,1-.54-3.64V650a7.53,7.53,0,0,1,3.87-2.7,17,17,0,0,1,5.58-.9,19.37,19.37,0,0,1,6.34,1,8.61,8.61,0,0,1,4.82,4.73l9,18.18q1.35,2.79,2.43,5.26t2.34,5.72l.45-.09q-.36-4.86-.45-9.72t-.09-9.72V647.24a24.9,24.9,0,0,1,3-.54,30.35,30.35,0,0,1,4-.27,10.8,10.8,0,0,1,6,1.39q2.07,1.39,2.07,5.81Z"/><path class="cls-6" d="M1332.14,692.87a7,7,0,0,1-1,4.14,10.25,10.25,0,0,1-3.15,2.61,20,20,0,0,1-3.15,1.39,34.13,34.13,0,0,1-4.14,1.17,44.48,44.48,0,0,1-4.73.77,45.11,45.11,0,0,1-4.9.27,40.88,40.88,0,0,1-12.15-1.76,27.67,27.67,0,0,1-9.86-5.31,25.18,25.18,0,0,1-6.61-8.86,32.54,32.54,0,0,1,.22-25.2,27.08,27.08,0,0,1,7-9.14,29.38,29.38,0,0,1,10-5.44,37.75,37.75,0,0,1,11.57-1.8q8.55,0,13.54,2.74t5,7.16a7,7,0,0,1-1.17,4,9.63,9.63,0,0,1-2.7,2.7,37,37,0,0,0-5.63-2.66,20.93,20.93,0,0,0-7.6-1.3q-7.56,0-12,4.32t-4.45,12a19.08,19.08,0,0,0,1.21,7.15,13.63,13.63,0,0,0,3.29,4.95,13.38,13.38,0,0,0,4.77,2.88,17.31,17.31,0,0,0,5.76,1,15.41,15.41,0,0,0,3.51-.36,9.44,9.44,0,0,0,2.34-.81V681h-9.63a14.24,14.24,0,0,1-1-2.61A11.64,11.64,0,0,1,1306,675q0-3.24,1.48-4.68a5.28,5.28,0,0,1,3.83-1.44h15.21a5.16,5.16,0,0,1,5.67,5.67Z"/></g><g id="Ekstra_til_startsk" data-name="Ekstra til startsk"><rect class="cls-6" x="1122" y="362.71" width="111" height="71.29" rx="28.88"/><path class="cls-15" d="M1205.47,401.47l-36.44,21a3.68,3.68,0,0,1-5.53-3.19V377.24A3.69,3.69,0,0,1,1169,374l36.44,21A3.68,3.68,0,0,1,1205.47,401.47Z"/><rect class="cls-6" x="862" y="637.71" width="111" height="71.29" rx="28.88"/><path class="cls-11" d="M919.71,696.91a23.28,23.28,0,1,1,23.14-23.28A23.24,23.24,0,0,1,919.71,696.91Zm0-33.58a10.3,10.3,0,1,0,10.16,10.3A10.24,10.24,0,0,0,919.71,663.33Z"/><rect class="cls-11" x="912.24" y="642.83" width="15.53" height="15.96" rx="5.18"/><rect class="cls-11" x="933.48" y="653.65" width="13.52" height="13.9" rx="4.51" transform="translate(861.91 -485.83) rotate(51)"/><rect class="cls-11" x="892.62" y="677.65" width="15.31" height="15.74" rx="5.1" transform="matrix(0.63, 0.78, -0.78, 0.63, 866.46, -445.54)"/><rect class="cls-11" x="892.11" y="652.66" width="16.17" height="16.62" rx="5.39" transform="translate(-169.43 982.12) rotate(-53)"/><rect class="cls-11" x="932.32" y="677" width="15.48" height="15.91" rx="5.16" transform="translate(-172.71 1023.51) rotate(-53)"/><rect class="cls-11" x="912.69" y="690.19" width="14.62" height="15.03" rx="4.87"/></g></svg>
