<svg xmlns="http://www.w3.org/2000/svg" width="980" height="660" viewBox="0 0 980 660"><defs><style>.cls-1{fill:#fcfcfc;}</style></defs><title>win firkant</title><g id="jaaaa_win" data-name="jaaaa win"><rect x="3" y="2.5" width="974" height="655" rx="67.25"/><rect class="cls-1" x="24" y="22.53" width="908" height="610.62" rx="62.69"/><path d="M153.36,186.62c.77-.14,2-.34,3.71-.58a33.39,33.39,0,0,1,4.87-.38,21.89,21.89,0,0,1,4.3.38,7.49,7.49,0,0,1,3.12,1.32,5.71,5.71,0,0,1,1.91,2.65,13,13,0,0,1,.64,4.45v39.22q0,9.44-5.41,14.15t-15.9,4.72a20,20,0,0,1-8.9-1.7,7.56,7.56,0,0,1-3.55-3.18,9.16,9.16,0,0,1-1.12-4.55,10.7,10.7,0,0,1,.59-3.71,7.71,7.71,0,0,1,1.43-2.55c1.34.29,2.49.48,3.44.59a30.27,30.27,0,0,0,3.13.15c2.76,0,4.73-.68,5.93-2.06s1.81-3.41,1.81-6.1Z"/><path d="M199,188.53a22.39,22.39,0,0,1,5.46-2,29.34,29.34,0,0,1,7.37-.95,26.4,26.4,0,0,1,9.38,1.54q4.08,1.53,5.25,4.82,1.91,5.51,4.13,12.82t4.45,15.11q2.23,7.78,4.35,15.37t3.71,13.41a8.74,8.74,0,0,1-3.82,2.38,18.12,18.12,0,0,1-6,.9,18.61,18.61,0,0,1-4.29-.42,7.6,7.6,0,0,1-2.87-1.27,6.33,6.33,0,0,1-1.8-2.23,19.59,19.59,0,0,1-1.22-3.18l-1.9-7.31H202c-.57,2.12-1.13,4.31-1.7,6.57s-1.13,4.45-1.69,6.57a26.53,26.53,0,0,1-3.13.9,18.17,18.17,0,0,1-4,.37q-5.42,0-8-1.85a6,6,0,0,1-2.59-5.14,10.87,10.87,0,0,1,.42-3c.28-1,.6-2.15.95-3.5.5-1.91,1.19-4.27,2.07-7.1s1.86-5.88,2.92-9.17,2.18-6.66,3.39-10.12,2.33-6.73,3.39-9.81,2-5.81,2.91-8.21S198.55,189.8,199,188.53Zm12.72,13.67q-1.48,4.45-3.34,9.91t-3.34,11.08h13.15q-1.48-5.73-3-11.18t-2.81-9.81Z"/><path d="M267.62,188.53a22.39,22.39,0,0,1,5.46-2,29.34,29.34,0,0,1,7.37-.95,26.4,26.4,0,0,1,9.38,1.54q4.08,1.53,5.25,4.82,1.91,5.51,4.13,12.82t4.45,15.11q2.23,7.78,4.35,15.37t3.71,13.41A8.74,8.74,0,0,1,307.9,251a18.12,18.12,0,0,1-6,.9,18.61,18.61,0,0,1-4.29-.42,7.48,7.48,0,0,1-2.86-1.27A6.25,6.25,0,0,1,292.9,248a19.59,19.59,0,0,1-1.22-3.18l-1.9-7.31H270.59c-.57,2.12-1.13,4.31-1.7,6.57s-1.13,4.45-1.69,6.57a26,26,0,0,1-3.13.9,18.17,18.17,0,0,1-4,.37q-5.42,0-8-1.85a6,6,0,0,1-2.59-5.14,10.87,10.87,0,0,1,.42-3c.28-1,.6-2.15,1-3.5.5-1.91,1.19-4.27,2.07-7.1s1.86-5.88,2.92-9.17,2.18-6.66,3.39-10.12,2.33-6.73,3.39-9.81,2-5.81,2.91-8.21S267.13,189.8,267.62,188.53Zm12.72,13.67q-1.48,4.45-3.34,9.91t-3.34,11.08h13.15q-1.49-5.73-3-11.18T281,202.2Z"/><path d="M336.2,188.53a22.39,22.39,0,0,1,5.46-2,29.34,29.34,0,0,1,7.37-.95,26.4,26.4,0,0,1,9.38,1.54q4.08,1.53,5.25,4.82,1.9,5.51,4.13,12.82t4.45,15.11q2.24,7.78,4.35,15.37t3.71,13.41a8.74,8.74,0,0,1-3.82,2.38,18.12,18.12,0,0,1-6,.9,18.67,18.67,0,0,1-4.29-.42,7.48,7.48,0,0,1-2.86-1.27,6.25,6.25,0,0,1-1.81-2.23,19.59,19.59,0,0,1-1.22-3.18l-1.9-7.31H339.17c-.57,2.12-1.13,4.31-1.7,6.57s-1.13,4.45-1.69,6.57a26,26,0,0,1-3.13.9,18.11,18.11,0,0,1-4,.37q-5.42,0-8-1.85a6,6,0,0,1-2.59-5.14,10.87,10.87,0,0,1,.42-3c.28-1,.6-2.15,1-3.5.49-1.91,1.18-4.27,2.06-7.1s1.86-5.88,2.92-9.17,2.19-6.66,3.39-10.12,2.33-6.73,3.39-9.81,2-5.81,2.92-8.21S335.71,189.8,336.2,188.53Zm12.72,13.67q-1.49,4.45-3.34,9.91c-1.23,3.64-2.35,7.33-3.33,11.08h13.14q-1.49-5.73-3-11.18t-2.81-9.81Z"/><path d="M407.22,201.46a14.3,14.3,0,0,1-1.38-3.18,14.13,14.13,0,0,1-.63-4.24q0-4.14,1.85-5.94a6.65,6.65,0,0,1,4.83-1.8H458.1a13.43,13.43,0,0,1,1.38,3.18,14.13,14.13,0,0,1,.64,4.24q0,4.14-1.86,5.94a6.63,6.63,0,0,1-4.82,1.8H441.67v49a31.24,31.24,0,0,1-3.65.64,39.43,39.43,0,0,1-4.93.31,21.94,21.94,0,0,1-4.3-.37,7.56,7.56,0,0,1-3.12-1.32,5.71,5.71,0,0,1-1.91-2.65,12.78,12.78,0,0,1-.64-4.45V201.46Z"/><path d="M487.68,250.43a31.5,31.5,0,0,1-3.66.64,39.31,39.31,0,0,1-4.93.31,21.76,21.76,0,0,1-4.29-.37,7.61,7.61,0,0,1-3.13-1.32,5.78,5.78,0,0,1-1.91-2.65,13.05,13.05,0,0,1-.63-4.45v-56c.77-.14,2-.34,3.71-.58a33.39,33.39,0,0,1,4.87-.38A21.71,21.71,0,0,1,482,186a7.48,7.48,0,0,1,3.13,1.32A5.71,5.71,0,0,1,487,190a13,13,0,0,1,.64,4.45Z"/><path d="M511.31,251.17a9.15,9.15,0,0,1-9.85-9.86v-54.8c.77-.14,2-.33,3.71-.58a33.34,33.34,0,0,1,4.87-.37,21.76,21.76,0,0,1,4.29.37,7.74,7.74,0,0,1,3.13,1.32,5.76,5.76,0,0,1,1.91,2.65,13.09,13.09,0,0,1,.64,4.46v41.87h24.27a14.31,14.31,0,0,1,1.38,3.12,13.28,13.28,0,0,1,.63,4.08q0,4.24-1.8,6a6.54,6.54,0,0,1-4.77,1.75Z"/><path d="M565.69,251.17a9.15,9.15,0,0,1-9.86-9.86v-54.8c.78-.14,2-.33,3.71-.58a33.47,33.47,0,0,1,4.88-.37,21.91,21.91,0,0,1,4.29.37,7.74,7.74,0,0,1,3.13,1.32,5.83,5.83,0,0,1,1.91,2.65,13.11,13.11,0,0,1,.63,4.46v41.87h24.28a13.88,13.88,0,0,1,1.37,3.12,13,13,0,0,1,.64,4.08q0,4.24-1.8,6a6.54,6.54,0,0,1-4.77,1.75Z"/><path d="M636.82,250.43a31.42,31.42,0,0,1-3.61.64,37.18,37.18,0,0,1-4.77.31c-3.25,0-5.69-.54-7.31-1.64s-2.44-3.41-2.44-6.94V228.49Q616,224.58,613,219.8T606.92,210q-3-5-5.51-9.8a91.45,91.45,0,0,1-4.13-8.85,14.49,14.49,0,0,1,3.76-3.5,10.37,10.37,0,0,1,5.88-1.59,12.1,12.1,0,0,1,6.73,1.7q2.61,1.69,4.93,6.36l8.8,17.7H628c1-2.19,1.85-4.19,2.6-6s1.46-3.6,2.17-5.41,1.45-3.67,2.22-5.61,1.66-4.19,2.65-6.74a19.08,19.08,0,0,1,4.24-1.48,20.36,20.36,0,0,1,4.46-.53,10.19,10.19,0,0,1,6.3,2,6.91,6.91,0,0,1,2.6,5.88,11.35,11.35,0,0,1-.53,3.08,34.48,34.48,0,0,1-2.44,5.46q-1.9,3.66-5.56,9.91t-9.91,16.32Z"/><path d="M682.61,227v23.43a31.6,31.6,0,0,1-3.71.64,40.63,40.63,0,0,1-5,.31,21.91,21.91,0,0,1-4.29-.37,7.61,7.61,0,0,1-3.13-1.32,5.76,5.76,0,0,1-1.9-2.65,12.78,12.78,0,0,1-.64-4.45v-56c.78-.14,2-.34,3.71-.58a33.53,33.53,0,0,1,4.88-.38,21.85,21.85,0,0,1,4.29.38,7.48,7.48,0,0,1,3.13,1.32,5.76,5.76,0,0,1,1.9,2.65,12.78,12.78,0,0,1,.64,4.45v16.86l22-25.34q7.2,0,10.33,2.71A8.21,8.21,0,0,1,718,195.1a10.34,10.34,0,0,1-1.38,5.19,26.7,26.7,0,0,1-4.45,5.51l-13.25,13.25c1.77,2,3.62,4,5.57,6.15s3.85,4.19,5.72,6.2,3.67,3.94,5.41,5.78l4.5,4.77a9.5,9.5,0,0,1-.85,4.13,9.24,9.24,0,0,1-2.28,3.08,9.69,9.69,0,0,1-3.23,1.91,11.47,11.47,0,0,1-3.82.63,11.13,11.13,0,0,1-7.1-2.17,38.08,38.08,0,0,1-5.3-5.14Z"/><path d="M747.8,227v23.43a31.6,31.6,0,0,1-3.71.64,40.63,40.63,0,0,1-5,.31,21.91,21.91,0,0,1-4.29-.37,7.61,7.61,0,0,1-3.13-1.32,5.76,5.76,0,0,1-1.9-2.65,12.78,12.78,0,0,1-.64-4.45v-56c.78-.14,2-.34,3.71-.58a33.53,33.53,0,0,1,4.88-.38A21.85,21.85,0,0,1,742,186a7.53,7.53,0,0,1,3.13,1.32,5.76,5.76,0,0,1,1.9,2.65,12.78,12.78,0,0,1,.64,4.45v16.86l22-25.34q7.2,0,10.33,2.71a8.21,8.21,0,0,1,3.13,6.41,10.34,10.34,0,0,1-1.38,5.19,26.7,26.7,0,0,1-4.45,5.51l-13.25,13.25q2.65,3,5.56,6.15t5.73,6.2c1.87,2,3.67,3.94,5.41,5.78l4.5,4.77a9.5,9.5,0,0,1-.85,4.13,9.24,9.24,0,0,1-2.28,3.08,9.69,9.69,0,0,1-3.23,1.91,11.47,11.47,0,0,1-3.82.63,11.13,11.13,0,0,1-7.1-2.17,38.08,38.08,0,0,1-5.3-5.14Z"/><path d="M794.33,196.48a9.15,9.15,0,0,1,9.86-9.86h35a13,13,0,0,1,1.32,3.07,13.68,13.68,0,0,1,.58,4c0,2.69-.58,4.59-1.74,5.72a6.33,6.33,0,0,1-4.62,1.7H812.35V211H836.2a13.86,13.86,0,0,1,1.91,7q0,4-1.7,5.73a6.16,6.16,0,0,1-4.56,1.69h-19.5v11.13h27.24a13.06,13.06,0,0,1,1.33,3.08,14,14,0,0,1,.58,4c0,2.68-.58,4.61-1.75,5.77a6.22,6.22,0,0,1-4.61,1.75H804.19a9.15,9.15,0,0,1-9.86-9.86Z"/><path d="M339.71,415.05c-.79,0-1.68,0-2.7-.07s-2.05-.14-3.13-.28-2.17-.31-3.25-.52a15.67,15.67,0,0,1-3-.86q-3.79-1.44-3.79-5V376.06a3,3,0,0,1,.79-2.24,5.63,5.63,0,0,1,2.17-1.28,28.78,28.78,0,0,1,6.28-1.27Q336.4,371,339,371a33.8,33.8,0,0,1,9.76,1.31,20.1,20.1,0,0,1,7.52,4,18.39,18.39,0,0,1,4.87,6.87,28.74,28.74,0,0,1,.06,19.42,18.54,18.54,0,0,1-4.72,6.9,19.87,19.87,0,0,1-7.35,4.18A30.64,30.64,0,0,1,339.71,415.05ZM335.84,405c.51.1,1.13.17,1.86.24s1.43.11,2.07.11a13,13,0,0,0,4.32-.69,8.79,8.79,0,0,0,3.38-2.14,10,10,0,0,0,2.21-3.76,17.44,17.44,0,0,0,.79-5.56q0-6.21-2.9-9.35a10,10,0,0,0-7.73-3.14c-.64,0-1.3,0-2,.07s-1.35.12-2,.21Z"/><path d="M406.84,398.49a17.51,17.51,0,0,1-1.27,6.79,14.52,14.52,0,0,1-3.7,5.25,16.58,16.58,0,0,1-5.86,3.34,26.34,26.34,0,0,1-15.59,0,16.53,16.53,0,0,1-5.87-3.34,14.38,14.38,0,0,1-3.69-5.25,17.52,17.52,0,0,1-1.28-6.79V372.13c.51-.09,1.31-.22,2.42-.38a22.07,22.07,0,0,1,3.17-.24,14.36,14.36,0,0,1,2.79.24,5,5,0,0,1,2,.86,3.72,3.72,0,0,1,1.24,1.73,8.25,8.25,0,0,1,.42,2.89v21a7,7,0,0,0,1.83,5.17,6.94,6.94,0,0,0,9.48,0,7.12,7.12,0,0,0,1.8-5.17V372.13c.5-.09,1.31-.22,2.41-.38a22.21,22.21,0,0,1,3.18-.24,14.5,14.5,0,0,1,2.79.24,5.1,5.1,0,0,1,2,.86,3.79,3.79,0,0,1,1.24,1.73,8.52,8.52,0,0,1,.41,2.89Z"/><path d="M454.45,412.56a8.36,8.36,0,0,1-3,1.45,15,15,0,0,1-4.45.62,13,13,0,0,1-5-.86,5.22,5.22,0,0,1-2.83-2.38c-.5-1.06-1.13-2.43-1.86-4.11s-1.51-3.55-2.31-5.62-1.64-4.27-2.49-6.59-1.66-4.68-2.45-7.07-1.51-4.74-2.2-7-1.29-4.46-1.8-6.49a9.19,9.19,0,0,1,2.8-1.76,9.81,9.81,0,0,1,3.9-.79A7.46,7.46,0,0,1,437,373a6.55,6.55,0,0,1,2.38,4q1.86,6.77,3.76,12.94t4,12.86h.41q1.86-6.48,3.83-14.14t3.76-15.25a16.9,16.9,0,0,1,2.66-1,11.63,11.63,0,0,1,3.21-.41,7.91,7.91,0,0,1,4.34,1.14,4.1,4.1,0,0,1,1.8,3.76,19.66,19.66,0,0,1-.73,4.42q-.72,2.89-1.86,6.52t-2.55,7.55c-.95,2.62-1.89,5.1-2.83,7.42s-1.83,4.37-2.66,6.14A24.24,24.24,0,0,1,454.45,412.56Z"/><path d="M480,373.37a14.49,14.49,0,0,1,3.55-1.31,19.16,19.16,0,0,1,4.8-.62,17.25,17.25,0,0,1,6.11,1,5.32,5.32,0,0,1,3.41,3.14q1.25,3.59,2.69,8.35t2.9,9.83q1.46,5.07,2.83,10t2.41,8.73a5.64,5.64,0,0,1-2.48,1.56,11.8,11.8,0,0,1-3.93.58,12.34,12.34,0,0,1-2.8-.27,5,5,0,0,1-1.86-.83,4.12,4.12,0,0,1-1.17-1.45,12.61,12.61,0,0,1-.8-2.07l-1.24-4.76H481.91c-.37,1.38-.73,2.8-1.1,4.28s-.74,2.89-1.11,4.27a17.18,17.18,0,0,1-2,.59,12.08,12.08,0,0,1-2.59.24,9,9,0,0,1-5.21-1.21,3.87,3.87,0,0,1-1.69-3.34,6.73,6.73,0,0,1,.28-1.93c.18-.65.39-1.41.62-2.28.32-1.24.77-2.78,1.34-4.62s1.21-3.83,1.9-6,1.43-4.34,2.21-6.59l2.21-6.38q1-3,1.89-5.35C479.21,375.4,479.66,374.2,480,373.37Zm8.28,8.9c-.64,1.93-1.37,4.08-2.17,6.45s-1.53,4.78-2.18,7.21h8.56c-.65-2.48-1.3-4.91-2-7.28s-1.27-4.49-1.83-6.38Z"/><path d="M552.22,412.49a6.25,6.25,0,0,1-2.79,1.49,16.47,16.47,0,0,1-4.38.51,15.27,15.27,0,0,1-4.83-.75,6.73,6.73,0,0,1-3.73-3.66l-6.83-13.94c-.69-1.43-1.31-2.77-1.86-4s-1.15-2.72-1.8-4.38l-.41.07c.18,2.49.29,5,.31,7.59s0,5.11,0,7.59v10.7a21.09,21.09,0,0,1-2.31.41,22.85,22.85,0,0,1-3.07.21,15.38,15.38,0,0,1-2.69-.21,4.06,4.06,0,0,1-1.93-.83,3.83,3.83,0,0,1-1.17-1.69,7.73,7.73,0,0,1-.42-2.79v-34.5a5.78,5.78,0,0,1,3-2.07,13,13,0,0,1,4.28-.69,14.83,14.83,0,0,1,4.86.79,6.6,6.6,0,0,1,3.69,3.62l6.9,13.94c.69,1.43,1.31,2.77,1.87,4s1.14,2.72,1.79,4.38l.34-.07c-.18-2.48-.29-5-.34-7.45s-.07-5-.07-7.45V372.13a19.24,19.24,0,0,1,2.31-.42,24.71,24.71,0,0,1,3.07-.2,8.24,8.24,0,0,1,4.63,1.07q1.58,1.07,1.58,4.45Z"/><path d="M577.06,415.05c-.78,0-1.68,0-2.69-.07s-2.06-.14-3.14-.28-2.16-.31-3.24-.52a15.67,15.67,0,0,1-3-.86q-3.79-1.44-3.8-5V376.06a3.07,3.07,0,0,1,.79-2.24,5.67,5.67,0,0,1,2.18-1.28,28.78,28.78,0,0,1,6.28-1.27c2.21-.21,4.18-.31,5.93-.31a33.75,33.75,0,0,1,9.76,1.31,20.14,20.14,0,0,1,7.53,4,18.25,18.25,0,0,1,4.86,6.87,25.39,25.39,0,0,1,1.73,9.8,25.66,25.66,0,0,1-1.66,9.62,18.44,18.44,0,0,1-4.73,6.9,19.71,19.71,0,0,1-7.35,4.18A30.64,30.64,0,0,1,577.06,415.05ZM573.2,405c.5.1,1.12.17,1.86.24s1.43.11,2.07.11a12.94,12.94,0,0,0,4.31-.69,8.71,8.71,0,0,0,3.38-2.14,9.84,9.84,0,0,0,2.21-3.76,17.15,17.15,0,0,0,.8-5.56q0-6.21-2.9-9.35a10,10,0,0,0-7.73-3.14c-.65,0-1.3,0-2,.07s-1.34.12-2,.21Z"/><path d="M604,381.79a9.64,9.64,0,0,1-1.31-4.83,5.22,5.22,0,0,1,1.21-3.87,4.31,4.31,0,0,1,3.14-1.17h30.08a9.64,9.64,0,0,1,1.31,4.83,5.23,5.23,0,0,1-1.21,3.87,4.31,4.31,0,0,1-3.14,1.17H626.4v31.88a21.7,21.7,0,0,1-2.38.41,25.18,25.18,0,0,1-3.21.21,14.54,14.54,0,0,1-2.8-.24,5,5,0,0,1-2-.87,3.62,3.62,0,0,1-1.24-1.72,8.31,8.31,0,0,1-.42-2.9V381.79Z"/><path d="M643.44,408.7a6.16,6.16,0,1,1,1.76,4.66A6.46,6.46,0,0,1,643.44,408.7Zm12.69-34.78q0,1.59-.06,4.59t-.28,6.49q-.21,3.48-.55,7t-.83,6a3.32,3.32,0,0,1-.83.42,8.37,8.37,0,0,1-1.17.34,10.7,10.7,0,0,1-1.24.21,9.42,9.42,0,0,1-1.11.07,8,8,0,0,1-3.34-.62A3.09,3.09,0,0,1,645,396a37.86,37.86,0,0,1-.59-4.83c-.16-2.16-.31-4.5-.45-7s-.24-5-.31-7.52-.1-4.6-.1-6.34a13.08,13.08,0,0,1,3.14-1.21,14,14,0,0,1,3.48-.45,6.6,6.6,0,0,1,4.38,1.31A4.92,4.92,0,0,1,656.13,373.92Z"/></g></svg>
